<svg width="40" height="40" viewBox="0 0 40 40" fill="none" xmlns="http://www.w3.org/2000/svg">
<g clip-path="url(#clip0_2_2894)">
<path d="M16.3112 16.4556C14.8251 16.4556 13.3725 16.0148 12.1371 15.1889C10.9016 14.3631 9.93891 13.1894 9.37074 11.8163C8.80257 10.4431 8.65447 8.93232 8.94519 7.47501C9.23591 6.01769 9.95238 4.67936 11.0039 3.62936C12.0555 2.57935 13.3949 1.86487 14.8526 1.5763C16.3104 1.28774 17.821 1.43807 19.1932 2.00828C20.5655 2.57848 21.7378 3.54293 22.5618 4.77958C23.3858 6.01624 23.8245 7.46953 23.8223 8.95556C23.8164 10.9448 23.0228 12.8507 21.6152 14.2563C20.2075 15.6619 18.3004 16.4526 16.3112 16.4556ZM16.3112 3.66667C15.2651 3.66667 14.2426 3.97685 13.3728 4.55801C12.5031 5.13916 11.8252 5.96517 11.4249 6.93158C11.0246 7.898 10.9198 8.96142 11.1239 9.98737C11.328 11.0133 11.8317 11.9557 12.5713 12.6954C13.311 13.435 14.2534 13.9387 15.2793 14.1428C16.3053 14.3469 17.3687 14.2422 18.3351 13.8419C19.3015 13.4415 20.1276 12.7637 20.7087 11.8939C21.2899 11.0242 21.6 10.0016 21.6 8.95556C21.6 7.55286 21.0428 6.20761 20.051 5.21575C19.0591 4.22389 17.7139 3.66667 16.3112 3.66667Z" fill="white"/>
<path d="M18.2444 35.2C18.0016 34.9571 17.8142 34.6644 17.6953 34.3422C17.5764 34.0199 17.5287 33.6758 17.5555 33.3333H4.44439V26.9111C6.01984 25.23 7.93073 23.8985 10.0534 23.0028C12.176 22.107 14.4631 21.667 16.7666 21.7111H17.5666C17.5156 21.3386 17.5512 20.9593 17.6707 20.6028C17.7902 20.2463 17.9903 19.9221 18.2555 19.6556L18.3888 19.5333C17.8666 19.5333 17.2777 19.4667 16.7666 19.4667C14.0559 19.4023 11.3649 19.9411 8.88792 21.0441C6.41097 22.1471 4.21009 23.7867 2.44439 25.8444C2.30014 26.0368 2.22217 26.2707 2.22217 26.5111V33.3333C2.22217 33.9227 2.45629 34.4879 2.87304 34.9047C3.28979 35.3214 3.85502 35.5556 4.44439 35.5556H18.5555L18.2444 35.2Z" fill="white"/>
<path d="M29.8556 18.1C29.9106 18.0886 29.9673 18.0886 30.0223 18.1C29.9672 18.09 29.9107 18.09 29.8556 18.1Z" fill="white"/>
<path d="M37.4223 25.9111L35.2 25.2333C35.0412 24.6898 34.8252 24.1646 34.5556 23.6667L35.6667 21.6C35.7028 21.5173 35.7116 21.4253 35.6916 21.3373C35.6716 21.2493 35.6239 21.17 35.5556 21.1111L33.9445 19.5C33.8835 19.434 33.8022 19.3905 33.7135 19.3764C33.6248 19.3623 33.534 19.3784 33.4556 19.4222L31.4111 20.5333C30.9077 20.2503 30.3749 20.0231 29.8223 19.8556L29.1445 17.6333C29.1157 17.5515 29.0611 17.4813 28.989 17.4332C28.9169 17.3851 28.831 17.3618 28.7445 17.3667H26.4667C26.3792 17.3657 26.2938 17.3934 26.2235 17.4455C26.1533 17.4977 26.1021 17.5715 26.0778 17.6556L25.4 19.8778C24.8435 20.0397 24.3069 20.2633 23.8 20.5444L21.7778 19.4333C21.7011 19.3904 21.6121 19.3747 21.5253 19.3888C21.4386 19.4029 21.3592 19.4461 21.3 19.5111L19.6556 21.1111C19.5946 21.1753 19.5554 21.2571 19.5434 21.3448C19.5314 21.4325 19.5474 21.5218 19.5889 21.6L20.7 23.6222C20.4061 24.1231 20.1713 24.6562 20 25.2111L17.7778 25.8778C17.6937 25.9021 17.62 25.9533 17.5678 26.0235C17.5156 26.0938 17.4879 26.1792 17.4889 26.2667V28.5444C17.4955 28.6247 17.5268 28.7009 17.5785 28.7626C17.6303 28.8243 17.6999 28.8685 17.7778 28.8889L20 29.5667C20.1643 30.1117 20.3878 30.6371 20.6667 31.1333L19.5556 33.2556C19.5132 33.3316 19.4968 33.4194 19.5088 33.5056C19.5208 33.5919 19.5607 33.6718 19.6223 33.7333L21.2334 35.3444C21.2963 35.4072 21.3774 35.4485 21.4652 35.4625C21.553 35.4765 21.6429 35.4624 21.7223 35.4222L23.8 34.3111C24.2945 34.5771 24.816 34.7894 25.3556 34.9444L26.0223 37.1667C26.0496 37.2489 26.1016 37.3207 26.1711 37.3724C26.2407 37.4241 26.3245 37.4531 26.4111 37.4556H28.6889C28.776 37.4548 28.8605 37.4264 28.9304 37.3745C29.0003 37.3226 29.0519 37.2498 29.0778 37.1667L29.7556 34.8889C30.288 34.7337 30.8021 34.5213 31.2889 34.2556L33.3889 35.3667C33.4661 35.4077 33.5546 35.4223 33.6409 35.4083C33.7272 35.3942 33.8065 35.3523 33.8667 35.2889L35.5556 33.7778C35.601 33.7126 35.6253 33.635 35.6253 33.5556C35.6253 33.4761 35.601 33.3985 35.5556 33.3333L34.4445 31.2444C34.7142 30.7543 34.9303 30.2365 35.0889 29.7L37.3111 29.0222C37.3952 28.9979 37.469 28.9467 37.5212 28.8765C37.5733 28.8062 37.601 28.7208 37.6 28.6333V26.3C37.6102 26.225 37.5989 26.1486 37.5675 26.0798C37.536 26.011 37.4856 25.9525 37.4223 25.9111ZM27.6111 31.1111C26.8762 31.1133 26.1572 30.8972 25.5452 30.4903C24.9332 30.0834 24.4558 29.5039 24.1736 28.8253C23.8913 28.1468 23.8169 27.3997 23.9597 26.6787C24.1025 25.9578 24.4562 25.2955 24.9759 24.7759C25.4956 24.2562 26.1578 23.9025 26.8788 23.7597C27.5997 23.6168 28.3468 23.6913 29.0254 23.9735C29.7039 24.2558 30.2834 24.7332 30.6903 25.3452C31.0973 25.9571 31.3133 26.6762 31.3111 27.4111C31.3082 28.3915 30.9174 29.3309 30.2242 30.0242C29.5309 30.7174 28.5915 31.1082 27.6111 31.1111Z" fill="white"/>
</g>
<defs>
<clipPath id="clip0_2_2894">
<rect width="40" height="40" fill="white"/>
</clipPath>
</defs>
</svg>
