<svg width="40" height="40" viewBox="0 0 40 40" fill="none" xmlns="http://www.w3.org/2000/svg">
<g clip-path="url(#clip0_4_8446)">
<path d="M16.3112 16.4558C14.8251 16.4558 13.3725 16.015 12.1371 15.1892C10.9016 14.3634 9.93891 13.1896 9.37074 11.8165C8.80257 10.4434 8.65447 8.93259 8.94519 7.47527C9.23591 6.01796 9.95238 4.67963 11.0039 3.62962C12.0555 2.57962 13.3949 1.86513 14.8526 1.57657C16.3104 1.28801 17.821 1.43834 19.1932 2.00854C20.5655 2.57874 21.7378 3.54319 22.5618 4.77985C23.3858 6.0165 23.8245 7.46979 23.8223 8.95582C23.8164 10.9451 23.0228 12.851 21.6152 14.2566C20.2075 15.6621 18.3004 16.4529 16.3112 16.4558ZM16.3112 3.66693C15.2651 3.66693 14.2426 3.97712 13.3728 4.55827C12.5031 5.13942 11.8252 5.96543 11.4249 6.93185C11.0246 7.89827 10.9198 8.96169 11.1239 9.98763C11.328 11.0136 11.8317 11.956 12.5713 12.6956C13.311 13.4353 14.2534 13.939 15.2793 14.1431C16.3053 14.3472 17.3687 14.2424 18.3351 13.8421C19.3015 13.4418 20.1276 12.7639 20.7087 11.8942C21.2899 11.0244 21.6 10.0019 21.6 8.95582C21.6 7.55312 21.0428 6.20787 20.051 5.21601C19.0591 4.22415 17.7139 3.66693 16.3112 3.66693Z" fill="#3D3D3D"/>
<path d="M18.2444 35.2004C18.0016 34.9575 17.8142 34.6648 17.6953 34.3426C17.5764 34.0204 17.5287 33.6762 17.5555 33.3337H4.44439V26.9115C6.01984 25.2304 7.93073 23.8989 10.0534 23.0032C12.176 22.1074 14.4631 21.6674 16.7666 21.7115H17.5666C17.5156 21.339 17.5512 20.9597 17.6707 20.6032C17.7902 20.2467 17.9903 19.9225 18.2555 19.656L18.3888 19.5337C17.8666 19.5337 17.2777 19.4671 16.7666 19.4671C14.0559 19.4027 11.3649 19.9415 8.88792 21.0445C6.41097 22.1475 4.21009 23.7871 2.44439 25.8448C2.30014 26.0372 2.22217 26.2711 2.22217 26.5115V33.3337C2.22217 33.9231 2.45629 34.4883 2.87304 34.9051C3.28979 35.3218 3.85502 35.556 4.44439 35.556H18.5555L18.2444 35.2004Z" fill="#3D3D3D"/>
<path d="M29.8556 18.1003C29.9106 18.089 29.9673 18.089 30.0223 18.1003C29.9672 18.0903 29.9107 18.0903 29.8556 18.1003Z" fill="#3D3D3D"/>
<path d="M37.4223 25.9113L35.2 25.2335C35.0412 24.69 34.8252 24.1648 34.5556 23.6669L35.6667 21.6002C35.7028 21.5175 35.7116 21.4254 35.6916 21.3375C35.6716 21.2495 35.6239 21.1702 35.5556 21.1113L33.9445 19.5002C33.8835 19.4342 33.8022 19.3907 33.7135 19.3766C33.6248 19.3625 33.534 19.3786 33.4556 19.4224L31.4111 20.5335C30.9077 20.2505 30.3749 20.0232 29.8223 19.8557L29.1445 17.6335C29.1157 17.5517 29.0611 17.4815 28.989 17.4334C28.9169 17.3853 28.831 17.3619 28.7445 17.3669H26.4667C26.3792 17.3658 26.2938 17.3935 26.2235 17.4457C26.1533 17.4979 26.1021 17.5717 26.0778 17.6557L25.4 19.878C24.8435 20.0399 24.3069 20.2635 23.8 20.5446L21.7778 19.4335C21.7011 19.3906 21.6121 19.3749 21.5253 19.389C21.4386 19.4031 21.3592 19.4462 21.3 19.5113L19.6556 21.1113C19.5946 21.1755 19.5554 21.2573 19.5434 21.345C19.5314 21.4327 19.5474 21.522 19.5889 21.6002L20.7 23.6224C20.4061 24.1232 20.1713 24.6564 20 25.2113L17.7778 25.878C17.6937 25.9023 17.62 25.9535 17.5678 26.0237C17.5156 26.0939 17.4879 26.1794 17.4889 26.2669V28.5446C17.4955 28.6249 17.5268 28.7011 17.5785 28.7628C17.6303 28.8245 17.6999 28.8686 17.7778 28.8891L20 29.5669C20.1643 30.1119 20.3878 30.6373 20.6667 31.1335L19.5556 33.2557C19.5132 33.3318 19.4968 33.4196 19.5088 33.5058C19.5208 33.592 19.5607 33.672 19.6223 33.7335L21.2334 35.3446C21.2963 35.4074 21.3774 35.4487 21.4652 35.4627C21.553 35.4766 21.6429 35.4626 21.7223 35.4224L23.8 34.3113C24.2945 34.5772 24.816 34.7896 25.3556 34.9446L26.0223 37.1669C26.0496 37.2491 26.1016 37.3209 26.1711 37.3726C26.2407 37.4243 26.3245 37.4533 26.4111 37.4557H28.6889C28.776 37.455 28.8605 37.4266 28.9304 37.3747C29.0003 37.3227 29.0519 37.25 29.0778 37.1669L29.7556 34.8891C30.288 34.7339 30.8021 34.5215 31.2889 34.2557L33.3889 35.3669C33.4661 35.4079 33.5546 35.4225 33.6409 35.4084C33.7272 35.3944 33.8065 35.3525 33.8667 35.2891L35.5556 33.778C35.601 33.7128 35.6253 33.6352 35.6253 33.5557C35.6253 33.4763 35.601 33.3987 35.5556 33.3335L34.4445 31.2446C34.7142 30.7545 34.9303 30.2367 35.0889 29.7002L37.3111 29.0224C37.3952 28.9981 37.469 28.9469 37.5212 28.8767C37.5733 28.8064 37.601 28.721 37.6 28.6335V26.3002C37.6102 26.2252 37.5989 26.1488 37.5675 26.08C37.536 26.0112 37.4856 25.9527 37.4223 25.9113ZM27.6111 31.1113C26.8762 31.1135 26.1572 30.8974 25.5452 30.4905C24.9332 30.0836 24.4558 29.5041 24.1736 28.8255C23.8913 28.1469 23.8169 27.3998 23.9597 26.6789C24.1025 25.958 24.4562 25.2957 24.9759 24.7761C25.4956 24.2564 26.1578 23.9027 26.8788 23.7599C27.5997 23.617 28.3468 23.6914 29.0254 23.9737C29.7039 24.256 30.2834 24.7334 30.6903 25.3453C31.0973 25.9573 31.3133 26.6764 31.3111 27.4113C31.3082 28.3917 30.9174 29.3311 30.2242 30.0244C29.5309 30.7176 28.5915 31.1084 27.6111 31.1113Z" fill="#3D3D3D"/>
</g>
<defs>
<clipPath id="clip0_4_8446">
<rect width="40" height="40" fill="white"/>
</clipPath>
</defs>
</svg>
