<svg width="40" height="40" viewBox="0 0 40 40" fill="none" xmlns="http://www.w3.org/2000/svg">
<path d="M17.5 27.4325C16.6333 27.3364 15.7809 27.1392 14.96 26.845C14.985 26.255 15 25.64 15 25V24.1575C15.775 24.5275 16.6175 24.785 17.5 24.9125V18.75C17.5 17.7554 17.8951 16.8016 18.5983 16.0984C19.3016 15.3951 20.2554 15 21.25 15H27.4125C27.2131 13.6147 26.6844 12.2975 25.8706 11.1588C25.0568 10.0202 23.9818 9.09331 22.7357 8.45607C21.4897 7.81883 20.1089 7.48979 18.7094 7.49657C17.3098 7.50334 15.9323 7.84573 14.6925 8.49501C14.4947 7.67734 14.1691 6.89604 13.7275 6.18001C15.3482 5.37107 17.1402 4.96543 18.9513 4.99756C20.7623 5.0297 22.5388 5.49866 24.1298 6.36458C25.7208 7.2305 27.0791 8.46777 28.0894 9.97121C29.0996 11.4747 29.7319 13.1998 29.9325 15H33.75C34.7446 15 35.6984 15.3951 36.4016 16.0984C37.1049 16.8016 37.5 17.7554 37.5 18.75V31.25C37.5 32.2446 37.1049 33.1984 36.4016 33.9017C35.6984 34.6049 34.7446 35 33.75 35H21.25C20.2554 35 19.3016 34.6049 18.5983 33.9017C17.8951 33.1984 17.5 32.2446 17.5 31.25V27.4325ZM29.9325 17.5C29.6484 20.0365 28.5107 22.4011 26.7059 24.2059C24.9011 26.0107 22.5365 27.1485 20 27.4325V31.25C20 31.5815 20.1317 31.8995 20.3661 32.1339C20.6005 32.3683 20.9185 32.5 21.25 32.5H33.75C34.0815 32.5 34.3995 32.3683 34.6339 32.1339C34.8683 31.8995 35 31.5815 35 31.25V18.75C35 18.4185 34.8683 18.1005 34.6339 17.8661C34.3995 17.6317 34.0815 17.5 33.75 17.5H29.9325ZM27.4125 17.5H21.25C20.9185 17.5 20.6005 17.6317 20.3661 17.8661C20.1317 18.1005 20 18.4185 20 18.75V24.9125C21.8699 24.6422 23.6023 23.7743 24.9383 22.4383C26.2743 21.1023 27.1422 19.3699 27.4125 17.5ZM11.9875 18.9025C11.725 17.9375 11.3 16.97 10.57 16.2275C11.75 15.11 12.5 13.33 12.5 11.25C12.5 9.50751 12.1475 8.31001 11.51 7.35251C11.2271 6.94069 10.9002 6.56094 10.535 6.22001C10.395 6.08488 10.2534 5.95153 10.11 5.82001C9.9575 5.67751 9.8175 5.54751 9.635 5.36501C9.26 4.99001 9.2175 4.69001 9.2175 4.53251C9.21791 4.44496 9.23226 4.35804 9.26 4.27501C9.3743 4.02782 9.40475 3.75007 9.34672 3.48399C9.28868 3.21791 9.14534 2.97807 8.93849 2.80093C8.73164 2.62379 8.4726 2.51905 8.20076 2.50264C7.92892 2.48623 7.65916 2.55904 7.4325 2.71001L7.4275 2.71251L7.42 2.71751L7.3975 2.73251L7.3225 2.78251C6.9475 3.04998 6.58621 3.33618 6.24 3.64001C5.615 4.19251 4.8 5.01001 4.2225 5.98501C3.71838 6.79333 3.31378 7.65961 3.0175 8.56501C2.7175 9.46251 2.5 10.435 2.5 11.25C2.5 13.33 3.25 15.1075 4.43 16.23C3.7 16.97 3.275 17.9375 3.0125 18.905C2.5 20.785 2.5 23.11 2.5 24.9075V25C2.5 30.145 3.4625 33.2 4.5525 35.0175C5.1 35.9275 5.67 36.515 6.1475 36.885C6.40193 37.0835 6.67884 37.2513 6.9725 37.385C7.14233 37.447 7.31978 37.4857 7.5 37.5C7.71 37.5 8.0275 37.385 8.0275 37.385C8.32116 37.2513 8.59807 37.0835 8.8525 36.885C9.3275 36.515 9.9025 35.9275 10.4475 35.0175C11.5375 33.2025 12.5 30.145 12.5 25V24.91C12.5 23.11 12.5 20.7875 11.9875 18.9025ZM6.2175 17.9775C6.5 17.6925 6.8775 17.5 7.5 17.5C8.125 17.5 8.5 17.695 8.7825 17.975C9.0975 18.2925 9.37 18.8075 9.575 19.56C9.99 21.0875 10 23.0925 10 25C10 29.855 9.0875 32.425 8.3025 33.7325C8.0025 34.2325 7.72 34.555 7.5 34.7575C7.18566 34.4552 6.9155 34.1102 6.6975 33.7325C5.9125 32.4225 5 29.855 5 25C5 23.0925 5.01 21.0875 5.425 19.56C5.63 18.81 5.9025 18.295 6.2175 17.9775ZM7.5 15C6.5375 15 5 13.93 5 11.25C5 10.8175 5.13 10.1325 5.39 9.35751C5.62693 8.62585 5.95359 7.92635 6.3625 7.27501C6.58 6.90751 6.8625 6.55001 7.1675 6.22251C7.34 6.52751 7.5675 6.83501 7.8675 7.13501C8.05 7.31751 8.2875 7.53751 8.49 7.72751L8.8 8.01751C9.0625 8.27251 9.265 8.49501 9.4275 8.74251C9.7275 9.19001 10 9.86751 10 11.25C10 13.93 8.4625 15 7.5 15Z" fill="#3D3D3D"/>
</svg>
