<svg width="40" height="40" viewBox="0 0 40 40" fill="none" xmlns="http://www.w3.org/2000/svg">
<path d="M30 30C29.0833 30 28.2983 29.6733 27.645 29.02C26.9916 28.3666 26.6655 27.5822 26.6666 26.6666C26.6666 25.75 26.9933 24.965 27.6466 24.3116C28.3 23.6583 29.0844 23.3322 30 23.3333C30.9166 23.3333 31.7016 23.66 32.355 24.3133C33.0083 24.9666 33.3344 25.7511 33.3333 26.6666C33.3333 27.5833 33.0066 28.3683 32.3533 29.0216C31.7 29.675 30.9155 30.0011 30 30ZM23.3333 36.6666V35.7083C23.3333 34.4861 23.9444 33.5066 25.1666 32.77C26.3888 32.0333 28 31.6655 30 31.6666C32 31.6666 33.6111 32.035 34.8333 32.7716C36.0555 33.5083 36.6666 34.4872 36.6666 35.7083V36.6666H23.3333ZM20 16.6666C20.9166 16.6666 21.7016 16.34 22.355 15.6866C23.0083 15.0333 23.3344 14.2489 23.3333 13.3333C23.3333 12.4166 23.0066 11.6316 22.3533 10.9783C21.7 10.325 20.9155 9.99887 20 9.99998C19.0833 9.99998 18.2983 10.3266 17.645 10.98C16.9916 11.6333 16.6655 12.4178 16.6666 13.3333C16.6666 14.25 16.9933 15.035 17.6466 15.6883C18.3 16.3416 19.0844 16.6678 20 16.6666ZM16.6666 26.6666C16.6666 27.5833 16.9933 28.3683 17.6466 29.0216C18.3 29.675 19.0844 30.0011 20 30C20.9166 30 21.7016 29.6733 22.355 29.02C23.0083 28.3666 23.3344 27.5822 23.3333 26.6666C23.3333 25.75 23.0066 24.965 22.3533 24.3116C21.7 23.6583 20.9155 23.3322 20 23.3333C19.0833 23.3333 18.2983 23.66 17.645 24.3133C16.9916 24.9666 16.6655 25.7511 16.6666 26.6666ZM20 28.3333C19.5277 28.3333 19.1316 28.1733 18.8116 27.8533C18.4916 27.5333 18.3322 27.1378 18.3333 26.6666C18.3333 26.1944 18.4933 25.7983 18.8133 25.4783C19.1333 25.1583 19.5288 24.9989 20 25C20.4722 25 20.8683 25.16 21.1883 25.48C21.5083 25.8 21.6677 26.1955 21.6666 26.6666C21.6666 27.1389 21.5066 27.535 21.1866 27.855C20.8666 28.175 20.4711 28.3344 20 28.3333ZM11.6666 11.6666C11.6666 9.30554 12.4655 7.32609 14.0633 5.72831C15.6611 4.13054 17.64 3.3322 20 3.33331C22.3611 3.33331 24.3405 4.1322 25.9383 5.72998C27.5361 7.32776 28.3344 9.30665 28.3333 11.6666V18.3333C28.3333 18.8055 28.1733 19.2016 27.8533 19.5216C27.5333 19.8416 27.1377 20.0011 26.6666 20C26.1944 20 25.7983 19.84 25.4783 19.52C25.1583 19.2 24.9988 18.8044 25 18.3333V11.6666C25 10.25 24.5 9.0622 23.5 8.10331C22.5 7.14443 21.3333 6.66554 20 6.66665C18.6666 6.66665 17.5 7.14609 16.5 8.10498C15.5 9.06387 15 10.2511 15 11.6666V28.3333C15 29.5 15.375 30.5416 16.125 31.4583C16.875 32.375 17.7916 32.9583 18.875 33.2083C19.2638 33.2916 19.5905 33.4861 19.855 33.7916C20.1194 34.0972 20.2511 34.4444 20.25 34.8333C20.25 35.3889 20.0416 35.8333 19.625 36.1666C19.2083 36.5 18.7222 36.5972 18.1666 36.4583C16.2777 36.0416 14.7222 35.0905 13.5 33.605C12.2777 32.1194 11.6666 30.3622 11.6666 28.3333V11.6666Z" fill="#3D3D3D"/>
</svg>
