<svg width="40" height="40" viewBox="0 0 40 40" fill="none" xmlns="http://www.w3.org/2000/svg">
<path d="M25 7.5H6.875C6.0462 7.5 5.25134 7.82924 4.66529 8.41529C4.07924 9.00134 3.75 9.7962 3.75 10.625V29.375C3.75 30.2038 4.07924 30.9987 4.66529 31.5847C5.25134 32.1708 6.0462 32.5 6.875 32.5H33.0258C33.8546 32.5 34.6494 32.1708 35.2355 31.5847C35.8215 30.9987 36.1508 30.2038 36.1508 29.375V18.6719" stroke="#3D3D3D" stroke-width="3" stroke-linecap="round" stroke-linejoin="round"/>
<path d="M8.75 12.5L20 21.25L26.7969 16.1195" stroke="#3D3D3D" stroke-width="3" stroke-linecap="round" stroke-linejoin="round"/>
<path d="M33.7461 13.75C35.815 13.75 37.4922 12.0728 37.4922 10.0039C37.4922 7.935 35.815 6.25781 33.7461 6.25781C31.6772 6.25781 30 7.935 30 10.0039C30 12.0728 31.6772 13.75 33.7461 13.75Z" fill="#3D3D3D"/>
<path d="M33.75 15C32.7619 15 31.7959 14.707 30.9743 14.158C30.1527 13.609 29.5124 12.8287 29.1342 11.9158C28.7561 11.0029 28.6571 9.99837 28.8499 9.02922C29.0427 8.06007 29.5185 7.16985 30.2172 6.47114C30.9159 5.77242 31.8062 5.29659 32.7753 5.10381C33.7445 4.91104 34.749 5.00998 35.6619 5.38812C36.5748 5.76626 37.3551 6.40662 37.9041 7.22823C38.4531 8.04983 38.7461 9.01577 38.7461 10.0039C38.7451 11.3286 38.2184 12.5988 37.2816 13.5355C36.3449 14.4723 35.0747 14.999 33.75 15ZM33.75 7.50781C33.2554 7.50704 32.7717 7.65301 32.36 7.92724C31.9484 8.20147 31.6273 8.59165 31.4375 9.0484C31.2477 9.50514 31.1976 10.0079 31.2937 10.4931C31.3897 10.9784 31.6275 11.4242 31.9769 11.7742C32.3264 12.1242 32.7719 12.3627 33.2569 12.4595C33.742 12.5563 34.2449 12.507 34.7019 12.3179C35.1589 12.1288 35.5496 11.8084 35.8245 11.3971C36.0994 10.9859 36.2461 10.5024 36.2461 10.0078C36.2461 9.34545 35.9832 8.71016 35.5152 8.24143C35.0472 7.7727 34.4124 7.50885 33.75 7.50781Z" fill="#3D3D3D"/>
</svg>
