<svg width="40" height="40" viewBox="0 0 40 40" fill="none" xmlns="http://www.w3.org/2000/svg">
<g id="ic:sharp-broadcast-on-home">
<path id="Vector" d="M36.6666 16.2665V6.6665H6.66659V9.99984H33.3333V14.3165C34.5499 14.7998 35.6666 15.4665 36.6666 16.2665ZM14.9999 14.9998H3.33325V33.3332H14.9999V14.9998ZM11.6666 29.9998H6.66659V18.3332H11.6666V29.9998ZM29.5833 28.2832C30.0833 27.8998 30.4166 27.3332 30.4166 26.6665C30.4166 26.114 30.1971 25.5841 29.8064 25.1934C29.4157 24.8027 28.8858 24.5832 28.3333 24.5832C27.7807 24.5832 27.2508 24.8027 26.8601 25.1934C26.4694 25.5841 26.2499 26.114 26.2499 26.6665C26.2499 27.3332 26.5833 27.9165 27.0833 28.2832V36.6665H29.5833V28.2832Z" fill="#3D3D3D"/>
<path id="Vector_2" d="M28.3334 22.5C29.4385 22.5 30.4983 22.939 31.2797 23.7204C32.0611 24.5018 32.5001 25.5616 32.5001 26.6667C32.5001 27.8167 32.0334 28.85 31.2834 29.6L33.0501 31.3667C34.2501 30.1667 35.0001 28.5 35.0001 26.6667C35.0001 22.9833 32.0167 20 28.3334 20C24.6501 20 21.6667 22.9833 21.6667 26.6667C21.6667 28.5 22.4167 30.1667 23.6167 31.3833L25.3834 29.6167C24.7992 29.0339 24.4012 28.2908 24.2398 27.4816C24.0784 26.6724 24.1609 25.8334 24.4769 25.0711C24.7929 24.3089 25.3281 23.6576 26.0146 23.1998C26.7012 22.7421 27.5082 22.4985 28.3334 22.5Z" fill="#3D3D3D"/>
<path id="Vector_3" d="M28.3333 15.8335C25.4602 15.8335 22.7047 16.9749 20.673 19.0065C18.6414 21.0381 17.5 23.7937 17.5 26.6668C17.5 29.6502 18.7167 32.3668 20.6667 34.3335L22.4333 32.5668C20.9333 31.0502 20 28.9668 20 26.6668C20 22.0668 23.7333 18.3335 28.3333 18.3335C32.9333 18.3335 36.6667 22.0668 36.6667 26.6668C36.6667 28.9502 35.7333 31.0335 34.2333 32.5335L36.0167 34.3002C37.5239 32.7823 38.548 30.8522 38.96 28.7532C39.3719 26.6542 39.1533 24.4802 38.3316 22.5053C37.5099 20.5304 36.1219 18.8429 34.3426 17.6556C32.5633 16.4683 30.4724 15.8343 28.3333 15.8335Z" fill="#3D3D3D"/>
</g>
</svg>
