<svg width="28" height="28" viewBox="0 0 28 28" fill="none" xmlns="http://www.w3.org/2000/svg">
<g clip-path="url(#clip0_16_23)">
<path d="M23.3333 3.5C23.9522 3.5 24.5456 3.74583 24.9832 4.18342C25.4208 4.621 25.6666 5.21449 25.6666 5.83333V22.1667C25.6666 22.7855 25.4208 23.379 24.9832 23.8166C24.5456 24.2542 23.9522 24.5 23.3333 24.5H4.66665C4.04781 24.5 3.45432 24.2542 3.01673 23.8166C2.57915 23.379 2.33331 22.7855 2.33331 22.1667V5.83333C2.33331 5.21449 2.57915 4.621 3.01673 4.18342C3.45432 3.74583 4.04781 3.5 4.66665 3.5H23.3333ZM19.8333 17.5H8.16665C7.85723 17.5 7.56048 17.6229 7.34169 17.8417C7.1229 18.0605 6.99998 18.3572 6.99998 18.6667C6.99998 18.9761 7.1229 19.2728 7.34169 19.4916C7.56048 19.7104 7.85723 19.8333 8.16665 19.8333H19.8333C20.1427 19.8333 20.4395 19.7104 20.6583 19.4916C20.8771 19.2728 21 18.9761 21 18.6667C21 18.3572 20.8771 18.0605 20.6583 17.8417C20.4395 17.6229 20.1427 17.5 19.8333 17.5ZM11.6666 8.16667H9.33331C8.74464 8.16648 8.17765 8.38881 7.74601 8.78908C7.31436 9.18935 7.04996 9.73799 7.00581 10.325L6.99998 10.5V12.8333C6.99979 13.422 7.22212 13.989 7.62239 14.4206C8.02267 14.8523 8.5713 15.1167 9.15831 15.1608L9.33331 15.1667H11.6666C12.2553 15.1669 12.8223 14.9445 13.254 14.5443C13.6856 14.144 13.95 13.5953 13.9941 13.0083L14 12.8333V10.5C14.0002 9.91133 13.7778 9.34434 13.3776 8.91269C12.9773 8.48105 12.4287 8.21665 11.8416 8.1725L11.6666 8.16667ZM19.8333 12.8333H16.3333C16.036 12.8337 15.7499 12.9475 15.5337 13.1517C15.3175 13.3558 15.1874 13.6348 15.1699 13.9316C15.1525 14.2285 15.2491 14.5208 15.44 14.7488C15.6308 14.9768 15.9015 15.1234 16.1968 15.1585L16.3333 15.1667H19.8333C20.1307 15.1663 20.4167 15.0525 20.6329 14.8483C20.8491 14.6442 20.9793 14.3652 20.9967 14.0684C21.0141 13.7715 20.9175 13.4792 20.7267 13.2512C20.5358 13.0232 20.2651 12.8766 19.9698 12.8415L19.8333 12.8333ZM11.6666 10.5V12.8333H9.33331V10.5H11.6666ZM19.8333 8.16667H16.3333C16.0239 8.16667 15.7271 8.28958 15.5084 8.50838C15.2896 8.72717 15.1666 9.02391 15.1666 9.33333C15.1666 9.64275 15.2896 9.9395 15.5084 10.1583C15.7271 10.3771 16.0239 10.5 16.3333 10.5H19.8333C20.1427 10.5 20.4395 10.3771 20.6583 10.1583C20.8771 9.9395 21 9.64275 21 9.33333C21 9.02391 20.8771 8.72717 20.6583 8.50838C20.4395 8.28958 20.1427 8.16667 19.8333 8.16667Z" fill="#3D3D3D"/>
</g>
<defs>
<clipPath id="clip0_16_23">
<rect width="28" height="28" fill="white"/>
</clipPath>
</defs>
</svg>
