<svg width="28" height="28" viewBox="0 0 28 28" fill="none" xmlns="http://www.w3.org/2000/svg">
<path d="M22.1667 3.5H5.83333C5.21449 3.5 4.621 3.74583 4.18342 4.18342C3.74583 4.621 3.5 5.21449 3.5 5.83333V22.1667C3.5 22.7855 3.74583 23.379 4.18342 23.8166C4.621 24.2542 5.21449 24.5 5.83333 24.5H22.1667C22.7855 24.5 23.379 24.2542 23.8166 23.8166C24.2542 23.379 24.5 22.7855 24.5 22.1667V5.83333C24.5 5.21449 24.2542 4.621 23.8166 4.18342C23.379 3.74583 22.7855 3.5 22.1667 3.5ZM7 7H12.8333V12.8333H7V7ZM12.25 22.1667C11.4765 22.1667 10.7346 21.8594 10.1876 21.3124C9.64062 20.7654 9.33333 20.0235 9.33333 19.25C9.33333 18.4765 9.64062 17.7346 10.1876 17.1876C10.7346 16.6406 11.4765 16.3333 12.25 16.3333C13.0235 16.3333 13.7654 16.6406 14.3124 17.1876C14.8594 17.7346 15.1667 18.4765 15.1667 19.25C15.1667 20.0235 14.8594 20.7654 14.3124 21.3124C13.7654 21.8594 13.0235 22.1667 12.25 22.1667ZM15.75 15.1667L19.25 9.33333L22.75 15.1667H15.75Z" fill="#3D3D3D"/>
</svg>
