<svg width="28" height="28" viewBox="0 0 28 28" fill="none" xmlns="http://www.w3.org/2000/svg">
<path d="M14 2.33331C20.4435 2.33331 25.6666 7.55648 25.6666 14C25.6666 20.4435 20.4435 25.6666 14 25.6666C7.55648 25.6666 2.33331 20.4435 2.33331 14C2.33331 7.55648 7.55648 2.33331 14 2.33331ZM14 5.83331C12.4069 5.83318 10.8486 6.29898 9.51699 7.17333C8.18535 8.04768 7.13849 9.29241 6.50536 10.7542C5.87222 12.216 5.68045 13.8311 5.95365 15.4006C6.22686 16.97 6.95311 18.4253 8.04298 19.5871L8.22498 19.7738L9.87465 18.1241C8.96606 17.2162 8.38255 16.0338 8.21466 14.7603C8.04676 13.4869 8.30388 12.1936 8.9461 11.0812C9.58832 9.96886 10.5797 9.09954 11.7665 8.6082C12.9533 8.11685 14.2691 8.03094 15.5096 8.36381L17.3343 6.54381C16.2855 6.07424 15.1491 5.83209 14 5.83331ZM21.4573 10.6668L19.6361 12.4891C19.9002 13.4784 19.8995 14.5197 19.6344 15.5087C19.3692 16.4977 18.8488 17.3996 18.1253 18.1241L19.775 19.775C20.5344 19.0174 21.1367 18.1172 21.5471 17.1262C21.9576 16.1351 22.1681 15.0727 22.1666 14C22.1681 12.8513 21.9264 11.7154 21.4573 10.6668ZM18.949 7.40015L14.6031 11.746C14.2575 11.6542 13.8954 11.643 13.5448 11.7132C13.1941 11.7834 12.8643 11.9331 12.5806 12.1509C12.2969 12.3686 12.067 12.6485 11.9086 12.9691C11.7501 13.2897 11.6673 13.6424 11.6666 14C11.6666 14.3321 11.7375 14.6604 11.8746 14.9629C12.0116 15.2654 12.2117 15.5352 12.4613 15.7542C12.711 15.9732 13.0045 16.1364 13.3224 16.2328C13.6402 16.3293 13.9749 16.3568 14.3042 16.3135C14.6334 16.2702 14.9497 16.1571 15.2318 15.9818C15.5138 15.8065 15.7552 15.5729 15.9398 15.2968C16.1244 15.0207 16.2479 14.7084 16.3021 14.3808C16.3562 14.0531 16.3398 13.7176 16.254 13.3968L20.5998 9.04981L18.949 7.40015Z" fill="#3D3D3D"/>
</svg>
