<svg width="28" height="28" viewBox="0 0 28 28" fill="none" xmlns="http://www.w3.org/2000/svg">
<g clip-path="url(#clip0_16_28)">
<path d="M27.1211 25.0522L23.3333 21.2878V6.80555L21.5444 3.51555C21.4125 3.26472 21.2145 3.05471 20.9719 2.9082C20.7292 2.76169 20.4512 2.68425 20.1678 2.68425C19.8843 2.68425 19.6063 2.76169 19.3637 2.9082C19.1211 3.05471 18.9231 3.26472 18.7911 3.51555L17.1111 6.81333V15.0967L2.88556 0.941108C2.77677 0.831419 2.63778 0.756611 2.48631 0.726224C2.33484 0.695836 2.17775 0.711245 2.03507 0.770486C1.89239 0.829727 1.77059 0.930116 1.68519 1.05885C1.59978 1.18759 1.55466 1.33884 1.55556 1.49333V7.77777H3.24333V9.02222H1.55556V14H3.24333V15.2444H1.55556V20.4167H3.24333V21.6611H1.55556V25.6044C1.55556 25.8107 1.6375 26.0086 1.78336 26.1544C1.92922 26.3003 2.12705 26.3822 2.33333 26.3822H26.5689C26.7234 26.3831 26.8746 26.338 27.0034 26.2526C27.1321 26.1672 27.2325 26.0454 27.2917 25.9027C27.351 25.76 27.3664 25.6029 27.336 25.4515C27.3056 25.3 27.2308 25.161 27.1211 25.0522ZM7.77778 20.2222V13.1756L14.8322 20.2222H7.77778ZM21.7778 21.8633H18.6667V19.9733H21.7778V21.8633ZM21.7778 18.7522H18.6667V7.19444L20.1756 4.26222L21.7778 7.20222V18.7522Z" fill="#3D3D3D"/>
</g>
<defs>
<clipPath id="clip0_16_28">
<rect width="28" height="28" fill="white"/>
</clipPath>
</defs>
</svg>
