<svg width="24" height="24" viewBox="0 0 24 24" fill="none" xmlns="http://www.w3.org/2000/svg">
<path d="M14.6858 11.5125L6.38403 10.05V20.8568C6.38413 20.9742 6.40735 21.0904 6.45237 21.1989C6.49739 21.3073 6.56332 21.4058 6.64641 21.4887C6.72949 21.5717 6.8281 21.6374 6.93661 21.6823C7.04511 21.7271 7.16138 21.7501 7.27878 21.75H21.6038C21.7213 21.7503 21.8377 21.7275 21.9464 21.6827C22.0551 21.638 22.1539 21.5722 22.2371 21.4893C22.3204 21.4063 22.3864 21.3077 22.4316 21.1992C22.4767 21.0907 22.4999 20.9743 22.5 20.8568V16.875L14.6858 11.5125Z" fill="#185C37"/>
<path d="M14.6858 2.25H7.27878C7.16138 2.2499 7.04511 2.27293 6.93661 2.31776C6.8281 2.3626 6.72949 2.42837 6.64641 2.51132C6.56332 2.59426 6.49739 2.69276 6.45237 2.80119C6.40735 2.90962 6.38413 3.02585 6.38403 3.14325V7.125L14.6858 12L19.0815 13.4625L22.5 12V7.125L14.6858 2.25Z" fill="#21A366"/>
<path d="M6.38403 7.125H14.6858V12H6.38403V7.125Z" fill="#107C41"/>
<path opacity="0.1" d="M12.3255 6.15002H6.38403V18.3375H12.3255C12.5623 18.3363 12.789 18.2419 12.9567 18.0747C13.1243 17.9075 13.2193 17.681 13.221 17.4443V7.04327C13.2193 6.80653 13.1243 6.58002 12.9567 6.41282C12.789 6.24562 12.5623 6.1512 12.3255 6.15002Z" fill="black"/>
<path opacity="0.2" d="M11.8373 6.63745H6.38403V18.825H11.8373C12.074 18.8238 12.3008 18.7294 12.4684 18.5622C12.636 18.395 12.731 18.1684 12.7328 17.9317V7.5307C12.731 7.29396 12.636 7.06744 12.4684 6.90024C12.3008 6.73305 12.074 6.63863 11.8373 6.63745Z" fill="black"/>
<path opacity="0.2" d="M11.8373 6.63745H6.38403V17.85H11.8373C12.074 17.8488 12.3008 17.7544 12.4684 17.5872C12.636 17.42 12.731 17.1934 12.7328 16.9567V7.5307C12.731 7.29396 12.636 7.06744 12.4684 6.90024C12.3008 6.73305 12.074 6.63863 11.8373 6.63745Z" fill="black"/>
<path opacity="0.2" d="M11.349 6.63745H6.38403V17.85H11.349C11.5858 17.8488 11.8125 17.7544 11.9802 17.5872C12.1478 17.42 12.2428 17.1934 12.2445 16.9567V7.5307C12.2428 7.29396 12.1478 7.06744 11.9802 6.90024C11.8125 6.73305 11.5858 6.63863 11.349 6.63745Z" fill="black"/>
<path d="M2.3955 6.63745H11.349C11.5862 6.63725 11.8137 6.73123 11.9816 6.89872C12.1496 7.06622 12.2441 7.29353 12.2445 7.5307V16.4692C12.2441 16.7064 12.1496 16.9337 11.9816 17.1012C11.8137 17.2687 11.5862 17.3627 11.349 17.3625H2.3955C2.27804 17.3626 2.16168 17.3397 2.05309 17.2949C1.9445 17.2501 1.84581 17.1844 1.76264 17.1014C1.67948 17.0184 1.61348 16.9199 1.56841 16.8114C1.52334 16.703 1.5001 16.5867 1.5 16.4692V7.5307C1.5001 7.41324 1.52334 7.29694 1.56841 7.18847C1.61348 7.07999 1.67948 6.98146 1.76264 6.8985C1.84581 6.81555 1.9445 6.74979 2.05309 6.705C2.16168 6.66021 2.27804 6.63726 2.3955 6.63745Z" fill="url(#paint0_linear_29_1213)"/>
<path d="M4.27502 14.9047L6.15827 11.9917L4.43327 9.09521H5.81852L6.75977 10.95C6.84677 11.1255 6.90977 11.256 6.93827 11.343H6.95102C7.01252 11.202 7.07777 11.0662 7.14602 10.9335L8.15252 9.09821H9.42752L7.65827 11.9782L9.47252 14.907H8.11577L7.02827 12.8737C6.97778 12.7863 6.93487 12.6947 6.90002 12.6H6.88202C6.85031 12.6923 6.80803 12.7806 6.75602 12.8632L5.63627 14.9047H4.27502Z" fill="white"/>
<path d="M21.6045 2.25H14.6858V7.125H22.5V3.14325C22.4999 3.02579 22.4767 2.90949 22.4316 2.80102C22.3866 2.69254 22.3206 2.59401 22.2374 2.51105C22.1542 2.4281 22.0555 2.36234 21.9469 2.31755C21.8384 2.27276 21.722 2.2498 21.6045 2.25Z" fill="#33C481"/>
<path d="M14.6858 12H22.5V16.875H14.6858V12Z" fill="#107C41"/>
<defs>
<linearGradient id="paint0_linear_29_1213" x1="3.3705" y1="5.93545" x2="10.374" y2="18.0645" gradientUnits="userSpaceOnUse">
<stop stop-color="#18884F"/>
<stop offset="0.5" stop-color="#117E43"/>
<stop offset="1" stop-color="#0B6631"/>
</linearGradient>
</defs>
</svg>
