<svg width="904" height="818" viewBox="0 0 904 818" fill="none" xmlns="http://www.w3.org/2000/svg">
<path opacity="0.6" d="M890.701 175.225C897.688 134.271 867.559 95.8185 823.406 89.3377C779.253 82.857 737.796 110.803 730.809 151.756C723.822 192.709 753.951 231.162 798.104 237.643C842.257 244.124 883.714 216.178 890.701 175.225Z" stroke="#1C4584" stroke-miterlimit="10"/>
<path opacity="0.6" d="M823.543 97.6214C830.53 56.6681 800.401 18.2152 756.248 11.7345C712.095 5.25372 670.638 33.1993 663.651 74.1527C656.664 115.106 686.793 153.559 730.946 160.04C775.099 166.521 816.556 138.575 823.543 97.6214Z" stroke="#1C4584" stroke-miterlimit="10"/>
<path d="M69.3583 818H679.614C681.486 818 682.973 816.486 682.973 814.64C682.973 812.768 681.459 811.281 679.614 811.281H69.3583C67.4865 811.281 66 812.795 66 814.64C66 816.486 67.514 818 69.3583 818Z" fill="#2D5B98"/>
<path d="M264.69 784.42C245.861 784.42 230.583 769.136 230.583 750.3V703.787H298.796V750.3C298.796 769.136 283.518 784.42 264.69 784.42Z" fill="#5896FA"/>
<path d="M230.583 738.954H226.812V811.132H230.583V738.954Z" fill="#0E0E0E"/>
<path d="M302.567 738.954H298.796V811.132H302.567V738.954Z" fill="#0E0E0E"/>
<path d="M273.636 738.954H269.865V811.132H273.636V738.954Z" fill="#0E0E0E"/>
<path d="M298.961 784.42H226.812V788.193H298.961V784.42Z" fill="#0E0E0E"/>
<path d="M317.79 626.982C321.919 632.903 313.634 638.025 312.34 646.232C311.046 654.438 320.46 659.065 310.468 669.832C304.329 676.469 299.127 667.657 294.144 677.818C289.134 687.98 293.098 689.687 287.455 693.35C277.655 699.711 262.68 685.639 267.718 675.477C272.755 665.343 282.94 666.225 278.233 657.88C273.526 649.536 271.764 645.929 279.885 641.633C289.96 636.318 298.824 641.192 299.622 633.426C300.475 625.688 312.367 619.134 317.79 626.982Z" fill="#FFCA59"/>
<path d="M274.792 703.346L273.086 703.016C281.013 662.892 307.33 634.803 307.577 634.528L308.816 635.712C308.596 635.96 282.61 663.718 274.792 703.346Z" fill="#0E0E0E"/>
<path d="M185.906 612.139C181.639 620.813 193.641 625.908 197 636.538C200.358 647.168 187.998 650.913 203.359 663.14C212.828 670.686 214.81 665.977 218.278 682.83C221.334 697.674 232.62 683.546 241.044 692.248C251.917 703.484 268.901 678.81 260.203 666.417C251.504 653.997 241.346 657.219 245.888 645.213C250.458 633.206 245.008 624.173 233.391 620.125C218.994 615.113 213.819 627.202 211.204 617.096C208.589 606.962 191.549 600.683 185.906 612.139Z" fill="#ED5A24"/>
<path d="M258.193 704.558C239.86 653.694 199.918 622.218 199.532 621.915L200.964 620.097C201.377 620.4 241.814 652.29 260.395 703.787L258.193 704.558Z" fill="#0E0E0E"/>
<path d="M366.12 811.078H351.861L350.374 780.097H367.579L366.12 811.078Z" fill="#0E0E0E"/>
<path d="M613.839 811.078H599.58L598.094 780.097H615.298L613.839 811.078Z" fill="#0E0E0E"/>
<path d="M601.397 726.286C599.828 731.161 598.121 736.173 596.249 741.295H359.623C359.623 741.295 329.095 616.958 359.623 594.211C360.394 593.633 361.33 593.055 362.431 592.504C403.557 571.354 568.447 566.397 601.92 593.605C602.168 593.798 602.415 594.019 602.636 594.239C614.995 605.53 625.704 650.748 601.397 726.286Z" fill="#EA7B00"/>
<path d="M448.84 741.295H359.678L368.377 654.135C383.93 660.882 425.304 696.517 448.84 741.295Z" fill="#982C20"/>
<path d="M601.397 726.286C599.828 731.161 598.121 736.173 596.249 741.295H510.309C525.091 713.866 560.932 672.338 595.726 653.226L601.397 726.286Z" fill="#982C20"/>
<path d="M631.044 652.924H598.231C592.726 652.924 588.046 656.999 587.33 662.479L576.87 741.625H385.169L374.708 662.479C373.993 656.999 369.313 652.924 363.808 652.924H330.995C324.14 652.924 318.965 659.12 320.177 665.839L338.4 797.639H356.403H623.088H623.667L641.89 665.839C643.073 659.12 637.898 652.924 631.044 652.924Z" fill="#EA7B00"/>
<path d="M574.97 698.39C590.413 703.567 587.385 736.255 574.97 741.295H387.701C373.717 737.687 372.534 694.424 392.711 697.674C516.144 720.889 522.118 683.849 574.97 698.39Z" fill="#F2B066"/>
<path d="M432.241 665.261C432.186 673.715 432.626 681.646 433.534 688.614H521.347L526.55 602.831C521.319 571.492 507.06 563.919 484.46 563.919C464.228 563.919 450.767 580.415 442.563 602.528C435.489 621.585 432.351 644.855 432.241 665.261Z" fill="#007880"/>
<path d="M432.241 666.913L464.007 665.013C446.362 659.23 444.958 632.159 462.906 615.306L442.564 602.528C435.489 621.585 432.351 646.507 432.241 666.913Z" fill="#005459"/>
<path d="M426.185 706.321H546.837V665.261H438.159L426.185 706.321Z" fill="#0E0E0E"/>
<path d="M562.253 693.295L529.853 811.105H504.583C512.593 760.985 510.804 728.379 518.319 686.769C524.898 652.593 570.098 661.626 562.253 693.295Z" fill="#0E0E0E"/>
<path d="M520.769 811.077C520.769 810.995 520.769 810.912 520.769 810.857C520.769 802.127 527.843 795.05 536.57 795.05C545.296 795.05 552.37 802.127 552.37 810.857C552.37 810.94 552.37 811.022 552.37 811.077H520.769Z" fill="#B15626"/>
<path d="M539.625 795.353L533.872 793.591C530.073 786.128 513.915 787.064 516.172 796.124C509.813 797.06 506.482 793.921 506.482 793.921L504.583 811.105H538.854L539.625 795.353Z" fill="#B15626"/>
<path d="M419.963 693.295L452.363 811.105H477.633C469.623 760.985 471.412 728.379 463.897 686.769C457.291 652.593 412.091 661.626 419.963 693.295Z" fill="#0E0E0E"/>
<path d="M461.447 811.077C461.447 810.995 461.447 810.912 461.447 810.857C461.447 802.127 454.373 795.05 445.647 795.05C436.92 795.05 429.846 802.127 429.846 810.857C429.846 810.94 429.846 811.022 429.846 811.077H461.447Z" fill="#B15626"/>
<path d="M442.591 795.353L448.344 793.591C452.143 786.128 468.302 787.064 466.044 796.124C472.403 797.06 475.734 793.921 475.734 793.921L477.634 811.105H443.362L442.591 795.353Z" fill="#B15626"/>
<path d="M470.917 566.645C482.781 573.833 484.46 595.203 478.377 603.712L444.545 628.91L478.982 646.645L473.394 664.958C473.394 664.958 437.443 662.039 419.853 643.974C402.979 626.679 444.16 575.761 470.917 566.645Z" fill="#007880"/>
<path d="M494.976 599.058C484.846 586.335 491.838 566.645 504.775 567.224C546.865 582.039 559.858 623.182 546.507 641.66C535.083 657.495 484.846 663.581 484.846 663.581V646.259L519.75 638.714C519.723 638.714 501.747 610.817 494.976 599.058Z" fill="#007880"/>
<path d="M458.089 659.202C457.428 653.392 460.842 646.149 469.568 644.552C484.818 641.77 490.324 650.142 491.783 656.146C492.168 657.715 490.737 659.34 489.443 659.202C488.121 659.065 487.213 658.321 486.993 657.137C486.718 655.705 485.974 653.942 484.323 653.006C485.892 656.09 485.231 659.202 480.937 659.202H458.089Z" fill="#F7A594"/>
<path d="M492.526 659.202L504.528 599.003H507.06C506.234 603.161 494.453 663.361 494.067 665.261C490.929 665.261 462.025 665.261 458.116 665.261L454.18 659.202H492.526Z" fill="#99C1FF"/>
<path d="M507.06 599.003H596.332L583.146 665.261H494.067L507.06 599.003Z" fill="white"/>
<path d="M481.019 570.969C481.019 577.826 501.555 582.37 508.244 575.155C509.262 574.081 509.951 572.731 510.226 571.079L514.08 553.73L489.58 544.477L488.837 546.735L481.019 570.969Z" fill="#F7A594"/>
<path d="M510.226 571.107L514.08 553.757L490.902 547.506C484.901 565.379 506.317 579.644 510.226 571.107Z" fill="#F4856D"/>
<path d="M487.791 537.84C486.497 554.886 499.958 569.895 511.272 570.666C522.586 571.437 538.139 558.797 539.433 541.75C540.726 524.704 530.211 509.998 515.952 508.924C501.665 507.85 489.057 520.793 487.791 537.84Z" fill="#F7A594"/>
<path d="M506.675 510.219C522.31 500.332 530.899 509.64 538.689 519.499C544.14 526.439 548.021 531.396 554.82 532.442C541.745 548.938 515.594 538.06 507.363 521.537C506.565 530.955 495.471 538.749 487.791 537.84C485.286 527.375 492.553 506.198 506.675 510.219Z" fill="#0E0E0E"/>
<path d="M491.862 544.77C495.569 544.169 498.086 540.675 497.485 536.966C496.883 533.258 493.391 530.74 489.684 531.342C485.977 531.944 483.46 535.438 484.062 539.146C484.663 542.854 488.156 545.372 491.862 544.77Z" fill="#F7A594"/>
<path d="M686.818 518.453C689.099 508.491 682.876 498.565 672.918 496.283C662.96 494 653.038 500.226 650.757 510.188C648.476 520.15 654.699 530.076 664.657 532.358C674.615 534.64 684.537 528.415 686.818 518.453Z" fill="white"/>
<path d="M697.999 531.903C700.394 527.91 701.908 523.614 702.541 519.29L703.917 519.483L706.642 519.896H706.67C707.413 514.939 707.165 509.899 705.954 505.108L701.908 506.099C700.834 501.748 698.907 497.617 696.182 493.982L699.54 491.476C696.677 487.566 692.989 484.178 688.584 481.507L686.41 485.087C682.418 482.691 678.124 481.177 673.802 480.543L674.408 476.412C669.453 475.669 664.415 475.944 659.625 477.128L660.616 481.177C656.267 482.251 652.138 484.178 648.504 486.905L645.999 483.545C642.09 486.409 638.705 490.099 636.034 494.505L639.613 496.681C637.218 500.674 635.704 504.97 635.071 509.294L632.153 508.853L630.969 508.688C630.226 513.645 630.501 518.684 631.685 523.476L635.732 522.484C636.805 526.836 638.732 530.966 641.485 534.629L638.127 537.135C640.989 541.045 644.678 544.433 649.055 547.076L651.23 543.496C655.221 545.892 659.515 547.407 663.865 548.04L663.397 551.262L663.259 552.171C668.214 552.915 673.224 552.639 678.014 551.455L677.023 547.407C681.372 546.333 685.501 544.405 689.162 541.679L691.667 545.039C695.549 542.147 698.962 538.484 701.605 534.078L697.999 531.903ZM659.24 530.168C650.486 524.88 647.679 513.507 652.936 504.75C658.222 495.992 669.563 493.183 678.317 498.471C687.07 503.758 689.878 515.104 684.593 523.861C679.363 532.619 667.994 535.428 659.24 530.168Z" fill="#3D3D3D"/>
<path d="M628.74 529.452C627.391 527.414 625.684 525.734 623.757 524.44L624.17 523.834L624.968 522.622V522.595C622.766 521.135 620.316 520.116 617.784 519.593L617.343 521.741C615.031 521.273 612.636 521.245 610.296 521.713L609.856 519.565C607.351 520.061 604.901 521.025 602.644 522.54L603.855 524.385C601.818 525.734 600.139 527.441 598.845 529.369L597.028 528.157C595.569 530.361 594.551 532.811 594.028 535.345L596.175 535.786C595.707 538.099 595.679 540.495 596.147 542.836L594 543.276C594.495 545.782 595.459 548.233 596.973 550.491L598.817 549.28C600.166 551.317 601.873 552.997 603.8 554.292L602.946 555.586L602.589 556.109C604.791 557.569 607.241 558.588 609.773 559.111L610.214 556.963C612.526 557.431 614.921 557.458 617.288 556.963L617.729 559.111C620.234 558.615 622.684 557.651 624.941 556.164L623.73 554.319C625.767 552.97 627.473 551.262 628.74 549.335L630.171 550.298L630.584 550.574C632.043 548.371 633.061 545.92 633.584 543.386L631.437 542.946C631.905 540.632 631.933 538.237 631.465 535.868L633.612 535.428C633.116 532.922 632.153 530.471 630.639 528.213L628.74 529.452ZM619.16 547.49C614.673 550.464 608.617 549.224 605.672 544.736C602.699 540.247 603.937 534.216 608.424 531.242C612.911 528.268 618.94 529.507 621.913 533.996C624.886 538.484 623.647 544.515 619.16 547.49Z" fill="#959596"/>
<path d="M317.646 518.057V516.266C317.646 515.445 316.99 514.789 316.169 514.789H300.477C299.656 514.789 299 515.445 299 516.266V547.947H339.574V518.057H317.646Z" fill="#0C1E3A"/>
<path d="M341.26 519.146H301.491L299.015 547.963H339.38L341.26 519.146Z" fill="white"/>
<path d="M339.574 547.963H299L303.311 519.519C303.43 518.684 304.146 518.072 304.997 518.072H342.125C343.169 518.072 343.96 518.997 343.811 520.027L339.574 547.963Z" fill="#4C5E79"/>
<path d="M350.391 525.722C354.02 522.091 354.02 516.205 350.391 512.574C346.762 508.943 340.878 508.943 337.249 512.574C333.619 516.205 333.619 522.091 337.249 525.722C340.878 529.353 346.762 529.353 350.391 525.722Z" fill="#3B5070"/>
<path d="M343.825 528.786C338.515 528.786 334.189 524.459 334.189 519.146C334.189 513.834 338.515 509.506 343.825 509.506C349.136 509.506 353.462 513.834 353.462 519.146C353.462 524.459 349.136 528.786 343.825 528.786ZM343.825 510.192C338.888 510.192 334.875 514.207 334.875 519.146C334.875 524.086 338.888 528.1 343.825 528.1C348.763 528.1 352.775 524.086 352.775 519.146C352.775 514.207 348.763 510.192 343.825 510.192Z" fill="white"/>
<path d="M339.351 517.474V524.056C339.351 524.787 348.301 524.787 348.301 524.056V517.474H339.351ZM344.273 520.966V522.832C344.273 523.086 344.064 523.28 343.826 523.28C343.572 523.28 343.378 523.071 343.378 522.832V520.966C342.99 520.787 342.722 520.399 342.722 519.967C342.722 519.355 343.214 518.862 343.826 518.862C344.437 518.862 344.93 519.355 344.93 519.967C344.93 520.399 344.661 520.787 344.273 520.966Z" fill="white"/>
<path d="M347.51 516.997H346.6V516.549C346.6 515.012 345.347 513.759 343.811 513.759C342.275 513.759 341.022 515.012 341.022 516.549V516.997H340.112V516.549C340.112 514.52 341.767 512.863 343.796 512.863C345.825 512.863 347.481 514.52 347.481 516.549V516.997H347.51Z" fill="white"/>
<path d="M685.84 356.799C766.386 356.799 831.681 291.477 831.681 210.899C831.681 130.321 766.386 65 685.84 65C605.295 65 540 130.321 540 210.899C540 291.477 605.295 356.799 685.84 356.799Z" stroke="#616B79" stroke-width="8.7306" stroke-miterlimit="10" stroke-dasharray="13.1 13.1"/>
<path d="M617.031 385H526.508C523.456 385 521 382.52 521 379.489V303.511C521 300.457 523.479 298 526.508 298H617.031C620.083 298 622.539 300.48 622.539 303.511V379.489C622.562 382.52 620.083 385 617.031 385Z" fill="#81878F"/>
<path d="M602.525 350.536H541.313C539.316 350.536 537.663 348.905 537.663 346.885C537.663 344.887 539.293 343.234 541.313 343.234H602.525C604.522 343.234 606.175 344.864 606.175 346.885C606.175 348.882 604.522 350.536 602.525 350.536Z" fill="white"/>
<path d="M602.525 362.268H541.313C539.316 362.268 537.663 360.638 537.663 358.618C537.663 356.62 539.293 354.967 541.313 354.967H602.525C604.522 354.967 606.175 356.597 606.175 358.618C606.175 360.615 604.522 362.268 602.525 362.268Z" fill="white"/>
<path d="M552.742 358.939C552.742 359.651 552.169 360.225 551.457 360.225C550.746 360.225 550.172 359.651 550.172 358.939C550.172 358.228 550.746 357.654 551.457 357.654C552.169 357.654 552.742 358.228 552.742 358.939Z" fill="#C8CBCF"/>
<path d="M557.127 358.939C557.127 359.651 556.553 360.225 555.842 360.225C555.13 360.225 554.557 359.651 554.557 358.939C554.557 358.228 555.13 357.654 555.842 357.654C556.553 357.654 557.127 358.228 557.127 358.939Z" fill="#C8CBCF"/>
<path d="M561.534 358.939C561.534 359.651 560.96 360.225 560.249 360.225C559.537 360.225 558.963 359.651 558.963 358.939C558.963 358.228 559.537 357.654 560.249 357.654C560.96 357.654 561.534 358.228 561.534 358.939Z" fill="#C8CBCF"/>
<path d="M565.917 358.939C565.917 359.651 565.343 360.225 564.632 360.225C563.92 360.225 563.347 359.651 563.347 358.939C563.347 358.228 563.92 357.654 564.632 357.654C565.343 357.654 565.917 358.228 565.917 358.939Z" fill="#C8CBCF"/>
<path d="M570.324 358.939C570.324 359.651 569.75 360.225 569.039 360.225C568.327 360.225 567.753 359.651 567.753 358.939C567.753 358.228 568.327 357.654 569.039 357.654C569.75 357.654 570.324 358.228 570.324 358.939Z" fill="#C8CBCF"/>
<path d="M574.707 358.939C574.707 359.651 574.133 360.225 573.422 360.225C572.71 360.225 572.136 359.651 572.136 358.939C572.136 358.228 572.71 357.654 573.422 357.654C574.133 357.654 574.707 358.228 574.707 358.939Z" fill="#C8CBCF"/>
<path d="M579.114 358.939C579.114 359.651 578.54 360.225 577.829 360.225C577.117 360.225 576.543 359.651 576.543 358.939C576.543 358.228 577.117 357.654 577.829 357.654C578.54 357.654 579.114 358.228 579.114 358.939Z" fill="#C8CBCF"/>
<path d="M583.52 358.939C583.52 359.651 582.947 360.225 582.235 360.225C581.524 360.225 580.95 359.651 580.95 358.939C580.95 358.228 581.524 357.654 582.235 357.654C582.947 357.654 583.52 358.228 583.52 358.939Z" fill="#C8CBCF"/>
<path d="M587.905 358.939C587.905 359.651 587.331 360.225 586.62 360.225C585.908 360.225 585.334 359.651 585.334 358.939C585.334 358.228 585.908 357.654 586.62 357.654C587.331 357.654 587.905 358.228 587.905 358.939Z" fill="#C8CBCF"/>
<path d="M571.93 333.039C579.7 333.039 586 326.738 586 318.964C586 311.191 579.7 304.889 571.93 304.889C564.16 304.889 557.86 311.191 557.86 318.964C557.86 326.738 564.16 333.039 571.93 333.039Z" fill="white"/>
<path d="M571.954 318.39C573.331 318.39 574.593 317.724 575.397 316.691C575.994 315.956 576.338 314.992 576.338 313.935C576.338 311.502 574.364 309.504 571.931 309.504C569.475 309.504 567.501 311.524 567.501 313.935C567.501 314.992 567.846 315.956 568.442 316.691C569.269 317.724 570.554 318.39 571.954 318.39Z" fill="#5F6773"/>
<path d="M579.756 326.311C579.756 329.112 564.103 329.112 564.103 326.311V323.051C564.723 318.596 578.471 318.389 579.756 323.051V326.311Z" fill="#5F6773"/>
<path d="M544.342 357.952V357.746C544.342 356.965 543.699 356.322 542.919 356.322C542.139 356.322 541.496 356.965 541.496 357.746V357.952H541.289V360.547C541.289 360.983 544.595 360.983 544.595 360.547V357.952H544.342ZM541.978 357.746C541.978 357.24 542.276 356.804 542.896 356.804C543.516 356.804 543.837 357.217 543.837 357.746V357.952H541.978V357.746ZM543.149 359.238V359.996C543.149 360.134 543.034 360.225 542.896 360.225C542.758 360.225 542.667 360.134 542.667 359.996V359.238C542.529 359.169 542.437 359.031 542.437 358.848C542.437 358.595 542.644 358.389 542.896 358.389C543.149 358.389 543.355 358.595 543.355 358.848C543.355 359.031 543.263 359.169 543.149 359.238Z" fill="#81878F"/>
<path d="M542.918 346.608C543.216 346.608 543.469 346.471 543.652 346.241C543.79 346.08 543.859 345.874 543.859 345.667C543.859 345.162 543.446 344.726 542.941 344.726C542.413 344.726 542 345.139 542 345.667C542 345.897 542.069 346.08 542.206 346.241C542.344 346.471 542.619 346.608 542.918 346.608Z" fill="#81878F"/>
<path d="M544.548 348.285C544.548 348.882 541.22 348.882 541.22 348.285L541.243 347.596C541.381 346.654 544.273 346.608 544.548 347.596V348.285Z" fill="#81878F"/>
<path d="M564.355 347.94H550.929C550.332 347.94 549.85 347.458 549.85 346.861C549.85 346.264 550.332 345.782 550.929 345.782H564.355C564.952 345.782 565.434 346.264 565.434 346.861C565.411 347.458 564.952 347.94 564.355 347.94Z" fill="#C8CBCF"/>
<path d="M582.051 347.94H568.624C568.028 347.94 567.546 347.458 567.546 346.861C567.546 346.264 568.028 345.782 568.624 345.782H582.051C582.648 345.782 583.13 346.264 583.13 346.861C583.107 347.458 582.625 347.94 582.051 347.94Z" fill="#C8CBCF"/>
<path d="M576.407 373.634H564.242C562.521 373.634 561.121 372.234 561.121 370.512C561.121 368.79 562.521 367.389 564.242 367.389H576.407C578.128 367.389 579.528 368.79 579.528 370.512C579.528 372.234 578.128 373.634 576.407 373.634Z" fill="#0A1F41"/>
<path d="M456.314 444.065C456.373 443.675 456.412 443.277 456.412 442.868C456.412 437.969 452.335 434 447.303 434C443.529 434 440.291 436.231 438.916 439.422C437.794 438.444 436.312 437.845 434.693 437.845C431.182 437.845 428.334 440.618 428.334 444.036H427.144C423.76 444.036 421 446.723 421 450.018C421 453.303 423.76 456 427.144 456H455.856C459.23 456 462 453.313 462 450.018C462 446.875 459.484 444.293 456.314 444.065Z" fill="#B8BCC1"/>
<path d="M715.687 220.943H670.707C669.771 220.943 669 220.172 669 219.236V193.707C669 192.771 669.771 192 670.707 192H715.687C716.622 192 717.393 192.771 717.393 193.707V219.236C717.393 220.172 716.622 220.943 715.687 220.943Z" fill="#344156"/>
<path d="M717.393 197.453H669V202.437H717.393V197.453Z" fill="#5896FA"/>
<path d="M680.066 215.38H672.936C672.496 215.38 672.111 215.738 672.111 216.206C672.111 216.647 672.468 217.032 672.936 217.032H680.066C680.506 217.032 680.892 216.674 680.892 216.206C680.892 215.738 680.534 215.38 680.066 215.38Z" fill="#D1F5FF"/>
<path d="M691.022 215.38H683.892C683.452 215.38 683.067 215.738 683.067 216.206C683.067 216.647 683.424 217.032 683.892 217.032H691.022C691.462 217.032 691.848 216.674 691.848 216.206C691.848 215.738 691.462 215.38 691.022 215.38Z" fill="#D1F5FF"/>
<path d="M701.978 215.38H694.848C694.408 215.38 694.022 215.738 694.022 216.206C694.022 216.647 694.38 217.032 694.848 217.032H701.978C702.418 217.032 702.804 216.674 702.804 216.206C702.776 215.738 702.418 215.38 701.978 215.38Z" fill="#D1F5FF"/>
<path d="M712.906 215.38H705.777C705.336 215.38 704.951 215.738 704.951 216.206C704.951 216.647 705.309 217.032 705.777 217.032H712.906C713.347 217.032 713.732 216.674 713.732 216.206C713.732 215.738 713.374 215.38 712.906 215.38Z" fill="#D1F5FF"/>
<path d="M672.634 193.459C672.138 193.459 671.725 193.873 671.725 194.368V194.699C671.725 195.194 672.138 195.607 672.634 195.607C673.129 195.607 673.542 195.194 673.542 194.699V194.368C673.542 193.845 673.129 193.459 672.634 193.459Z" fill="#D1F5FF"/>
<path d="M674.588 194.506C674.588 195.084 675.056 195.58 675.662 195.58H679.433C680.011 195.58 680.507 195.112 680.507 194.506C680.507 193.928 680.039 193.432 679.433 193.432H675.662C675.056 193.46 674.588 193.928 674.588 194.506Z" fill="#D1F5FF"/>
<path d="M674.093 205.136H678.965C679.736 205.136 680.369 205.769 680.369 206.54V210.726C680.369 211.497 679.736 212.131 678.965 212.131H674.093C673.322 212.131 672.689 211.497 672.689 210.726V206.54C672.661 205.769 673.294 205.136 674.093 205.136Z" fill="#5896FA"/>
<path d="M260.289 328C255.819 332.78 248.689 336.707 241.074 338.384C241.074 338.898 241.059 341.722 241 354.724C240.927 372.079 257.437 380.565 259.995 381.874C262.479 380.727 279.21 372.255 279.283 354.9C279.342 341.884 279.357 339.06 279.357 338.56C271.741 336.81 264.714 332.824 260.289 328Z" fill="white"/>
<path d="M260.246 331.133C255.865 335.148 249.808 338.295 243.149 340.016L243.09 354.723C243.06 361.46 245.736 367.548 251.029 372.814C254.513 376.285 258.174 378.432 260.026 379.403C260.099 379.359 260.188 379.315 260.276 379.27V331.177C260.261 331.162 260.246 331.147 260.246 331.133Z" fill="#3D3D3D"/>
<path d="M260.275 331.177V379.3C262.201 378.3 265.715 376.211 269.082 372.931C274.433 367.696 277.153 361.636 277.182 354.9L277.241 340.192C270.625 338.398 264.612 335.207 260.275 331.177Z" fill="#979799"/>
<path d="M252.528 352.37V363.769C252.528 365.034 268.009 365.034 268.009 363.769V352.37H252.528ZM261.055 358.415V361.651C261.055 362.077 260.702 362.445 260.276 362.445C259.835 362.445 259.482 362.092 259.482 361.651V358.415C258.82 358.121 258.35 357.444 258.35 356.68C258.35 355.621 259.203 354.768 260.261 354.768C261.32 354.768 262.172 355.621 262.172 356.68C262.187 357.444 261.731 358.121 261.055 358.415Z" fill="white"/>
<path d="M266.671 351.561H265.098V350.797C265.098 348.135 262.937 345.973 260.276 345.973C257.615 345.973 255.454 348.135 255.454 350.797V351.561H253.881V350.797C253.881 347.267 256.747 344.414 260.261 344.414C263.789 344.414 266.642 347.282 266.642 350.797V351.561H266.671Z" fill="white"/>
<path d="M446.198 241H403V294.934H446.198V241Z" fill="#324055"/>
<path d="M451.782 246.564H408.584V300.498H451.782V246.564Z" fill="white" stroke="#666666" stroke-width="3.34" stroke-miterlimit="10"/>
<path d="M458.91 252.037H415.712V305.971H458.91V252.037Z" fill="white" stroke="#666666" stroke-width="3.34" stroke-miterlimit="10"/>
<path d="M464.086 257.601H420.887V311.535H464.086V257.601Z" fill="#666666"/>
<path d="M457.344 266.457H435.007V269.954H457.344V266.457Z" fill="white"/>
<path d="M457.343 274.7H428.401V278.198H457.343V274.7Z" fill="white"/>
<path d="M457.343 282.944H428.401V286.441H457.343V282.944Z" fill="white"/>
<path d="M457.343 291.188H428.401V294.685H457.343V291.188Z" fill="white"/>
<path d="M457.343 299.431H428.401V302.928H457.343V299.431Z" fill="white"/>
<path d="M128.579 364.163C132.213 364.163 135.158 361.217 135.158 357.582C135.158 353.947 132.213 351 128.579 351C124.946 351 122 353.947 122 357.582C122 361.217 124.946 364.163 128.579 364.163Z" fill="#1C4584"/>
<path d="M605.579 260.163C609.213 260.163 612.158 257.217 612.158 253.582C612.158 249.947 609.213 247 605.579 247C601.946 247 599 249.947 599 253.582C599 257.217 601.946 260.163 605.579 260.163Z" fill="#1C4584"/>
<path d="M343.441 433.885C345.341 433.885 346.882 432.343 346.882 430.442C346.882 428.541 345.341 427 343.441 427C341.541 427 340 428.541 340 430.442C340 432.343 341.541 433.885 343.441 433.885Z" fill="#3D3D3D"/>
<path d="M200.24 515.458C199.607 515.458 199.111 514.935 199.111 514.329V502.129C199.111 501.496 199.634 501 200.24 501C200.873 501 201.368 501.523 201.368 502.129V514.301C201.368 514.935 200.873 515.458 200.24 515.458Z" fill="#0E83D9"/>
<path d="M193 508.215C193 507.582 193.523 507.086 194.129 507.086H206.323C206.956 507.086 207.452 507.609 207.452 508.215C207.452 508.849 206.929 509.344 206.323 509.344H194.129C193.523 509.344 193 508.849 193 508.215Z" fill="#0E83D9"/>
<path d="M426.24 369.458C425.607 369.458 425.111 368.935 425.111 368.329V356.129C425.111 355.496 425.634 355 426.24 355C426.873 355 427.368 355.523 427.368 356.129V368.301C427.368 368.935 426.873 369.458 426.24 369.458Z" fill="#0E83D9"/>
<path d="M419 362.215C419 361.582 419.523 361.086 420.129 361.086H432.323C432.956 361.086 433.452 361.609 433.452 362.215C433.452 362.848 432.929 363.344 432.323 363.344H420.129C419.523 363.344 419 362.848 419 362.215Z" fill="#0E83D9"/>
<path d="M356.634 180.27C358.64 180.27 360.267 178.643 360.267 176.635C360.267 174.627 358.64 173 356.634 173C354.627 173 353 174.627 353 176.635C353 178.643 354.627 180.27 356.634 180.27Z" stroke="#3D3D3D" stroke-width="4.2257" stroke-miterlimit="10"/>
<path d="M7.2397 308.458C6.60657 308.458 6.11108 307.935 6.11108 307.329V295.129C6.11108 294.496 6.6341 294 7.2397 294C7.87283 294 8.36832 294.523 8.36832 295.129V307.329C8.36832 307.962 7.87283 308.458 7.2397 308.458Z" fill="#3D3D3D"/>
<path d="M0 301.243C0 300.609 0.523015 300.114 1.12862 300.114H13.3233C13.9564 300.114 14.4519 300.637 14.4519 301.243C14.4519 301.876 13.9289 302.372 13.3233 302.372H1.12862C0.523015 302.372 0 301.876 0 301.243Z" fill="#3D3D3D"/>
<path d="M608.642 452.715C611.914 451.136 613.288 447.202 611.709 443.928C610.131 440.654 606.198 439.28 602.926 440.859C599.653 442.438 598.28 446.372 599.858 449.646C601.436 452.92 605.369 454.295 608.642 452.715Z" fill="#979799"/>
<path d="M601.486 172.924C601.92 171.073 600.772 169.221 598.922 168.787C597.072 168.352 595.22 169.5 594.786 171.351C594.352 173.202 595.5 175.054 597.35 175.489C599.2 175.923 601.052 174.775 601.486 172.924Z" fill="#979799"/>
<path d="M135.24 709.43C134.607 709.43 134.111 708.907 134.111 708.301V696.129C134.111 695.496 134.634 695 135.24 695C135.873 695 136.368 695.523 136.368 696.129V708.329C136.368 708.935 135.845 709.43 135.24 709.43Z" fill="#1C4584"/>
<path d="M128 702.215C128 701.582 128.523 701.086 129.129 701.086H141.323C141.956 701.086 142.452 701.609 142.452 702.215C142.452 702.849 141.929 703.344 141.323 703.344H129.129C128.495 703.344 128 702.849 128 702.215Z" fill="#1C4584"/>
<path d="M489.24 196.43C488.607 196.43 488.111 195.907 488.111 195.301V183.129C488.111 182.496 488.634 182 489.24 182C489.873 182 490.368 182.523 490.368 183.129V195.329C490.368 195.935 489.845 196.43 489.24 196.43Z" fill="#1C4584"/>
<path d="M482 189.215C482 188.582 482.523 188.086 483.129 188.086H495.323C495.956 188.086 496.452 188.609 496.452 189.215C496.452 189.848 495.929 190.344 495.323 190.344H483.129C482.495 190.344 482 189.848 482 189.215Z" fill="#1C4584"/>
<path d="M327.083 266.717C327.699 263.134 325.294 259.731 321.713 259.115C318.132 258.499 314.73 260.905 314.114 264.487C313.499 268.07 315.903 271.473 319.484 272.089C323.066 272.705 326.468 270.3 327.083 266.717Z" fill="#1C4584"/>
<path d="M184.083 160.717C184.699 157.134 182.294 153.731 178.713 153.115C175.132 152.499 171.73 154.905 171.114 158.487C170.499 162.07 172.903 165.473 176.484 166.089C180.066 166.705 183.468 164.3 184.083 160.717Z" fill="#1C4584"/>
</svg>
