<svg width="28" height="28" viewBox="0 0 28 28" fill="none" xmlns="http://www.w3.org/2000/svg">
<mask id="mask0_16_39" style="mask-type:luminance" maskUnits="userSpaceOnUse" x="4" y="1" width="20" height="26">
<path d="M22.1666 22.1667V3.5C22.1666 3.19058 22.0437 2.89383 21.8249 2.67504C21.6061 2.45625 21.3094 2.33333 21 2.33333H6.99998C6.69056 2.33333 6.39381 2.45625 6.17502 2.67504C5.95623 2.89383 5.83331 3.19058 5.83331 3.5V22.1667" stroke="white" stroke-width="2" stroke-linecap="round" stroke-linejoin="round"/>
<path d="M18.6666 18.6667H9.33331C7.40032 18.6667 5.83331 20.2337 5.83331 22.1667C5.83331 24.0997 7.40032 25.6667 9.33331 25.6667H18.6666C20.5996 25.6667 22.1666 24.0997 22.1666 22.1667C22.1666 20.2337 20.5996 18.6667 18.6666 18.6667Z" fill="white" stroke="white" stroke-width="2" stroke-linecap="round" stroke-linejoin="round"/>
<path d="M11.6666 9.33333L14 7L16.3333 9.33333L18.6666 7L16.9166 13.4167H11.0833L9.33331 7L11.6666 9.33333Z" fill="white" stroke="white" stroke-width="2" stroke-linejoin="round"/>
<path d="M18.6667 23.3333C19.311 23.3333 19.8333 22.811 19.8333 22.1667C19.8333 21.5223 19.311 21 18.6667 21C18.0223 21 17.5 21.5223 17.5 22.1667C17.5 22.811 18.0223 23.3333 18.6667 23.3333Z" fill="black"/>
</mask>
<g mask="url(#mask0_16_39)">
<path d="M0 0H28V28H0V0Z" fill="#3D3D3D"/>
</g>
</svg>
