<svg width="1440" height="484" viewBox="0 0 1440 484" fill="none" xmlns="http://www.w3.org/2000/svg">
<path d="M1227.51 482.468C1227.51 482.468 1571 522.5 1457.96 423.448C1530.14 319.377 1381.84 240.451 1268.1 255.158C1020.23 287.209 1023.32 -185.999 687.39 83.1418C598.523 154.346 478.72 26.644 333.697 184.264C299.788 221.088 92.6621 149.923 -10.4179 179.064C-212.175 236.105 -119.909 483.438 24.2254 484.408C168.398 485.379 1227.51 482.468 1227.51 482.468Z" fill="white"/>
<path d="M1422.24 89.943V73H1437.99V195.837" stroke="#808080" stroke-miterlimit="10"/>
<path d="M1422.24 349.085V94.6131" stroke="#808080" stroke-miterlimit="10"/>
<path d="M1437.99 200.507V483H1422.24V355.384" stroke="#808080" stroke-miterlimit="10"/>
<path d="M1339.7 80.494V73H1355.45V79.0821" stroke="#808080" stroke-miterlimit="10"/>
<path d="M1339.7 212.563V207.567" stroke="#808080" stroke-miterlimit="10"/>
<path d="M1355.45 468.338V483H1339.7V413.924" stroke="#808080" stroke-miterlimit="10"/>
<path d="M1355.45 413.707V462.907" stroke="#808080" stroke-miterlimit="10"/>
<path d="M1179.07 454.11V413.924" stroke="#808080" stroke-miterlimit="10"/>
<path d="M1194.93 413.707V483H1179.07V460.844" stroke="#808080" stroke-miterlimit="10"/>
<path d="M1355.45 206.264V212.346" stroke="#808080" stroke-miterlimit="10"/>
<path d="M1293.33 207.024H1422.24V189.646H1129" stroke="#808080" stroke-miterlimit="10"/>
<path d="M1191.67 207.024H1289.2" stroke="#808080" stroke-miterlimit="10"/>
<path d="M1178.2 207.024H1187.43" stroke="#808080" stroke-miterlimit="10"/>
<path d="M1129 207.024H1173.2" stroke="#808080" stroke-miterlimit="10"/>
<path d="M1412.8 371.458H1380.1V396.764H1412.8V371.458Z" stroke="#808080" stroke-miterlimit="10"/>
<path d="M1333.19 371.458H1300.49V396.764H1333.19V371.458Z" stroke="#808080" stroke-miterlimit="10"/>
<path d="M1253.57 371.458H1159.08V396.764H1253.57V371.458Z" stroke="#808080" stroke-miterlimit="10"/>
<path d="M1253.57 371.458H1225.99V396.764H1253.57V371.458Z" stroke="#808080" stroke-miterlimit="10"/>
<path d="M1415.51 366.353H1144.21V371.458H1415.51V366.353Z" stroke="#808080" stroke-miterlimit="10"/>
<path d="M1415.51 366.353H1214.48V371.458H1415.51V366.353Z" stroke="#808080" stroke-miterlimit="10"/>
<path d="M1244.23 362.661H1147.79V366.571H1244.23V362.661Z" stroke="#808080" stroke-miterlimit="10"/>
<path d="M1285.07 362.661H1265.3V366.245H1285.07V362.661Z" stroke="#808080" stroke-miterlimit="10"/>
<path d="M1325.91 362.661H1306.14V366.245H1325.91V362.661Z" stroke="#808080" stroke-miterlimit="10"/>
<path d="M1366.75 362.661H1346.98V366.245H1366.75V362.661Z" stroke="#808080" stroke-miterlimit="10"/>
<path d="M1407.58 362.661H1387.82V366.245H1407.58V362.661Z" stroke="#808080" stroke-miterlimit="10"/>
<path d="M1253.57 396.764H1300.49" stroke="#808080" stroke-miterlimit="10"/>
<path d="M1333.19 396.764H1380.1" stroke="#808080" stroke-miterlimit="10"/>
<path d="M1225.66 366.353V362.769" stroke="#808080" stroke-miterlimit="10"/>
<path d="M1244.23 362.661H1265.3" stroke="#808080" stroke-miterlimit="10"/>
<path d="M1285.07 362.661H1306.14" stroke="#808080" stroke-miterlimit="10"/>
<path d="M1325.91 362.661H1346.98" stroke="#808080" stroke-miterlimit="10"/>
<path d="M1366.75 362.661H1387.82" stroke="#808080" stroke-miterlimit="10"/>
<path d="M1149.74 414.033H1422.24V396.656H1129" stroke="#808080" stroke-miterlimit="10"/>
<path d="M1129 414.033H1144.75" stroke="#808080" stroke-miterlimit="10"/>
<path d="M1408.34 212.454H1318.2V287.394H1408.34V212.454Z" stroke="#808080" stroke-miterlimit="10"/>
<path d="M1408.34 212.454H1335.79V287.395H1408.34V212.454Z" stroke="#808080" stroke-miterlimit="10"/>
<path d="M1380.54 218.428H1365.33C1363.92 218.428 1362.73 217.233 1362.73 215.821C1362.73 214.409 1363.92 213.214 1365.33 213.214H1380.54C1381.95 213.214 1383.15 214.409 1383.15 215.821C1383.25 217.233 1382.06 218.428 1380.54 218.428Z" stroke="#808080" stroke-miterlimit="10"/>
<path d="M1408.34 287.395H1318.2V362.335H1408.34V287.395Z" stroke="#808080" stroke-miterlimit="10"/>
<path d="M1408.34 287.395H1335.79V362.335H1408.34V287.395Z" stroke="#808080" stroke-miterlimit="10"/>
<path d="M1380.54 293.368H1365.33C1363.92 293.368 1362.73 292.173 1362.73 290.761C1362.73 289.35 1363.92 288.155 1365.33 288.155H1380.54C1381.95 288.155 1383.15 289.35 1383.15 290.761C1383.25 292.173 1382.06 293.368 1380.54 293.368Z" stroke="#808080" stroke-miterlimit="10"/>
<path d="M1303.86 287.395H1213.72V362.335H1303.86V287.395Z" stroke="#808080" stroke-miterlimit="10"/>
<path d="M1303.97 287.395H1231.42V362.335H1303.97V287.395Z" stroke="#808080" stroke-miterlimit="10"/>
<path d="M1276.17 293.368H1260.96C1259.55 293.368 1258.35 292.173 1258.35 290.761C1258.35 289.35 1259.55 288.155 1260.96 288.155H1276.17C1277.58 288.155 1278.77 289.35 1278.77 290.761C1278.77 292.173 1277.58 293.368 1276.17 293.368Z" stroke="#808080" stroke-miterlimit="10"/>
<path d="M1412.8 164.123H1380.1V189.429H1412.8V164.123Z" stroke="#808080" stroke-miterlimit="10"/>
<path d="M1333.19 164.123H1300.49V189.429H1333.19V164.123Z" stroke="#808080" stroke-miterlimit="10"/>
<path d="M1253.57 164.123H1159.08V189.429H1253.57V164.123Z" stroke="#808080" stroke-miterlimit="10"/>
<path d="M1253.57 164.123H1225.99V189.429H1253.57V164.123Z" stroke="#808080" stroke-miterlimit="10"/>
<path d="M1415.51 159.018H1144.21V164.123H1415.51V159.018Z" stroke="#808080" stroke-miterlimit="10"/>
<path d="M1415.51 159.018H1214.48V164.123H1415.51V159.018Z" stroke="#808080" stroke-miterlimit="10"/>
<path d="M1174.07 155.326H1147.79V159.127H1244.23V155.326H1178.42" stroke="#808080" stroke-miterlimit="10"/>
<path d="M1285.07 155.326H1265.3V158.91H1285.07V155.326Z" stroke="#808080" stroke-miterlimit="10"/>
<path d="M1325.91 155.326H1306.14V158.91H1325.91V155.326Z" stroke="#808080" stroke-miterlimit="10"/>
<path d="M1366.75 155.326H1346.98V158.91H1366.75V155.326Z" stroke="#808080" stroke-miterlimit="10"/>
<path d="M1407.58 155.326H1387.82V158.91H1407.58V155.326Z" stroke="#808080" stroke-miterlimit="10"/>
<path d="M1253.57 189.429H1300.49" stroke="#808080" stroke-miterlimit="10"/>
<path d="M1333.19 189.429H1380.1" stroke="#808080" stroke-miterlimit="10"/>
<path d="M1225.66 159.019V155.434" stroke="#808080" stroke-miterlimit="10"/>
<path d="M1244.23 155.326H1265.3" stroke="#808080" stroke-miterlimit="10"/>
<path d="M1285.07 155.326H1306.14" stroke="#808080" stroke-miterlimit="10"/>
<path d="M1325.91 155.326H1346.98" stroke="#808080" stroke-miterlimit="10"/>
<path d="M1366.75 155.326H1387.82" stroke="#808080" stroke-miterlimit="10"/>
<path d="M1408.34 80.0596H1318.2V155H1408.34V80.0596Z" stroke="#808080" stroke-miterlimit="10"/>
<path d="M1335.79 129.803V80.0596H1408.34V155H1335.79V136.102" stroke="#808080" stroke-miterlimit="10"/>
<path d="M1380.54 86.033H1365.33C1363.92 86.033 1362.73 84.8383 1362.73 83.4264C1362.73 82.0144 1363.92 80.8197 1365.33 80.8197H1380.54C1381.95 80.8197 1383.15 82.0144 1383.15 83.4264C1383.25 84.8383 1382.06 86.033 1380.54 86.033Z" stroke="#808080" stroke-miterlimit="10"/>
<path d="M1303.97 112.86V155H1213.72V80.0596H1303.97V108.189" stroke="#808080" stroke-miterlimit="10"/>
<path d="M1303.97 112.86V155H1231.42V80.0596H1303.97V105.04" stroke="#808080" stroke-miterlimit="10"/>
<path d="M1276.17 86.033H1260.96C1259.55 86.033 1258.35 84.8383 1258.35 83.4264C1258.35 82.0144 1259.55 80.8197 1260.96 80.8197H1276.17C1277.58 80.8197 1278.77 82.0144 1278.77 83.4264C1278.77 84.8383 1277.58 86.033 1276.17 86.033Z" stroke="#808080" stroke-miterlimit="10"/>
<path d="M1392.92 414.142L1422.46 434.343" stroke="#808080" stroke-miterlimit="10"/>
<path d="M1422.35 449.548L1370.76 414.25" stroke="#808080" stroke-miterlimit="10"/>
<path d="M1310.05 414.142L1339.48 434.343" stroke="#808080" stroke-miterlimit="10"/>
<path d="M1339.48 449.548L1287.9 414.25" stroke="#808080" stroke-miterlimit="10"/>
<path d="M15.7482 94.943V78H-2.5034e-06V200.837" stroke="#808080" stroke-miterlimit="10"/>
<path d="M15.7482 354.085V99.6131" stroke="#808080" stroke-miterlimit="10"/>
<path d="M-2.5034e-06 205.507V488H15.7482V360.384" stroke="#808080" stroke-miterlimit="10"/>
<path d="M98.2903 85.494V78H82.5422V84.0821" stroke="#808080" stroke-miterlimit="10"/>
<path d="M98.2903 217.563V212.566" stroke="#808080" stroke-miterlimit="10"/>
<path d="M82.5422 473.338V488H98.2903V418.924" stroke="#808080" stroke-miterlimit="10"/>
<path d="M82.5421 418.707V467.907" stroke="#808080" stroke-miterlimit="10"/>
<path d="M258.922 459.11V418.924" stroke="#808080" stroke-miterlimit="10"/>
<path d="M243.065 418.707V488H258.922V465.843" stroke="#808080" stroke-miterlimit="10"/>
<path d="M82.5421 211.264V217.346" stroke="#808080" stroke-miterlimit="10"/>
<path d="M144.666 212.024H15.7482V194.646H308.99" stroke="#808080" stroke-miterlimit="10"/>
<path d="M246.323 212.024H148.793" stroke="#808080" stroke-miterlimit="10"/>
<path d="M259.791 212.024H250.559" stroke="#808080" stroke-miterlimit="10"/>
<path d="M308.99 212.024H264.787" stroke="#808080" stroke-miterlimit="10"/>
<path d="M25.197 376.458H57.8881V401.764H25.197V376.458Z" stroke="#808080" stroke-miterlimit="10"/>
<path d="M104.807 376.458H137.498V401.764H104.807V376.458Z" stroke="#808080" stroke-miterlimit="10"/>
<path d="M184.416 376.458H278.906V401.764H184.416V376.458Z" stroke="#808080" stroke-miterlimit="10"/>
<path d="M184.417 376.458H212.003V401.764H184.417V376.458Z" stroke="#808080" stroke-miterlimit="10"/>
<path d="M22.4819 371.353H293.785V376.458H22.4819V371.353Z" stroke="#808080" stroke-miterlimit="10"/>
<path d="M22.4818 371.353H223.515V376.458H22.4818V371.353Z" stroke="#808080" stroke-miterlimit="10"/>
<path d="M193.757 367.661H290.201V371.571H193.757V367.661Z" stroke="#808080" stroke-miterlimit="10"/>
<path d="M152.92 367.661H172.687V371.245H152.92V367.661Z" stroke="#808080" stroke-miterlimit="10"/>
<path d="M112.084 367.661H131.85V371.245H112.084V367.661Z" stroke="#808080" stroke-miterlimit="10"/>
<path d="M71.2469 367.661H91.0135V371.245H71.2469V367.661Z" stroke="#808080" stroke-miterlimit="10"/>
<path d="M30.4103 367.661H50.1769V371.245H30.4103V367.661Z" stroke="#808080" stroke-miterlimit="10"/>
<path d="M184.417 401.764H137.498" stroke="#808080" stroke-miterlimit="10"/>
<path d="M104.807 401.764H57.8881" stroke="#808080" stroke-miterlimit="10"/>
<path d="M212.329 371.353V367.769" stroke="#808080" stroke-miterlimit="10"/>
<path d="M193.757 367.661H172.687" stroke="#808080" stroke-miterlimit="10"/>
<path d="M152.92 367.661H131.85" stroke="#808080" stroke-miterlimit="10"/>
<path d="M112.084 367.661H91.0136" stroke="#808080" stroke-miterlimit="10"/>
<path d="M71.2468 367.661H50.1768" stroke="#808080" stroke-miterlimit="10"/>
<path d="M288.246 419.033H15.7482V401.655H308.99" stroke="#808080" stroke-miterlimit="10"/>
<path d="M308.99 419.033H293.242" stroke="#808080" stroke-miterlimit="10"/>
<path d="M29.65 217.454H119.795V292.395H29.65V217.454Z" stroke="#808080" stroke-miterlimit="10"/>
<path d="M29.6499 217.454H102.2V292.395H29.6499V217.454Z" stroke="#808080" stroke-miterlimit="10"/>
<path d="M57.4536 223.428H72.6588C74.0707 223.428 75.2654 222.233 75.2654 220.821C75.2654 219.409 74.0707 218.214 72.6588 218.214H57.4536C56.0417 218.214 54.8471 219.409 54.8471 220.821C54.7384 222.233 55.9331 223.428 57.4536 223.428Z" stroke="#808080" stroke-miterlimit="10"/>
<path d="M29.65 292.395H119.795V367.335H29.65V292.395Z" stroke="#808080" stroke-miterlimit="10"/>
<path d="M29.6499 292.395H102.2V367.335H29.6499V292.395Z" stroke="#808080" stroke-miterlimit="10"/>
<path d="M57.4536 298.368H72.6588C74.0707 298.368 75.2654 297.173 75.2654 295.762C75.2654 294.35 74.0707 293.155 72.6588 293.155H57.4536C56.0417 293.155 54.8471 294.35 54.8471 295.762C54.7384 297.173 55.9331 298.368 57.4536 298.368Z" stroke="#808080" stroke-miterlimit="10"/>
<path d="M134.131 292.395H224.276V367.335H134.131V292.395Z" stroke="#808080" stroke-miterlimit="10"/>
<path d="M134.022 292.395H206.573V367.335H134.022V292.395Z" stroke="#808080" stroke-miterlimit="10"/>
<path d="M161.826 298.368H177.031C178.443 298.368 179.638 297.173 179.638 295.762C179.638 294.35 178.443 293.155 177.031 293.155H161.826C160.414 293.155 159.22 294.35 159.22 295.762C159.22 297.173 160.414 298.368 161.826 298.368Z" stroke="#808080" stroke-miterlimit="10"/>
<path d="M25.197 169.123H57.8881V194.429H25.197V169.123Z" stroke="#808080" stroke-miterlimit="10"/>
<path d="M104.807 169.123H137.498V194.429H104.807V169.123Z" stroke="#808080" stroke-miterlimit="10"/>
<path d="M184.416 169.123H278.906V194.429H184.416V169.123Z" stroke="#808080" stroke-miterlimit="10"/>
<path d="M184.417 169.123H212.003V194.429H184.417V169.123Z" stroke="#808080" stroke-miterlimit="10"/>
<path d="M22.4819 164.019H293.785V169.123H22.4819V164.019Z" stroke="#808080" stroke-miterlimit="10"/>
<path d="M22.4818 164.019H223.515V169.123H22.4818V164.019Z" stroke="#808080" stroke-miterlimit="10"/>
<path d="M263.918 160.326H290.201V164.127H193.757V160.326H259.573" stroke="#808080" stroke-miterlimit="10"/>
<path d="M152.92 160.326H172.687V163.91H152.92V160.326Z" stroke="#808080" stroke-miterlimit="10"/>
<path d="M112.084 160.326H131.85V163.91H112.084V160.326Z" stroke="#808080" stroke-miterlimit="10"/>
<path d="M71.2469 160.326H91.0135V163.91H71.2469V160.326Z" stroke="#808080" stroke-miterlimit="10"/>
<path d="M30.4103 160.326H50.1769V163.91H30.4103V160.326Z" stroke="#808080" stroke-miterlimit="10"/>
<path d="M184.417 194.429H137.498" stroke="#808080" stroke-miterlimit="10"/>
<path d="M104.807 194.429H57.8881" stroke="#808080" stroke-miterlimit="10"/>
<path d="M212.329 164.019V160.435" stroke="#808080" stroke-miterlimit="10"/>
<path d="M193.757 160.326H172.687" stroke="#808080" stroke-miterlimit="10"/>
<path d="M152.92 160.326H131.85" stroke="#808080" stroke-miterlimit="10"/>
<path d="M112.084 160.326H91.0136" stroke="#808080" stroke-miterlimit="10"/>
<path d="M71.2468 160.326H50.1768" stroke="#808080" stroke-miterlimit="10"/>
<path d="M29.65 85.0594H119.795V160H29.65V85.0594Z" stroke="#808080" stroke-miterlimit="10"/>
<path d="M102.2 134.803V85.0596H29.6499V160H102.2V141.102" stroke="#808080" stroke-miterlimit="10"/>
<path d="M57.4536 91.0332H72.6588C74.0707 91.0332 75.2654 89.8385 75.2654 88.4266C75.2654 87.0146 74.0707 85.8199 72.6588 85.8199H57.4536C56.0417 85.8199 54.8471 87.0146 54.8471 88.4266C54.7384 89.8385 55.9331 91.0332 57.4536 91.0332Z" stroke="#808080" stroke-miterlimit="10"/>
<path d="M134.022 117.859V160H224.276V85.0594H134.022V113.189" stroke="#808080" stroke-miterlimit="10"/>
<path d="M134.022 117.86V160H206.573V85.0596H134.022V110.04" stroke="#808080" stroke-miterlimit="10"/>
<path d="M161.826 91.0332H177.031C178.443 91.0332 179.638 89.8385 179.638 88.4266C179.638 87.0146 178.443 85.8199 177.031 85.8199H161.826C160.414 85.8199 159.22 87.0146 159.22 88.4266C159.22 89.8385 160.414 91.0332 161.826 91.0332Z" stroke="#808080" stroke-miterlimit="10"/>
<path d="M45.0724 419.142L15.531 439.343" stroke="#808080" stroke-miterlimit="10"/>
<path d="M15.6396 454.548L67.2285 419.25" stroke="#808080" stroke-miterlimit="10"/>
<path d="M127.94 419.142L98.5075 439.343" stroke="#808080" stroke-miterlimit="10"/>
<path d="M98.5075 454.548L150.096 419.25" stroke="#808080" stroke-miterlimit="10"/>
<path d="M979.385 221.345H870.96V484.414H979.385V221.345Z" fill="#A6C7F9"/>
<path d="M890.2 221.345H870.874V484.414H890.2V221.345Z" fill="#699DEE"/>
<path d="M1003.36 221.345H894.936V484.414H1003.36V221.345Z" fill="#D2E4FF"/>
<path d="M999.756 221.345H979.641V484.414H999.756V221.345Z" fill="#A6C7F9"/>
<path d="M788.452 481.669C788.281 483.899 785.145 483.899 781.583 483.47C778.021 483.02 767.313 482.334 767.078 481.626C766.865 480.983 769.275 480.468 771.835 479.868C772.155 479.782 772.475 479.718 772.816 479.632C775.717 478.925 778.213 477.338 780.133 474.872C782.287 472.085 784.271 459.434 784.271 459.434L792.057 460.892C792.057 460.892 787.534 471.742 787.065 475.301C786.852 476.909 787.982 477.96 788.26 479.353C788.366 480.104 788.516 480.876 788.452 481.669Z" fill="#B77446"/>
<path d="M788.452 481.669C788.281 483.899 785.145 483.899 781.583 483.47C779.151 483.17 778.831 483.492 777.253 483.749H771.003C768.294 483.277 767.249 482.162 767.057 481.626C766.843 480.983 769.254 480.468 771.813 479.868L771.835 479.911C771.835 479.911 775.034 481.669 779.13 481.283C782.479 480.962 785.892 479.589 788.196 479.353C788.366 480.104 788.516 480.876 788.452 481.669Z" fill="#365DA4"/>
<path d="M781.498 468.525C781.498 468.525 783.546 469.876 785.444 470.241C788.324 470.777 789.646 470.176 789.646 470.176C789.646 470.176 803.469 435.291 802.679 423.498C802.658 423.219 802.658 422.919 802.637 422.597C802.615 420.56 802.914 417.816 803.405 414.685C803.597 413.527 803.81 412.327 804.045 411.083C804.599 408.167 805.282 405.036 806.028 401.842C806.37 400.426 806.711 399.011 807.052 397.596C810.529 383.638 814.774 369.893 814.774 369.893C814.774 369.893 789.838 361.703 788.409 369.357C787.876 372.295 786.063 384.045 786.873 402.035C787.534 416.508 787.108 427.786 785.871 440.887C784.825 452.401 782.948 462.286 781.498 468.525Z" fill="#365DA4"/>
<path d="M802.658 422.597C802.637 420.56 802.935 417.816 803.426 414.685C803.618 413.527 803.831 412.327 804.066 411.083C804.62 408.167 805.303 405.036 806.05 401.842C806.391 400.426 806.732 399.011 807.074 397.596C806.583 393.329 806.178 390.413 806.178 390.413C806.178 390.413 795.853 404.565 802.658 422.597Z" fill="#285493"/>
<path d="M819.915 481.669C819.744 483.899 816.608 483.899 813.046 483.47C809.484 483.02 798.776 482.334 798.541 481.626C798.328 480.983 800.738 480.468 803.298 479.868C803.618 479.782 803.938 479.718 804.279 479.632C807.18 478.925 809.1 476.759 811.596 474.872C813.963 473.092 812.3 464.451 812.3 464.451L819.616 461.836C819.616 461.836 818.507 470.541 818.507 475.322C818.507 476.93 819.424 477.981 819.701 479.375C819.829 480.104 819.979 480.876 819.915 481.669Z" fill="#B77446"/>
<path d="M819.915 481.669C819.744 483.899 816.608 483.899 813.046 483.47C810.614 483.17 810.294 483.492 808.716 483.749H802.466C799.757 483.277 798.712 482.162 798.52 481.626C798.306 480.983 800.717 480.468 803.277 479.868L803.298 479.911C803.298 479.911 806.498 481.669 810.593 481.283C813.942 480.962 817.355 479.589 819.659 479.353C819.829 480.104 819.979 480.876 819.915 481.669Z" fill="#365DA4"/>
<path d="M799.778 367.17C799.778 367.17 807.884 407.824 809.271 429.952C810.657 452.08 812.364 470.391 812.364 470.391C812.364 470.391 814.134 471.034 816.161 470.905C818.315 470.777 820 470.112 820 470.112C820 470.112 828.042 436.813 825.375 423.498C822.709 410.161 824.928 397.875 826.207 386.832C828.042 370.987 820.981 363.611 816.054 358.594C811.084 353.533 799.778 367.17 799.778 367.17Z" fill="#365DA4"/>
<path d="M794.04 292.703C793.23 286.078 795.299 275.486 808.439 277.179C821.579 278.873 825.717 291.846 823.072 297.635C820.427 303.403 826.89 304.796 828.916 311.014C830.666 316.353 831.263 322.979 834.1 325.938C843.208 335.522 825.354 350.253 814.603 347.144C795.022 341.483 792.504 340.647 793.187 325.166C793.55 317.233 799.672 314.166 795.789 311.872C786.383 306.34 795.853 307.691 794.04 292.703Z" fill="#AA443E"/>
<path d="M798.008 313.952L801.89 319.806L809.719 319.42L813.345 310.028C813.345 310.028 812.236 309.814 811.702 298.085L801.933 301.087C801.933 301.087 802.445 304.153 801.762 307.477C801.293 309.792 800.226 312.28 798.008 313.952Z" fill="#D9935C"/>
<path d="M796.92 309.814C797.432 309.814 806.626 306.726 819.787 312.108C819.787 312.108 813.537 348.023 816.224 354.863C818.912 361.724 819.936 367.792 819.936 367.792L790.841 368.157C790.841 368.157 791.246 344.635 789.902 336.316C788.558 327.996 796.92 309.814 796.92 309.814Z" fill="#D9935C"/>
<path d="M819.765 352.075C819.595 351.389 819.467 350.767 819.424 350.253C819.04 345.922 819.701 342.384 820.768 338.91C820.789 338.846 820.811 338.803 820.811 338.739C820.832 338.653 820.875 338.503 820.917 338.331C820.917 338.331 820.917 338.331 820.917 338.31C820.96 338.138 821.003 337.945 821.067 337.731C821.088 337.667 821.109 337.581 821.109 337.495C821.856 334.129 823.498 325.659 823.925 324.501C824.074 324.115 824.224 323.451 824.373 322.657C824.821 320.106 825.013 316.053 823.52 314.359C821.451 312.001 814.39 310.307 814.39 310.307C812.961 312.58 808.097 318.112 801.975 317.104C798.435 316.525 797.901 309.621 797.901 309.621C794.104 310.135 793.144 310.736 793.144 310.736C793.144 310.736 784.057 316.439 771.195 334.6C770.79 335.179 769.808 335.115 767.441 334.643C764.412 334.043 758.247 334.129 748.947 332.756C748.947 332.756 748.627 332.992 748.541 334.021C748.349 336.273 748.115 336.938 748.115 336.938C748.115 336.938 754.237 339.832 760.764 341.912C763.068 342.641 765.478 343.327 767.782 343.842C769.915 344.313 771.963 344.657 773.755 344.742C773.755 344.742 781.178 341.869 788.366 333.914C788.793 340.604 789.71 349.245 789.134 355.549C788.814 359.13 786.361 371.223 786.98 373.238C788.26 377.419 798.072 377.634 806.839 377.205C807.031 377.205 807.223 377.184 807.415 377.184C808.78 377.098 810.103 376.991 811.361 376.841C813.707 376.583 815.755 376.24 817.078 375.919C818.784 375.533 820.939 374.954 822.688 374.117C824.032 373.474 825.119 372.659 825.61 371.63C824.8 367.02 820.747 357.093 819.765 352.075Z" fill="#80BDCC"/>
<path d="M800.674 363.675C802.338 369.336 803.298 373.989 807.479 377.141C808.844 377.055 810.167 376.948 811.425 376.798C813.771 376.54 815.819 376.197 817.142 375.876C818.848 375.49 821.003 374.911 822.752 374.075C824.096 373.431 825.183 372.617 825.674 371.587C824.821 367.02 820.768 357.093 819.787 352.075C819.701 351.582 819.616 351.132 819.595 350.746C819.232 346.243 819.808 342.534 820.811 338.91C820.875 338.717 820.917 338.524 820.981 338.331C820.981 338.331 820.981 338.331 820.981 338.31C821.024 338.181 821.067 337.988 821.131 337.731C821.152 337.667 821.173 337.581 821.173 337.495C821.835 334.3 823.584 324.287 824.032 322.979C824.181 322.572 824.33 321.864 824.458 320.985L820.939 317.576C820.939 317.576 800.845 326.195 796.408 338.095C791.993 350.017 798.285 355.549 800.674 363.675Z" fill="#5F9AA8"/>
<path d="M760.828 341.891C765.286 343.306 770.107 344.549 773.797 344.721C773.797 344.721 781.327 341.826 788.558 333.721C788.857 332.349 789.156 330.033 787.492 330.698C785.167 331.641 776.57 342.727 773.328 342.963C771.003 343.134 764.39 342.341 760.828 341.891Z" fill="#5F9AA8"/>
<path d="M776.698 338.717C776.698 338.717 786.596 343.713 795.192 345.793C797.667 346.393 800.056 346.801 802.082 346.908C802.082 346.908 811.51 344.185 818.379 334.129C831.05 315.517 821.493 312.88 821.493 312.88C821.493 312.88 812.406 318.583 799.544 336.745C799.096 337.388 797.965 337.238 795.043 336.637C791.929 335.994 785.7 336.08 777.125 334.815C777.125 334.815 776.976 335.136 776.89 336.166C776.677 338.438 776.698 338.717 776.698 338.717Z" fill="#80BDCC"/>
<path d="M767.505 334.622C764.518 334.043 758.162 334 749.011 332.649C748.307 332.413 747.496 332.113 746.75 331.749C744.787 330.762 739.561 330.098 738.452 331.148C737.343 332.199 739.625 336.466 744.403 336.594C746.067 336.637 747.326 336.766 748.243 336.916C748.755 337.152 754.621 339.897 760.849 341.869C763.153 342.598 765.564 343.284 767.867 343.799C768.763 339.704 768.123 336.487 767.505 334.622Z" fill="#A86337"/>
<path d="M801.762 307.477C805.794 307.155 811.702 298.085 811.702 298.085L801.933 301.087C801.933 301.087 802.466 304.153 801.762 307.477Z" fill="#CC7C46"/>
<path d="M799.373 301.752C799.373 301.752 811.084 304.11 812.428 296.756C813.771 289.401 816.203 284.748 808.78 282.947C801.357 281.125 799.394 283.655 798.349 286.013C797.304 288.351 796.365 300.958 799.373 301.752Z" fill="#D9935C"/>
<path d="M805.09 281.125C805.09 281.125 804.876 283.612 808.737 287.857C812.598 292.081 811.66 299.629 811.66 299.629C811.66 299.629 818.144 287.364 814.689 283.462C811.233 279.538 805.09 281.125 805.09 281.125Z" fill="#AA443E"/>
<path d="M809.804 277.866C809.804 277.866 803.981 275.914 798.2 281.639C795.704 284.105 796.088 288.951 797.411 291.76C797.411 291.76 799.458 285.735 803.191 284.427C806.924 283.097 809.804 277.866 809.804 277.866Z" fill="#AA443E"/>
<path d="M803.021 298.149C803.021 298.149 802.701 299.029 800.504 298.621C800.504 298.621 798.648 298.3 798.818 297.313C798.818 297.313 800.717 296.82 803.021 298.149Z" fill="white"/>
<path d="M763.665 317.897L738.751 318.455L744.467 353.276L769.702 354.091L763.665 317.897Z" fill="#A6C7F9"/>
<path d="M795.192 345.793C793.315 342.041 794.04 338.76 795.022 336.659C791.907 336.016 785.636 335.758 777.061 334.493C777.061 334.493 777.061 334.493 777.061 334.515C776.144 334.279 774.779 333.85 773.541 333.228C771.451 332.177 765.862 331.47 764.689 332.606C763.494 333.721 765.948 338.288 771.046 338.417C773.861 338.503 775.568 338.782 776.528 339.039C777.381 339.403 786.98 343.82 795.192 345.793Z" fill="#B77446"/>
<path d="M625.888 359.923H566.141V419.981H625.888V359.923Z" fill="#4A75CB"/>
<path d="M644.318 359.923H584.57V419.981H644.318V359.923Z" fill="#699DEE"/>
<path d="M681.2 420.003H617.057V484.478H681.2V420.003Z" fill="#D86713"/>
<path d="M700.973 420.003H636.831V484.478H700.973V420.003Z" fill="#F1A34F"/>
<path d="M636.831 420.003L617.057 432.053V420.003H636.831Z" fill="#C95C12"/>
<path d="M1151.44 481.969C1151.25 484.221 1130.02 482.634 1129.79 481.905C1129.58 481.262 1132.01 480.747 1134.61 480.125C1134.93 480.04 1135.27 479.975 1135.59 479.889C1138.54 479.16 1141.07 477.574 1142.99 475.065C1145.19 472.256 1147.17 459.413 1147.17 459.413L1155.05 460.892C1155.05 460.892 1150.46 471.892 1149.99 475.494C1149.78 477.102 1150.93 478.196 1151.18 479.611C1151.36 480.404 1151.5 481.176 1151.44 481.969Z" fill="#B77446"/>
<path d="M1151.44 481.969C1151.38 482.891 1150.8 483.427 1149.9 483.728H1144.04C1143.01 483.62 1142.4 483.642 1141.86 483.728H1132.37C1130.64 483.17 1129.92 482.355 1129.77 481.905C1129.55 481.262 1131.99 480.747 1134.59 480.125L1134.61 480.168C1134.61 480.168 1137.85 481.948 1142.01 481.562C1145.4 481.24 1148.86 479.847 1151.21 479.611C1151.36 480.404 1151.5 481.176 1151.44 481.969Z" fill="#365DA4"/>
<path d="M1144.38 468.675C1144.38 468.675 1146.45 470.048 1148.39 470.412C1151.29 470.948 1152.66 470.348 1152.66 470.348C1152.66 470.348 1166.65 435.012 1165.86 423.069C1165.84 422.79 1165.84 422.469 1165.82 422.147C1165.8 420.067 1166.09 417.323 1166.61 414.128C1166.8 412.97 1167.01 411.748 1167.25 410.483C1167.8 407.545 1168.51 404.372 1169.27 401.134C1169.61 399.697 1169.96 398.261 1170.32 396.824C1173.84 382.694 1178.15 368.779 1178.15 368.779C1178.15 368.779 1152.87 360.481 1151.44 368.242C1150.89 371.223 1149.07 383.123 1149.88 401.327C1150.54 415.993 1150.12 427.422 1148.86 440.673C1147.75 452.315 1145.87 462.35 1144.38 468.675Z" fill="#365DA4"/>
<path d="M1165.82 422.147C1165.8 420.067 1166.09 417.323 1166.61 414.128C1166.8 412.97 1167.01 411.748 1167.25 410.483C1167.8 407.545 1168.51 404.372 1169.27 401.134C1169.61 399.697 1169.96 398.261 1170.32 396.824C1169.83 392.514 1169.42 389.556 1169.42 389.556C1169.42 389.556 1158.93 403.879 1165.82 422.147Z" fill="#285493"/>
<path d="M1183.31 481.969C1183.12 484.221 1161.89 482.634 1161.66 481.905C1161.44 481.262 1163.88 480.747 1166.48 480.125C1166.8 480.04 1167.14 479.975 1167.46 479.889C1170.4 479.16 1172.34 476.973 1174.86 475.065C1177.25 473.264 1175.59 464.494 1175.59 464.494L1182.99 461.836C1182.99 461.836 1181.88 470.648 1181.88 475.494C1181.88 477.124 1182.82 478.196 1183.07 479.611C1183.22 480.404 1183.37 481.176 1183.31 481.969Z" fill="#B77446"/>
<path d="M1183.31 481.969C1183.22 482.891 1182.67 483.427 1181.77 483.728H1175.91C1174.88 483.62 1174.26 483.642 1173.73 483.728H1164.26C1162.53 483.17 1161.81 482.355 1161.66 481.905C1161.44 481.262 1163.88 480.747 1166.48 480.125L1166.52 480.168C1166.52 480.168 1169.76 481.948 1173.9 481.562C1177.29 481.24 1180.75 479.847 1183.1 479.611C1183.22 480.404 1183.37 481.176 1183.31 481.969Z" fill="#365DA4"/>
<path d="M1162.92 366.013C1162.92 366.013 1171.13 407.202 1172.52 429.609C1173.9 452.015 1175.63 470.584 1175.63 470.584C1175.63 470.584 1177.42 471.227 1179.49 471.12C1181.67 470.991 1183.39 470.326 1183.39 470.326C1183.39 470.326 1191.54 436.599 1188.83 423.112C1186.12 409.604 1188.39 397.167 1189.69 385.975C1191.54 369.915 1184.4 362.453 1179.41 357.372C1174.37 352.183 1162.92 366.013 1162.92 366.013Z" fill="#365DA4"/>
<path d="M1157.09 290.581C1156.28 283.869 1158.35 273.148 1171.66 274.864C1184.97 276.579 1189.17 289.723 1186.49 295.576C1183.8 301.43 1190.35 302.824 1192.42 309.128C1194.19 314.531 1194.81 321.242 1197.66 324.244C1206.88 333.957 1188.81 348.881 1177.93 345.729C1158.1 340.004 1155.54 339.146 1156.24 323.472C1156.6 315.453 1162.81 312.344 1158.86 310.007C1149.33 304.389 1158.95 305.74 1157.09 290.581Z" fill="#163560"/>
<path d="M1165.09 299.072C1165.09 299.072 1166.61 307.927 1161.12 312.108L1165.07 318.047L1173.01 317.661L1176.67 308.141C1176.67 308.141 1175.54 307.927 1175.01 296.048L1165.09 299.072Z" fill="#A86337"/>
<path d="M1162.51 299.758C1162.51 299.758 1174.37 302.159 1175.74 294.697C1177.1 287.257 1179.55 282.54 1172.05 280.696C1164.54 278.852 1162.53 281.425 1161.49 283.784C1160.42 286.164 1159.46 298.943 1162.51 299.758Z" fill="#B77446"/>
<path d="M1160.02 307.927C1160.53 307.927 1169.85 304.796 1183.18 310.243C1183.18 310.243 1176.87 346.608 1179.58 353.555C1182.28 360.502 1183.33 366.656 1183.33 366.656L1153.87 367.02C1153.87 367.02 1154.28 343.199 1152.93 334.772C1151.59 326.345 1160.02 307.927 1160.02 307.927Z" fill="#A86337"/>
<path d="M1183.16 350.703C1182.99 349.996 1182.86 349.374 1182.82 348.859C1182.43 344.464 1183.1 340.883 1184.18 337.388C1184.2 337.323 1184.23 337.281 1184.23 337.216C1184.25 337.131 1184.29 336.98 1184.33 336.809C1184.33 336.809 1184.33 336.809 1184.33 336.787C1184.38 336.616 1184.42 336.423 1184.48 336.187C1184.5 336.123 1184.52 336.037 1184.52 335.951C1185.29 332.542 1186.96 323.965 1187.38 322.786C1187.53 322.4 1187.7 321.735 1187.83 320.921C1188.28 318.348 1188.47 314.231 1186.98 312.515C1184.89 310.135 1177.53 308.356 1177.53 308.356C1176.08 310.65 1171.36 316.311 1165.18 315.281C1161.59 314.681 1161.04 307.691 1161.04 307.691C1157.2 308.227 1156.22 308.806 1156.22 308.806C1156.22 308.806 1147 314.574 1133.99 332.971C1133.59 333.55 1132.61 333.485 1130.19 333.014C1127.14 332.413 1120.89 332.499 1111.47 331.105C1111.47 331.105 1111.15 331.341 1111.06 332.37C1110.87 334.665 1110.63 335.329 1110.63 335.329C1110.63 335.329 1116.84 338.267 1123.43 340.368C1125.76 341.119 1128.21 341.805 1130.54 342.341C1132.71 342.834 1134.78 343.177 1136.57 343.263C1136.57 343.263 1144.1 340.368 1151.38 332.285C1151.8 339.06 1152.74 347.808 1152.17 354.198C1151.85 357.843 1149.35 370.065 1149.99 372.102C1151.29 376.347 1161.23 376.562 1170.1 376.112C1170.3 376.112 1170.49 376.09 1170.68 376.09C1172.07 376.004 1173.41 375.897 1174.67 375.747C1177.04 375.49 1179.11 375.125 1180.45 374.825C1182.18 374.418 1184.35 373.86 1186.12 373.003C1187.49 372.338 1188.6 371.523 1189.09 370.472C1188.26 365.862 1184.14 355.806 1183.16 350.703Z" fill="#80BDCC"/>
<path d="M1168.29 278.852C1168.29 278.852 1168.08 281.382 1171.98 285.67C1175.89 289.959 1174.95 297.592 1174.95 297.592C1174.95 297.592 1181.52 285.177 1178.02 281.211C1174.52 277.222 1168.29 278.852 1168.29 278.852Z" fill="#163560"/>
<path d="M1173.07 275.55C1173.07 275.55 1167.18 273.577 1161.32 279.367C1158.8 281.854 1159.18 286.764 1160.53 289.616C1160.53 289.616 1162.6 283.505 1166.37 282.175C1170.15 280.846 1173.07 275.55 1173.07 275.55Z" fill="#163560"/>
<path d="M1166.2 296.091C1166.2 296.091 1165.88 296.97 1163.64 296.584C1163.64 296.584 1161.76 296.241 1161.94 295.255C1161.96 295.233 1163.86 294.74 1166.2 296.091Z" fill="white"/>
<path d="M1163.81 362.453C1165.5 368.178 1166.48 372.917 1170.7 376.09C1172.09 376.004 1173.43 375.897 1174.69 375.747C1177.06 375.49 1179.13 375.125 1180.47 374.825C1182.2 374.418 1184.38 373.86 1186.15 373.003C1187.51 372.338 1188.62 371.523 1189.11 370.472C1188.26 365.862 1184.14 355.806 1183.16 350.703C1183.05 350.21 1182.99 349.76 1182.97 349.374C1182.6 344.807 1183.18 341.054 1184.18 337.388C1184.25 337.195 1184.29 337.002 1184.35 336.809C1184.35 336.809 1184.35 336.809 1184.35 336.787C1184.4 336.659 1184.44 336.466 1184.5 336.187C1184.52 336.123 1184.55 336.037 1184.55 335.951C1185.23 332.714 1187 322.572 1187.45 321.242C1187.6 320.813 1187.26 318.948 1187.38 318.069L1184.33 315.796C1184.33 315.796 1163.98 324.544 1159.48 336.594C1155.02 348.623 1161.4 354.241 1163.81 362.453Z" fill="#5F9AA8"/>
<path d="M1123.45 340.39C1127.96 341.826 1132.86 343.091 1136.59 343.263C1136.59 343.263 1144.21 340.325 1151.55 332.135C1151.85 330.741 1152.14 328.404 1150.48 329.09C1148.13 330.033 1139.43 341.269 1136.12 341.505C1133.78 341.655 1127.08 340.861 1123.45 340.39Z" fill="#5F9AA8"/>
<path d="M1139.54 337.195C1139.54 337.195 1149.56 342.255 1158.27 344.356C1160.76 344.957 1163.17 345.386 1165.24 345.493C1165.24 345.493 1175.05 342.898 1181.73 332.542C1193.72 313.973 1184.87 311.036 1184.87 311.036C1184.87 311.036 1175.67 316.804 1162.66 335.201C1162.21 335.844 1161.06 335.694 1158.1 335.094C1154.94 334.45 1148.65 334.536 1139.94 333.25C1139.94 333.25 1139.79 333.571 1139.71 334.6C1139.52 336.895 1139.54 337.195 1139.54 337.195Z" fill="#80BDCC"/>
<path d="M1130.22 333.035C1127.19 332.435 1120.75 332.392 1111.49 331.041C1110.76 330.805 1109.95 330.505 1109.18 330.119C1107.2 329.111 1101.91 328.447 1100.78 329.519C1099.65 330.591 1101.97 334.901 1106.79 335.051C1108.48 335.094 1109.76 335.222 1110.7 335.372C1111.21 335.608 1117.16 338.396 1123.45 340.39C1125.78 341.14 1128.23 341.826 1130.56 342.362C1131.5 338.181 1130.86 334.922 1130.22 333.035Z" fill="#A86337"/>
<path d="M1158.27 344.356C1156.37 340.561 1157.09 337.238 1158.1 335.094C1154.94 334.45 1148.6 334.172 1139.9 332.885C1139.9 332.885 1139.9 332.885 1139.9 332.907C1138.96 332.649 1137.58 332.22 1136.34 331.599C1134.23 330.526 1128.57 329.819 1127.36 330.955C1126.14 332.092 1128.64 336.702 1133.78 336.852C1136.64 336.938 1138.36 337.238 1139.35 337.474C1140.22 337.881 1149.97 342.362 1158.27 344.356Z" fill="#B77446"/>
<path d="M475.783 426.714H435.019V467.689H475.783V426.714Z" fill="#D86713"/>
<path d="M488.347 426.714H447.583V467.689H488.347V426.714Z" fill="#F1A34F"/>
<path d="M447.583 426.714L435.019 434.369V426.714H447.583Z" fill="#C95C12"/>
<path d="M455.433 450.643H439.627L440.288 448.799L439.627 446.783H455.284L454.324 448.863L455.433 450.643Z" fill="#FFD5AB"/>
<path d="M447.519 446.783V450.643H439.627L440.288 448.799L439.627 446.783H447.519Z" fill="#C95C12"/>
<path d="M460.894 403.15H437.451V426.714H460.894V403.15Z" fill="#D86713"/>
<path d="M468.125 403.15H444.682V426.714H468.125V403.15Z" fill="#F1A34F"/>
<path d="M444.682 403.15L437.451 407.567V403.15H444.682Z" fill="#C95C12"/>
<path d="M472.412 408.167H453.961V426.714H472.412V408.167Z" fill="#4A75CB"/>
<path d="M478.108 408.167H459.656V426.714H478.108V408.167Z" fill="#699DEE"/>
<path d="M467.971 420.898L461.131 422.27L461.824 425.761L468.664 424.388L467.971 420.898Z" fill="#EBF2F9"/>
<path d="M462.984 412.884H456.308L456.585 412.112L456.308 411.255H462.92L462.515 412.134L462.984 412.884Z" fill="#EBF2F9"/>
<path d="M459.656 411.255V412.884H456.308L456.585 412.112L456.308 411.255H459.656Z" fill="#A6C7F9"/>
<path d="M448.628 408.253H440.757L441.077 407.331L440.757 406.323H448.564L448.074 407.374L448.628 408.253Z" fill="#FFD5AB"/>
<path d="M444.682 406.323V408.253H440.757L441.077 407.331L440.757 406.323H444.682Z" fill="#C95C12"/>
<path d="M448.628 422.49H440.757L441.077 421.568L440.757 420.56H448.564L448.074 421.589L448.628 422.49Z" fill="#FFD5AB"/>
<path d="M444.682 420.56V422.49H440.757L441.077 421.568L440.757 420.56H444.682Z" fill="#C95C12"/>
<path d="M502.084 435.098H469.661V467.689H502.084V435.098Z" fill="#4A75CB"/>
<path d="M512.088 435.098H479.665V467.689H512.088V435.098Z" fill="#699DEE"/>
<path d="M509.381 437.062L501.62 438.62L502.41 442.594L510.17 441.036L509.381 437.062Z" fill="#EBF2F9"/>
<path d="M483.974 440.265H475.185L475.548 439.215L475.185 438.121H483.888L483.355 439.257L483.974 440.265Z" fill="#EBF2F9"/>
<path d="M479.58 438.121V440.265H475.185L475.548 439.215L475.185 438.121H479.58Z" fill="#A6C7F9"/>
<path d="M483.974 464.537H475.185L475.548 463.508L475.185 462.393H483.888L483.355 463.551L483.974 464.537Z" fill="#EBF2F9"/>
<path d="M479.58 462.393V464.537H475.185L475.548 463.508L475.185 462.393H479.58Z" fill="#A6C7F9"/>
<path d="M423.884 474.808C421.431 474.808 419.426 476.802 419.426 479.289C419.426 481.755 421.41 483.77 423.884 483.77C426.338 483.77 428.343 481.776 428.343 479.289C428.321 476.802 426.338 474.808 423.884 474.808Z" fill="#1C468A"/>
<path d="M423.884 476.373C422.306 476.373 421.026 477.659 421.026 479.246C421.026 480.833 422.306 482.119 423.884 482.119C425.463 482.119 426.743 480.833 426.743 479.246C426.743 477.659 425.463 476.373 423.884 476.373Z" fill="#699DEE"/>
<path d="M513.474 474.808C511.021 474.808 509.016 476.802 509.016 479.289C509.016 481.755 511 483.77 513.474 483.77C515.928 483.77 517.933 481.776 517.933 479.289C517.933 476.802 515.928 474.808 513.474 474.808Z" fill="#1C468A"/>
<path d="M513.474 476.373C511.896 476.373 510.616 477.659 510.616 479.246C510.616 480.833 511.896 482.119 513.474 482.119C515.053 482.119 516.333 480.833 516.333 479.246C516.333 477.659 515.053 476.373 513.474 476.373Z" fill="#699DEE"/>
<path d="M522.753 467.689H431.692L395.344 367.899C395.024 366.999 394.17 366.377 393.232 366.356L381.116 365.862C379.815 365.82 378.706 366.827 378.663 368.135C378.599 369.443 379.623 370.558 380.924 370.601L391.461 371.03L426.679 467.689H418.765C417.507 467.689 416.483 468.718 416.483 469.983V472.728C416.483 473.993 417.507 475.022 418.765 475.022H522.775C524.033 475.022 525.057 473.993 525.057 472.728V469.983C525.036 468.718 524.012 467.689 522.753 467.689Z" fill="#1C468A"/>
<path d="M379.495 358.594C379.495 358.594 384.038 361.596 387.515 361.724C391.013 361.853 393.083 365.369 393.573 366.827C394.064 368.285 392.656 370.537 391.589 369.207C389.968 367.192 386.641 368.757 383.462 366.141C380.284 363.504 375.549 361.81 375.549 361.81L379.495 358.594Z" fill="#9E6138"/>
<path d="M339.051 309.256C339.051 309.256 348.8 344.292 356.564 351.346C360.596 355.013 382.929 369.979 384.764 365.219C384.764 365.219 387.515 361.831 385.979 359.837C385.979 359.837 367.208 346.265 365.758 345.364C363.219 343.777 366.355 311.979 359.678 306.49C353.023 301.001 342.763 299.565 339.051 309.256Z" fill="#D88029"/>
<path d="M378.386 483.685C378.386 483.685 377.66 483.706 376.466 483.749H358.057C357.631 483.706 357.332 483.642 357.183 483.556C355.519 482.763 356.287 475.43 356.287 475.43C356.287 475.43 363.433 469.426 364.52 473.886C365.608 478.346 371.56 480.233 374.93 480.704C378.322 481.219 378.386 483.685 378.386 483.685Z" fill="#233862"/>
<path d="M320.259 393.029C323.8 400.298 332.183 410.397 335.297 418.245C336.022 420.089 336.47 421.825 336.47 423.348C336.534 440.93 355.54 475.623 355.54 475.623C357.353 476.802 365.075 474.443 365.075 474.443C365.075 474.443 364.179 466.746 359.742 440.115C357.289 425.428 353.172 403.557 349.951 386.897C349.12 382.608 348.352 378.663 347.69 375.275C346.261 367.964 345.323 363.247 345.323 363.247L337.963 363.375L318.062 363.697C318.104 363.697 309.849 371.652 320.259 393.029Z" fill="#2B478B"/>
<path d="M320.259 393.029C323.8 400.298 332.183 410.397 335.297 418.245C339.691 408.917 346.346 394.723 349.973 386.875C349.141 382.587 348.373 378.642 347.712 375.254C344.853 371.737 341.163 367.213 337.985 363.354L318.083 363.675C318.104 363.697 309.849 371.652 320.259 393.029Z" fill="#233862"/>
<path d="M296.197 483.749H286.215C285.276 483.02 284.487 481.755 284.145 479.997C283.57 476.995 280.135 475.494 279.303 473.071C278.471 470.627 282.055 467.003 282.055 467.003L283.25 465.309L289.478 466.51C289.478 466.51 290.118 470.884 290.075 474.165C290.033 477.467 291.27 480.962 294.214 481.476C296.368 481.841 296.368 483.084 296.197 483.749Z" fill="#233862"/>
<path d="M323.757 436.384C320.024 443.203 292.443 474.894 292.443 474.894C292.443 474.894 283.762 471.935 282.204 466.638C282.204 466.638 298.523 439.708 305.924 428.215C308.036 424.934 309.231 374.761 316.782 365.627C326.253 354.155 343.403 375.919 343.403 375.919C343.403 375.919 338.027 393.458 336.364 398.99C332.673 411.233 326.317 431.688 323.757 436.384Z" fill="#2B478B"/>
<path d="M376.892 361.21C376.892 361.21 381.436 364.211 384.913 364.34C388.411 364.469 390.48 367.985 390.971 369.443C391.461 370.901 390.054 373.153 388.987 371.823C387.366 369.808 384.038 371.373 380.86 368.757C377.682 366.12 372.946 364.426 372.946 364.426L376.892 361.21Z" fill="#AB7041"/>
<path d="M360.404 302.867C363.134 298.3 364.286 295.405 364.286 295.405L357.865 284.084C354.132 294.697 345.472 297.099 345.472 297.099C345.472 297.099 355.583 308.249 363.71 308.806C363.731 308.806 362.835 305.804 360.404 302.867Z" fill="#9C5F33"/>
<path d="M366.59 296.113C366.59 296.113 353.855 293.389 355.668 285.435C357.481 277.48 357.055 271.776 365.267 273.191C373.479 274.585 374.354 277.994 374.397 280.803C374.418 283.591 369.939 296.606 366.59 296.113Z" fill="#AB7041"/>
<path d="M355.519 285.971C355.519 285.971 359.7 276 371.218 278.702C379.111 280.546 377.042 272.484 376.572 271.154C376.572 271.154 370.429 269.997 364.094 268.989C350.805 266.845 354.815 283.977 355.519 285.971Z" fill="#233862"/>
<path d="M366.206 320.578C365.95 324.544 364.755 330.569 363.134 337.259C362.494 339.854 361.811 342.534 361.086 345.236C359.913 349.631 358.676 354.048 357.417 358.208L357.375 358.358C357.289 358.787 357.14 359.237 357.012 359.644C355.903 363.311 354.858 366.72 353.94 369.593C352.191 375.104 352.17 378.191 350.762 378.813C347.946 380.057 336.854 378.727 330.199 375.833C324.589 373.431 316.014 366.184 316.057 362.539C316.099 358.315 321.752 345.579 325.506 330.698C330.135 312.537 340.374 298.021 348.906 295.04C349.546 294.826 350.229 296.177 352.703 298.578C354.986 300.787 357.865 302.159 360.596 302.459L362.217 305.182C364.456 309.063 366.632 314.102 366.206 320.578Z" fill="#E2923D"/>
<path d="M361.107 345.257C361.833 342.534 360.468 347.83 361.107 345.257C359.934 349.652 358.697 354.069 357.439 358.229L357.396 358.379C357.311 358.808 357.161 359.258 357.033 359.666C355.924 363.332 354.879 366.742 353.962 369.615C336.193 346.929 346.261 319.763 346.261 319.763L361.107 345.257Z" fill="#D88029"/>
<path d="M336.214 312.087C336.214 312.087 345.963 347.122 353.727 354.177C357.759 357.843 380.092 372.81 381.927 368.049C381.927 368.049 384.678 364.662 383.142 362.668C383.142 362.668 364.371 349.095 362.921 348.194C360.382 346.608 363.518 314.81 356.841 309.321C350.186 303.853 339.926 302.416 336.214 312.087Z" fill="#E2923D"/>
<path d="M362.558 281.018C362.558 281.018 363.987 278.638 367.805 278.252C367.805 278.252 356.564 278.487 356.116 281.961C355.647 285.435 355.519 285.971 355.519 285.971C355.519 285.971 361.47 286.228 362.558 281.018Z" fill="#233862"/>
<path d="M1084.95 338.76C1084.95 338.76 1078.77 341.655 1072.15 343.756C1069.81 344.485 1067.4 345.171 1065.05 345.707C1062.9 346.2 1060.83 346.543 1059.01 346.586C1059.01 346.586 1058.86 346.543 1058.57 346.393C1056.9 345.664 1050.37 342.577 1044.04 335.565C1043.55 334.986 1043.02 334.386 1042.52 333.764C1042.14 333.314 1041.74 328.961 1041.44 324.416C1041.39 324.373 1041.39 324.373 1041.39 324.373C1041.05 319.034 1040.8 313.352 1040.8 313.352C1040.8 313.352 1049.33 315.646 1061.59 336.401C1061.94 336.98 1062.96 336.895 1065.37 336.444C1068.46 335.865 1074.69 335.908 1084.1 334.536C1084.1 334.536 1084.44 334.772 1084.55 335.801C1084.7 338.074 1084.95 338.76 1084.95 338.76Z" fill="#F4BE61"/>
<path d="M1058.57 346.393C1056.9 345.664 1050.37 342.577 1044.04 335.565C1043.55 334.986 1043.02 334.386 1042.52 333.764C1042.14 333.314 1041.74 328.961 1041.44 324.416C1042.63 325.595 1056.35 338.91 1058.57 346.393Z" fill="#F2A83D"/>
<path d="M1027.72 277.158C1027.72 277.158 1026.93 275.571 1023.03 276C1019.12 276.429 1012.36 277.158 1012.32 298.535C1012.32 300.873 998.263 322.207 1014.11 342.319L1025.42 313.587L1027.72 277.158Z" fill="#163560"/>
<path d="M1028.85 277.437C1028.85 277.437 1024.69 276.043 1022.49 278.123C1020.3 280.203 1021.53 282.947 1021.53 282.947L1028.85 277.437Z" fill="#C65447"/>
<path d="M1041.99 285.628C1041.99 285.628 1041.91 276.472 1027.14 277.523C1024.63 277.694 1022.35 279.131 1021.21 281.382C1019.55 284.62 1018.83 290.323 1024.2 299.479L1041.99 285.628Z" fill="#163560"/>
<path d="M1023.28 312.537L1026.61 325.531L1036.23 326.002L1041.01 318.841C1036.53 315.453 1035.89 309.514 1035.98 305.997C1035.98 305.954 1035.98 305.933 1035.98 305.89C1036.02 304.239 1036.21 303.124 1036.21 303.124L1029.38 301.044L1024.18 299.457C1024.65 303.424 1024.63 306.276 1024.41 308.291C1024.07 311.465 1023.28 312.537 1023.28 312.537Z" fill="#E49963"/>
<path d="M1013.58 379.735L1048.48 379.692C1048.48 379.692 1044.12 356.321 1046.53 348.666C1048.95 341.011 1046.41 329.819 1046.41 329.819C1042.91 321.499 1042.01 313.716 1040.46 313.309C1039.6 313.073 1038.9 312.623 1038.07 312.451C1024.35 309.707 1013.22 314.702 1013.22 314.702C1010.14 322.421 1016.74 328.211 1017.06 345.643C1017.38 362.775 1013.58 379.735 1013.58 379.735Z" fill="#E49963"/>
<path d="M1050.57 381.343C1050.57 381.343 1023.99 386.832 1008.78 381.15C1007.95 380.807 1011.13 369.357 1013.34 361.51C1014.43 357.65 1015.26 354.648 1015.2 354.262C1014.67 343.584 1012.55 334.493 1011.57 327.439C1011.27 325.573 1011.08 323.922 1011.04 322.357V321.564C1011 319.012 1011.34 316.954 1012.21 315.239C1013.88 312.151 1022.86 312.108 1022.86 312.108C1023.73 313.137 1028.6 316.525 1034.38 316.461C1040.22 316.418 1037.32 312.301 1037.32 312.301C1037.55 312.344 1037.96 312.408 1038.15 312.451C1041.05 313.094 1043.02 314.467 1043.02 314.467C1047.67 319.548 1049.2 344.914 1049.09 345.75C1048.9 348.838 1050.57 381.343 1050.57 381.343Z" fill="#F4BE61"/>
<path d="M1024.41 308.313C1028.55 306.104 1034.95 305.997 1035.98 305.997C1036.06 305.997 1036.13 305.997 1036.13 305.997C1036.13 305.997 1036.08 305.954 1035.98 305.89C1035.29 305.397 1032.22 303.124 1029.38 301.066L1024.18 299.479C1024.67 303.446 1024.63 306.297 1024.41 308.313Z" fill="#D68D5D"/>
<path d="M1038.56 306.19C1038.56 306.19 1023.88 306.855 1023.6 297.742C1023.33 288.608 1021.26 282.561 1030.6 281.747C1039.94 280.932 1041.88 284.362 1042.72 287.386C1043.55 290.388 1042.35 305.783 1038.56 306.19Z" fill="#E49963"/>
<path d="M1037.06 285.327C1037.06 285.327 1043.34 289.637 1042.33 294.633C1042.33 294.633 1045.45 293.003 1045.15 288.222C1044.85 283.462 1040.31 280.181 1036.3 279.924C1032.29 279.667 1029.26 280.01 1029.26 280.01L1037.06 285.327Z" fill="#163560"/>
<path d="M1038.17 283.741C1040.78 285.113 1030.02 286.271 1029.36 290.645C1028.7 295.019 1023.58 296.691 1023.58 296.691C1023.58 296.691 1017.08 272.591 1038.17 283.741Z" fill="#163560"/>
<path d="M1046.68 343.606C1046.68 343.606 1034.97 359.323 1013.34 361.531C1014.43 357.672 1015.26 354.67 1015.2 354.284C1014.67 343.606 1012.55 334.515 1011.57 327.46C1011.27 325.595 1011.08 323.944 1011.04 322.379V321.585C1013.54 322.078 1017.42 324.673 1019.08 325.059C1031.99 328.082 1046.68 343.606 1046.68 343.606Z" fill="#F2A83D"/>
<path d="M1040.31 301.216C1040.31 301.216 1040.2 302.138 1037.94 302.266C1037.94 302.266 1036.04 302.373 1035.98 301.366C1035.98 301.387 1037.73 300.465 1040.31 301.216Z" fill="white"/>
<path d="M1059.78 339.918C1059.78 339.918 1049.76 344.957 1041.05 347.037C1038.56 347.637 1036.15 348.066 1034.08 348.152C1034.08 348.152 1024.71 345.278 1017.59 335.287C1003.79 315.989 1014.45 313.909 1014.45 313.909C1014.45 313.909 1023.67 319.656 1036.68 337.924C1037.13 338.567 1038.28 338.417 1041.24 337.817C1044.4 337.173 1050.69 337.259 1059.4 335.973C1059.4 335.973 1059.55 336.294 1059.63 337.323C1059.78 339.618 1059.78 339.918 1059.78 339.918Z" fill="#F4BE61"/>
<path d="M1084.95 338.76C1084.95 338.76 1078.74 341.676 1072.15 343.756C1069.83 344.506 1067.38 345.193 1065.05 345.707C1064.11 341.547 1064.75 338.31 1065.39 336.444C1068.44 335.844 1074.99 335.801 1084.42 334.429L1084.95 338.76Z" fill="#A86337"/>
<path d="M1082.05 335.008C1082.05 335.008 1084.44 334.536 1086.42 333.55C1088.41 332.563 1093.7 331.899 1094.83 332.949C1095.96 334 1093.63 338.31 1088.81 338.438C1083.97 338.567 1082.58 339.36 1082.58 339.36L1082.05 335.008Z" fill="#A86337"/>
<path d="M1060.02 340.175C1060.02 340.175 1049.76 344.935 1041.05 347.015C1042.97 343.241 1042.23 339.939 1041.22 337.817C1044.38 337.173 1050.72 336.895 1059.42 335.63C1059.42 335.63 1059.53 336.294 1059.61 337.323C1059.78 339.618 1060.02 340.175 1060.02 340.175Z" fill="#B77446"/>
<path d="M952.316 380.078V379.735H915.883C911.361 379.735 907.734 383.316 907.734 387.669C907.734 391.635 910.678 394.894 914.56 395.495V484.371H1051.57V380.078H952.316Z" fill="#AA443E"/>
<path d="M1085.14 325.295H1063.26V347.144H1085.14V325.295Z" fill="#D86713"/>
<path d="M1091.91 325.295H1070.02V347.144H1091.91V325.295Z" fill="#F1A34F"/>
<path d="M1070.02 325.295L1063.26 329.39V325.295H1070.02Z" fill="#C95C12"/>
<path d="M1073.69 330.033H1066.33L1066.65 329.154L1066.33 328.232H1073.63L1073.18 329.197L1073.69 330.033Z" fill="#FFD5AB"/>
<path d="M1070.02 328.232V330.033H1066.33L1066.65 329.154L1066.33 328.232H1070.02Z" fill="#C95C12"/>
<path d="M1073.69 343.22H1066.33L1066.65 342.362L1066.33 341.44H1073.63L1073.18 342.384L1073.69 343.22Z" fill="#FFD5AB"/>
<path d="M1070.02 341.44V343.22H1066.33L1066.65 342.362L1066.33 341.44H1070.02Z" fill="#C95C12"/>
<path d="M1058.29 335.93C1058.29 335.93 1060.83 335.437 1062.96 334.386C1065.07 333.335 1070.72 332.628 1071.94 333.743C1073.13 334.879 1070.66 339.468 1065.52 339.596C1060.36 339.746 1058.89 340.583 1058.89 340.583L1058.29 335.93Z" fill="#B77446"/>
<path d="M1089.58 380.078H952.572V484.371H1089.58V380.078Z" fill="#C65447"/>
<path d="M1109.8 379.735H915.904C911.382 379.735 907.756 383.316 907.756 387.669C907.756 392.064 911.382 395.602 915.904 395.602H1109.8C1114.82 395.602 1118.87 392.021 1118.87 387.669C1118.87 383.316 1114.79 379.735 1109.8 379.735Z" fill="#E57970"/>
<path d="M923.114 333.314H898.519V355.27H923.114V333.314Z" fill="#8CB3ED"/>
<path d="M927.593 333.314H902.999V355.27H927.593V333.314Z" fill="#A6C7F9"/>
<path d="M961.083 330.012H930.089V355.27H961.083V330.012Z" fill="#8CB3ED"/>
<path d="M966.736 330.012H935.742V355.27H966.736V330.012Z" fill="#A6C7F9"/>
<path d="M939.944 424.184C939.944 424.184 929.748 431.817 927.743 431.345C925.759 430.874 935.209 423.112 935.209 423.112C931.646 421.396 920.597 422.469 920.597 422.469C920.597 422.469 916.907 434.39 915.093 433.447C913.28 432.503 918.89 423.047 918.89 423.047C914.923 422.812 910.081 425.771 910.081 425.771C903.425 431.045 910.507 439.343 910.507 439.343C910.507 439.343 909.142 443.46 904.94 447.191C904.94 447.191 898.946 451.651 898.519 459.606L899.607 459.713C899.607 459.713 901.356 452.23 904.513 448.735C904.641 448.606 904.791 448.456 904.983 448.263C905.495 447.791 905.836 447.427 906.092 447.169C907.649 445.668 909.803 443.739 910.849 443.546C910.849 443.546 910.806 443.353 910.806 443.031C910.827 443.203 910.827 443.374 910.849 443.546C911.211 447.748 919.317 451.415 924.287 452.165C929.279 452.916 927.721 450.857 926.015 447.813C924.287 444.768 918.869 443.396 917.632 441.981C916.395 440.565 918.954 440.565 921.962 441.959C924.97 443.331 925.375 447.019 930.196 449.335C935.017 451.651 942.269 443.61 942.269 443.61C938.43 443.417 932.947 439.215 933.139 437.949C933.331 436.663 942.44 440.158 943.997 440.33C945.554 440.501 949.095 438.55 949.65 432.246C950.226 425.942 939.944 424.184 939.944 424.184Z" fill="#82B378"/>
<path d="M885.763 428.923C885.763 428.923 897.026 422.576 891.779 413.978C891.779 413.978 887.577 408.682 883.054 407.331C883.054 407.331 885.465 420.174 883.054 420.474C880.644 420.775 881.412 405.98 881.412 405.98C881.412 405.98 869.552 400.233 864.88 400.684C864.88 400.684 872.24 413.227 869.829 412.906C867.419 412.605 859.164 399.912 859.164 399.912C859.164 399.912 847.005 397.639 845.043 404.886C843.08 412.134 846.237 415.757 848.05 416.208C849.863 416.658 861.425 416.508 861.126 418.03C860.828 419.531 853.02 421.954 848.648 420.603C848.648 420.603 853.447 432.525 859.761 431.924C866.075 431.324 868.016 427.4 871.92 427.1C875.823 426.8 878.682 427.85 876.719 428.923C874.757 429.973 868.165 429.266 865.008 431.967C861.851 434.669 859.292 436.32 865.158 437.542C871.024 438.743 881.54 437.992 883.63 433.468C885.763 428.923 885.763 428.923 885.763 428.923Z" fill="#A8D29F"/>
<path d="M888.771 439.944C885.614 434.047 885.763 428.922 885.763 428.922C882.158 417.451 850.61 407.181 850.61 407.181C890.712 423.498 883.652 433.447 883.652 433.447C884.74 434.09 886.361 437.113 887.47 439.429C887.641 439.815 887.875 440.372 888.259 441.101C888.408 441.444 888.536 441.723 888.622 441.916C890.691 447.105 889.603 456.089 889.603 456.089L890.862 456.432C893.635 447.362 888.771 439.944 888.771 439.944Z" fill="#82B378"/>
<path d="M903.681 420.174C903.681 420.174 888.835 411.812 895.768 400.469C895.768 400.469 901.314 393.501 907.244 391.721C907.244 391.721 904.065 408.639 907.244 409.046C910.422 409.453 909.419 389.941 909.419 389.941C909.419 389.941 925.055 382.373 931.198 382.973C931.198 382.973 921.493 399.504 924.671 399.097C927.849 398.69 938.728 381.987 938.728 381.987C938.728 381.987 954.769 379.006 957.35 388.548C959.931 398.111 955.772 402.871 953.383 403.471C951.015 404.072 935.763 403.879 936.147 405.851C936.552 407.845 946.834 411.019 952.593 409.239C952.593 409.239 946.258 424.956 937.939 424.162C929.62 423.369 927.039 418.18 921.898 417.794C916.757 417.387 912.982 418.781 915.563 420.174C918.144 421.568 926.847 420.625 931.006 424.184C935.166 427.743 938.536 429.93 930.814 431.517C923.093 433.104 909.227 432.117 906.454 426.135C903.681 420.174 903.681 420.174 903.681 420.174Z" fill="#A8D29F"/>
<path d="M950.034 391.507C950.034 391.507 908.438 405.036 903.703 420.174C903.703 420.174 903.895 426.95 899.735 434.712C899.735 434.712 893.315 444.511 896.984 456.411L898.626 455.961C898.626 455.961 897.175 444.146 899.906 437.285C900.012 437.027 900.183 436.663 900.375 436.234C900.866 435.248 901.207 434.54 901.42 434.026C902.914 430.959 905.047 426.993 906.454 426.157C906.454 426.135 897.154 413.013 950.034 391.507Z" fill="#82B378"/>
<path d="M874.095 453.002C874.095 469.147 887.129 482.248 903.191 482.248C919.253 482.248 932.286 469.147 932.286 453.002H874.095Z" fill="#F1A34F"/>
<path d="M910.358 482.034C909.185 482.184 907.969 482.248 906.753 482.248C890.691 482.248 877.658 469.147 877.658 453.002H884.889C884.868 467.925 895.981 480.233 910.358 482.034Z" fill="#FFB973"/>
<path d="M929.108 480.125H877.295C875.311 480.125 873.711 481.733 873.711 483.728H932.713C932.691 481.755 931.07 480.125 929.108 480.125Z" fill="#F1A34F"/>
<path d="M932.948 453.002H873.135V453.902H932.948V453.002Z" fill="#D86713"/>
<path d="M636.085 397.36L630.304 375.618C630.091 374.804 629.237 374.31 628.427 374.525L592.463 384.195C591.652 384.41 591.162 385.267 591.375 386.082L597.156 407.824C597.369 408.639 598.222 409.132 599.033 408.917L634.997 399.247C635.807 399.054 636.298 398.175 636.085 397.36Z" fill="#F1A34F"/>
<path d="M630.304 375.64C630.091 374.825 629.237 374.332 628.427 374.546L592.463 384.217C591.652 384.431 591.162 385.289 591.375 386.103L613.73 391.743L630.475 376.262L630.304 375.64Z" fill="#D86713"/>
<path d="M633.44 396.374C633.354 396.052 633.013 395.838 632.672 395.924L625.931 397.746C625.611 397.832 625.398 398.175 625.483 398.518C625.569 398.84 625.91 399.054 626.251 398.968L632.992 397.146C633.312 397.039 633.525 396.696 633.44 396.374Z" fill="#D86713"/>
<path d="M606.733 420.003H542.591V484.478H606.733V420.003Z" fill="#D86713"/>
<path d="M626.507 420.003H562.365V484.478H626.507V420.003Z" fill="#F1A34F"/>
<path d="M562.365 420.003L542.591 432.053V420.003H562.365Z" fill="#C95C12"/>
<path d="M574.716 457.654H549.844L550.889 454.717L549.844 451.565H574.481L572.966 454.845L574.716 457.654Z" fill="#FFD5AB"/>
<path d="M562.28 451.565V457.654H549.844L550.889 454.717L549.844 451.565H562.28Z" fill="#C95C12"/>
<path d="M717.484 446.655H680.602V483.728H717.484V446.655Z" fill="#D86713"/>
<path d="M728.853 446.655H691.972V483.728H728.853V446.655Z" fill="#F1A34F"/>
<path d="M691.972 446.655L680.602 453.602V446.655H691.972Z" fill="#C95C12"/>
<path d="M735.636 454.545H706.583V483.749H735.636V454.545Z" fill="#4A75CB"/>
<path d="M744.574 454.545H715.521V483.749H744.574V454.545Z" fill="#699DEE"/>
<path d="M728.621 474.583L717.848 476.745L718.943 482.253L729.715 480.091L728.621 474.583Z" fill="#EBF2F9"/>
<path d="M720.747 461.986H710.252L710.7 460.742L710.252 459.413H720.662L720.022 460.806L720.747 461.986Z" fill="#EBF2F9"/>
<path d="M715.5 459.413V461.986H710.252L710.7 460.742L710.252 459.413H715.5Z" fill="#A6C7F9"/>
<path d="M698.179 454.695H685.764L686.298 453.237L685.764 451.651H698.051L697.304 453.28L698.179 454.695Z" fill="#FFD5AB"/>
<path d="M691.972 451.651V454.695H685.764L686.298 453.237L685.764 451.651H691.972Z" fill="#C95C12"/>
<path d="M698.179 477.081H685.764L686.298 475.623L685.764 474.036H698.051L697.304 475.687L698.179 477.081Z" fill="#FFD5AB"/>
<path d="M691.972 474.036V477.081H685.764L686.298 475.623L685.764 474.036H691.972Z" fill="#C95C12"/>
<path d="M648.286 433.382H597.262V484.671H648.286V433.382Z" fill="#4A75CB"/>
<path d="M664.028 433.382H613.005V484.671H664.028V433.382Z" fill="#699DEE"/>
<path d="M659.768 436.492L647.552 438.944L648.792 445.189L661.008 442.737L659.768 436.492Z" fill="#EBF2F9"/>
<path d="M619.767 441.509H605.944L606.52 439.879L605.944 438.142H619.639L618.807 439.943L619.767 441.509Z" fill="#EBF2F9"/>
<path d="M612.855 438.142V441.509H605.944L606.52 439.879L605.944 438.142H612.855Z" fill="#A6C7F9"/>
<path d="M619.767 479.718H605.944L606.52 478.088L605.944 476.33H619.639L618.807 478.153L619.767 479.718Z" fill="#EBF2F9"/>
<path d="M612.855 476.33V479.718H605.944L606.52 478.088L605.944 476.33H612.855Z" fill="#A6C7F9"/>
<path d="M594.34 376.862H574.673L575.505 374.546L574.673 372.059H594.148L592.953 374.654L594.34 376.862Z" fill="#EBF2F9"/>
<path d="M584.506 372.059V376.862H574.673L575.505 374.546L574.673 372.059H584.506Z" fill="#A6C7F9"/>
<path d="M996.898 248.255H894.872V251.857H996.898V248.255Z" fill="#91B6ED"/>
<path d="M1003.36 217.936H870.81V221.538H1003.36V217.936Z" fill="#699DEE"/>
<path d="M996.898 283.934H894.872V287.536H996.898V283.934Z" fill="#91B6ED"/>
<path d="M996.898 319.613H894.872V323.215H996.898V319.613Z" fill="#91B6ED"/>
<path d="M996.898 355.292H894.872V358.894H996.898V355.292Z" fill="#91B6ED"/>
<path d="M927.359 254.816H898.391V283.934H927.359V254.816Z" fill="#D86713"/>
<path d="M936.296 254.816H907.329V283.934H936.296V254.816Z" fill="#F1A34F"/>
<path d="M907.329 254.816L898.391 260.262V254.816H907.329Z" fill="#C95C12"/>
<path d="M941.608 261.012H918.805V283.934H941.608V261.012Z" fill="#4A75CB"/>
<path d="M948.647 261.012H925.844V283.934H948.647V261.012Z" fill="#699DEE"/>
<path d="M936.119 276.873L927.647 278.573L928.508 282.905L936.979 281.204L936.119 276.873Z" fill="#EBF2F9"/>
<path d="M929.94 266.952H921.706L922.047 265.987L921.706 264.936H929.854L929.364 266.03L929.94 266.952Z" fill="#EBF2F9"/>
<path d="M925.823 264.936V266.952H921.706L922.047 265.987L921.706 264.936H925.823Z" fill="#A6C7F9"/>
<path d="M912.214 261.055H902.465L902.871 259.919L902.465 258.675H912.107L911.531 259.962L912.214 261.055Z" fill="#FFD5AB"/>
<path d="M907.329 258.675V261.055H902.465L902.871 259.919L902.465 258.675H907.329Z" fill="#C95C12"/>
<path d="M912.214 278.638H902.465L902.871 277.501L902.465 276.258H912.107L911.531 277.544L912.214 278.638Z" fill="#FFD5AB"/>
<path d="M907.329 276.258V278.638H902.465L902.871 277.501L902.465 276.258H907.329Z" fill="#C95C12"/>
<path d="M935.272 225.376H912.47V248.298H935.272V225.376Z" fill="#4A75CB"/>
<path d="M942.312 225.376H919.509V248.298H942.312V225.376Z" fill="#699DEE"/>
<path d="M929.785 241.131L921.313 242.832L922.174 247.163L930.645 245.463L929.785 241.131Z" fill="#EBF2F9"/>
<path d="M923.604 231.23H915.371L915.712 230.244L915.371 229.214H923.54L923.029 230.287L923.604 231.23Z" fill="#EBF2F9"/>
<path d="M919.488 229.214V231.23H915.371L915.712 230.244L915.371 229.214H919.488Z" fill="#A6C7F9"/>
<path d="M961.467 232.045H945.341V248.255H961.467V232.045Z" fill="#D86713"/>
<path d="M966.437 232.045H950.311V248.255H966.437V232.045Z" fill="#F1A34F"/>
<path d="M950.311 232.045L945.341 235.068V232.045H950.311Z" fill="#C95C12"/>
<path d="M953.02 235.561H947.602L947.836 234.918L947.602 234.232H952.977L952.636 234.939L953.02 235.561Z" fill="#FFD5AB"/>
<path d="M950.311 234.232V235.561H947.602L947.836 234.918L947.602 234.232H950.311Z" fill="#C95C12"/>
<path d="M953.02 245.339H947.602L947.836 244.695L947.602 244.009H952.977L952.636 244.717L953.02 245.339Z" fill="#FFD5AB"/>
<path d="M950.311 244.009V245.339H947.602L947.836 244.695L947.602 244.009H950.311Z" fill="#C95C12"/>
<path d="M917.611 300.572H898.669V319.613H917.611V300.572Z" fill="#4A75CB"/>
<path d="M923.455 300.572H904.513V319.613H923.455V300.572Z" fill="#699DEE"/>
<path d="M913.051 313.611L906.022 315.022L906.737 318.617L913.765 317.206L913.051 313.611Z" fill="#EBF2F9"/>
<path d="M907.926 305.44H901.079L901.378 304.625L901.079 303.767H907.862L907.457 304.668L907.926 305.44Z" fill="#EBF2F9"/>
<path d="M904.513 303.767V305.44H901.079L901.378 304.625L901.079 303.767H904.513Z" fill="#A6C7F9"/>
<path d="M944.701 300.572H925.759V319.613H944.701V300.572Z" fill="#4A75CB"/>
<path d="M950.546 300.572H931.604V319.613H950.546V300.572Z" fill="#699DEE"/>
<path d="M940.14 313.609L933.112 315.021L933.826 318.616L940.854 317.205L940.14 313.609Z" fill="#EBF2F9"/>
<path d="M935.017 305.44H928.169L928.468 304.625L928.169 303.767H934.953L934.547 304.668L935.017 305.44Z" fill="#EBF2F9"/>
<path d="M931.604 303.767V305.44H928.169L928.468 304.625L928.169 303.767H931.604Z" fill="#A6C7F9"/>
<path d="M965.264 270.039H951.441V283.934H965.264V270.039Z" fill="#D86713"/>
<path d="M969.53 270.039H955.708V283.934H969.53V270.039Z" fill="#F1A34F"/>
<path d="M955.708 270.039L951.441 272.634V270.039H955.708Z" fill="#C95C12"/>
<path d="M972.047 272.998H961.168V283.934H972.047V272.998Z" fill="#4A75CB"/>
<path d="M975.417 272.998H964.539V283.934H975.417V272.998Z" fill="#699DEE"/>
<path d="M969.406 280.637L965.369 281.448L965.779 283.508L969.816 282.698L969.406 280.637Z" fill="#EBF2F9"/>
<path d="M966.48 275.893H962.555L962.726 275.421L962.555 274.928H966.458L966.224 275.443L966.48 275.893Z" fill="#EBF2F9"/>
<path d="M964.517 274.928V275.893H962.555L962.726 275.421L962.555 274.928H964.517Z" fill="#A6C7F9"/>
<path d="M958.033 273.084H953.383L953.575 272.527L953.383 271.948H957.99L957.691 272.548L958.033 273.084Z" fill="#FFD5AB"/>
<path d="M955.708 271.948V273.084H953.383L953.575 272.527L953.383 271.948H955.708Z" fill="#C95C12"/>
<path d="M958.033 281.468H953.383L953.575 280.91L953.383 280.331H957.99L957.691 280.932L958.033 281.468Z" fill="#FFD5AB"/>
<path d="M955.708 280.331V281.468H953.383L953.575 280.91L953.383 280.331H955.708Z" fill="#C95C12"/>
<path d="M982.371 294.269L976.548 319.698H992.631L998.455 294.269H982.371Z" fill="#699DEE"/>
<path d="M971.94 294.269L966.117 319.698H982.201L988.024 294.269H971.94Z" fill="white"/>
<path d="M976.378 307.884V318.927C976.378 319.334 976.036 319.677 975.631 319.677L957.35 319.698C956.924 319.698 956.604 319.355 956.604 318.948V307.905C956.604 307.477 956.945 307.155 957.35 307.155L975.631 307.134C976.036 307.112 976.378 307.455 976.378 307.884Z" fill="#F1A34F"/>
<path d="M976.377 307.884V308.206L966.48 313.416L956.582 307.905C956.582 307.477 956.923 307.155 957.329 307.155L975.609 307.134C976.036 307.112 976.377 307.455 976.377 307.884Z" fill="#D86713"/>
<path d="M974.948 317.812H971.514C971.343 317.812 971.215 317.94 971.215 318.112C971.215 318.283 971.343 318.412 971.514 318.412H974.948C975.119 318.412 975.247 318.283 975.247 318.112C975.268 317.94 975.119 317.812 974.948 317.812Z" fill="#D86713"/>
<path d="M973.007 307.798C973.007 307.369 972.666 307.048 972.261 307.048L953.98 307.069C953.553 307.069 953.233 307.412 953.233 307.82V318.862C953.233 319.27 953.575 319.613 953.98 319.613L972.261 319.591C972.687 319.591 973.007 319.248 973.007 318.841V307.798Z" fill="#F1A34F"/>
<path d="M973.007 307.798V308.12L963.109 313.33L953.212 307.82C953.212 307.391 953.553 307.069 953.958 307.069L972.239 307.048C972.666 307.026 973.007 307.369 973.007 307.798Z" fill="#D86713"/>
<path d="M971.578 317.726H968.144C967.973 317.726 967.845 317.854 967.845 318.026C967.845 318.198 967.973 318.326 968.144 318.326H971.578C971.748 318.326 971.876 318.198 971.876 318.026C971.898 317.854 971.748 317.726 971.578 317.726Z" fill="#D86713"/>
<path d="M1208.46 484.864H247.136C246.838 484.864 246.603 484.628 246.603 484.328V484.285C246.603 483.985 246.838 483.749 247.136 483.749H1208.46C1208.76 483.749 1208.99 483.985 1208.99 484.285V484.328C1208.99 484.628 1208.76 484.864 1208.46 484.864Z" fill="#283250"/>
</svg>
