<svg width="1536" height="722" viewBox="0 0 1536 722" fill="none" xmlns="http://www.w3.org/2000/svg">
<g clip-path="url(#clip0_367_14752)">
<rect width="1536" height="722" fill="#A6C7F9"/>
<path d="M1302.93 729.009C1302.93 729.009 1667.83 769.003 1547.75 670.045C1624.43 566.073 1466.88 487.222 1346.05 501.915C1082.73 533.936 1086.01 61.1781 729.149 330.063C634.743 401.199 507.473 273.619 353.411 431.088C317.388 467.878 97.3532 396.78 -12.1515 425.894C-226.484 482.88 -128.467 729.978 24.6509 730.947C177.81 731.917 1302.93 729.009 1302.93 729.009Z" fill="white"/>
<path d="M1513.24 336.943V320H1528.99V442.837" stroke="#808080" stroke-miterlimit="10"/>
<path d="M1513.24 596.085V341.613" stroke="#808080" stroke-miterlimit="10"/>
<path d="M1528.99 447.507V730H1513.24V602.384" stroke="#808080" stroke-miterlimit="10"/>
<path d="M1430.7 327.494V320H1446.45V326.082" stroke="#808080" stroke-miterlimit="10"/>
<path d="M1430.7 459.563V454.567" stroke="#808080" stroke-miterlimit="10"/>
<path d="M1446.45 715.338V730H1430.7V660.924" stroke="#808080" stroke-miterlimit="10"/>
<path d="M1446.45 660.707V709.907" stroke="#808080" stroke-miterlimit="10"/>
<path d="M1270.07 701.11V660.924" stroke="#808080" stroke-miterlimit="10"/>
<path d="M1285.93 660.707V730H1270.07V707.844" stroke="#808080" stroke-miterlimit="10"/>
<path d="M1446.45 453.264V459.346" stroke="#808080" stroke-miterlimit="10"/>
<path d="M1384.33 454.024H1513.24V436.646H1220" stroke="#808080" stroke-miterlimit="10"/>
<path d="M1282.67 454.024H1380.2" stroke="#808080" stroke-miterlimit="10"/>
<path d="M1269.2 454.024H1278.43" stroke="#808080" stroke-miterlimit="10"/>
<path d="M1220 454.024H1264.2" stroke="#808080" stroke-miterlimit="10"/>
<path d="M1503.8 618.458H1471.1V643.764H1503.8V618.458Z" stroke="#808080" stroke-miterlimit="10"/>
<path d="M1424.19 618.458H1391.49V643.764H1424.19V618.458Z" stroke="#808080" stroke-miterlimit="10"/>
<path d="M1344.57 618.458H1250.08V643.764H1344.57V618.458Z" stroke="#808080" stroke-miterlimit="10"/>
<path d="M1344.57 618.458H1316.99V643.764H1344.57V618.458Z" stroke="#808080" stroke-miterlimit="10"/>
<path d="M1506.51 613.353H1235.21V618.458H1506.51V613.353Z" stroke="#808080" stroke-miterlimit="10"/>
<path d="M1506.51 613.353H1305.48V618.458H1506.51V613.353Z" stroke="#808080" stroke-miterlimit="10"/>
<path d="M1335.23 609.661H1238.79V613.571H1335.23V609.661Z" stroke="#808080" stroke-miterlimit="10"/>
<path d="M1376.07 609.661H1356.3V613.245H1376.07V609.661Z" stroke="#808080" stroke-miterlimit="10"/>
<path d="M1416.91 609.661H1397.14V613.245H1416.91V609.661Z" stroke="#808080" stroke-miterlimit="10"/>
<path d="M1457.75 609.661H1437.98V613.245H1457.75V609.661Z" stroke="#808080" stroke-miterlimit="10"/>
<path d="M1498.58 609.661H1478.82V613.245H1498.58V609.661Z" stroke="#808080" stroke-miterlimit="10"/>
<path d="M1344.57 643.764H1391.49" stroke="#808080" stroke-miterlimit="10"/>
<path d="M1424.19 643.764H1471.1" stroke="#808080" stroke-miterlimit="10"/>
<path d="M1316.66 613.354V609.769" stroke="#808080" stroke-miterlimit="10"/>
<path d="M1335.23 609.661H1356.3" stroke="#808080" stroke-miterlimit="10"/>
<path d="M1376.07 609.661H1397.14" stroke="#808080" stroke-miterlimit="10"/>
<path d="M1416.91 609.661H1437.98" stroke="#808080" stroke-miterlimit="10"/>
<path d="M1457.75 609.661H1478.82" stroke="#808080" stroke-miterlimit="10"/>
<path d="M1240.74 661.033H1513.24V643.656H1220" stroke="#808080" stroke-miterlimit="10"/>
<path d="M1220 661.033H1235.75" stroke="#808080" stroke-miterlimit="10"/>
<path d="M1499.34 459.454H1409.2V534.394H1499.34V459.454Z" stroke="#808080" stroke-miterlimit="10"/>
<path d="M1499.34 459.454H1426.79V534.394H1499.34V459.454Z" stroke="#808080" stroke-miterlimit="10"/>
<path d="M1471.54 465.428H1456.33C1454.92 465.428 1453.73 464.233 1453.73 462.821C1453.73 461.409 1454.92 460.214 1456.33 460.214H1471.54C1472.95 460.214 1474.15 461.409 1474.15 462.821C1474.25 464.233 1473.06 465.428 1471.54 465.428Z" stroke="#808080" stroke-miterlimit="10"/>
<path d="M1499.34 534.395H1409.2V609.335H1499.34V534.395Z" stroke="#808080" stroke-miterlimit="10"/>
<path d="M1499.34 534.395H1426.79V609.335H1499.34V534.395Z" stroke="#808080" stroke-miterlimit="10"/>
<path d="M1471.54 540.368H1456.33C1454.92 540.368 1453.73 539.173 1453.73 537.761C1453.73 536.349 1454.92 535.155 1456.33 535.155H1471.54C1472.95 535.155 1474.15 536.349 1474.15 537.761C1474.25 539.173 1473.06 540.368 1471.54 540.368Z" stroke="#808080" stroke-miterlimit="10"/>
<path d="M1394.86 534.395H1304.72V609.335H1394.86V534.395Z" stroke="#808080" stroke-miterlimit="10"/>
<path d="M1394.97 534.395H1322.42V609.335H1394.97V534.395Z" stroke="#808080" stroke-miterlimit="10"/>
<path d="M1367.17 540.368H1351.96C1350.55 540.368 1349.35 539.173 1349.35 537.761C1349.35 536.349 1350.55 535.155 1351.96 535.155H1367.17C1368.58 535.155 1369.77 536.349 1369.77 537.761C1369.77 539.173 1368.58 540.368 1367.17 540.368Z" stroke="#808080" stroke-miterlimit="10"/>
<path d="M1503.8 411.123H1471.1V436.429H1503.8V411.123Z" stroke="#808080" stroke-miterlimit="10"/>
<path d="M1424.19 411.123H1391.49V436.429H1424.19V411.123Z" stroke="#808080" stroke-miterlimit="10"/>
<path d="M1344.57 411.123H1250.08V436.429H1344.57V411.123Z" stroke="#808080" stroke-miterlimit="10"/>
<path d="M1344.57 411.123H1316.99V436.429H1344.57V411.123Z" stroke="#808080" stroke-miterlimit="10"/>
<path d="M1506.51 406.018H1235.21V411.123H1506.51V406.018Z" stroke="#808080" stroke-miterlimit="10"/>
<path d="M1506.51 406.018H1305.48V411.123H1506.51V406.018Z" stroke="#808080" stroke-miterlimit="10"/>
<path d="M1265.07 402.326H1238.79V406.127H1335.23V402.326H1269.42" stroke="#808080" stroke-miterlimit="10"/>
<path d="M1376.07 402.326H1356.3V405.91H1376.07V402.326Z" stroke="#808080" stroke-miterlimit="10"/>
<path d="M1416.91 402.326H1397.14V405.91H1416.91V402.326Z" stroke="#808080" stroke-miterlimit="10"/>
<path d="M1457.75 402.326H1437.98V405.91H1457.75V402.326Z" stroke="#808080" stroke-miterlimit="10"/>
<path d="M1498.58 402.326H1478.82V405.91H1498.58V402.326Z" stroke="#808080" stroke-miterlimit="10"/>
<path d="M1344.57 436.429H1391.49" stroke="#808080" stroke-miterlimit="10"/>
<path d="M1424.19 436.429H1471.1" stroke="#808080" stroke-miterlimit="10"/>
<path d="M1316.66 406.019V402.434" stroke="#808080" stroke-miterlimit="10"/>
<path d="M1335.23 402.326H1356.3" stroke="#808080" stroke-miterlimit="10"/>
<path d="M1376.07 402.326H1397.14" stroke="#808080" stroke-miterlimit="10"/>
<path d="M1416.91 402.326H1437.98" stroke="#808080" stroke-miterlimit="10"/>
<path d="M1457.75 402.326H1478.82" stroke="#808080" stroke-miterlimit="10"/>
<path d="M1499.34 327.06H1409.2V402H1499.34V327.06Z" stroke="#808080" stroke-miterlimit="10"/>
<path d="M1426.79 376.803V327.06H1499.34V402H1426.79V383.102" stroke="#808080" stroke-miterlimit="10"/>
<path d="M1471.54 333.033H1456.33C1454.92 333.033 1453.73 331.838 1453.73 330.426C1453.73 329.014 1454.92 327.82 1456.33 327.82H1471.54C1472.95 327.82 1474.15 329.014 1474.15 330.426C1474.25 331.838 1473.06 333.033 1471.54 333.033Z" stroke="#808080" stroke-miterlimit="10"/>
<path d="M1394.97 359.86V402H1304.72V327.06H1394.97V355.189" stroke="#808080" stroke-miterlimit="10"/>
<path d="M1394.97 359.86V402H1322.42V327.06H1394.97V352.04" stroke="#808080" stroke-miterlimit="10"/>
<path d="M1367.17 333.033H1351.96C1350.55 333.033 1349.35 331.838 1349.35 330.426C1349.35 329.014 1350.55 327.82 1351.96 327.82H1367.17C1368.58 327.82 1369.77 329.014 1369.77 330.426C1369.77 331.838 1368.58 333.033 1367.17 333.033Z" stroke="#808080" stroke-miterlimit="10"/>
<path d="M1483.92 661.142L1513.46 681.343" stroke="#808080" stroke-miterlimit="10"/>
<path d="M1513.35 696.548L1461.76 661.25" stroke="#808080" stroke-miterlimit="10"/>
<path d="M1401.05 661.142L1430.48 681.343" stroke="#808080" stroke-miterlimit="10"/>
<path d="M1430.48 696.548L1378.9 661.25" stroke="#808080" stroke-miterlimit="10"/>
<path d="M106.748 341.943V325H91V447.837" stroke="#808080" stroke-miterlimit="10"/>
<path d="M106.748 601.085V346.613" stroke="#808080" stroke-miterlimit="10"/>
<path d="M91 452.507V735H106.748V607.384" stroke="#808080" stroke-miterlimit="10"/>
<path d="M189.29 332.494V325H173.542V331.082" stroke="#808080" stroke-miterlimit="10"/>
<path d="M189.29 464.563V459.567" stroke="#808080" stroke-miterlimit="10"/>
<path d="M173.542 720.338V735H189.29V665.924" stroke="#808080" stroke-miterlimit="10"/>
<path d="M173.542 665.707V714.907" stroke="#808080" stroke-miterlimit="10"/>
<path d="M349.922 706.11V665.924" stroke="#808080" stroke-miterlimit="10"/>
<path d="M334.065 665.707V735H349.922V712.843" stroke="#808080" stroke-miterlimit="10"/>
<path d="M173.542 458.264V464.346" stroke="#808080" stroke-miterlimit="10"/>
<path d="M235.666 459.024H106.748V441.646H399.99" stroke="#808080" stroke-miterlimit="10"/>
<path d="M337.323 459.024H239.793" stroke="#808080" stroke-miterlimit="10"/>
<path d="M350.791 459.024H341.559" stroke="#808080" stroke-miterlimit="10"/>
<path d="M399.99 459.024H355.787" stroke="#808080" stroke-miterlimit="10"/>
<path d="M116.197 623.458H148.888V648.764H116.197V623.458Z" stroke="#808080" stroke-miterlimit="10"/>
<path d="M195.807 623.458H228.498V648.764H195.807V623.458Z" stroke="#808080" stroke-miterlimit="10"/>
<path d="M275.416 623.458H369.906V648.764H275.416V623.458Z" stroke="#808080" stroke-miterlimit="10"/>
<path d="M275.417 623.458H303.003V648.764H275.417V623.458Z" stroke="#808080" stroke-miterlimit="10"/>
<path d="M113.482 618.353H384.785V623.458H113.482V618.353Z" stroke="#808080" stroke-miterlimit="10"/>
<path d="M113.482 618.353H314.515V623.458H113.482V618.353Z" stroke="#808080" stroke-miterlimit="10"/>
<path d="M284.757 614.661H381.201V618.571H284.757V614.661Z" stroke="#808080" stroke-miterlimit="10"/>
<path d="M243.92 614.661H263.687V618.245H243.92V614.661Z" stroke="#808080" stroke-miterlimit="10"/>
<path d="M203.084 614.661H222.85V618.245H203.084V614.661Z" stroke="#808080" stroke-miterlimit="10"/>
<path d="M162.247 614.661H182.014V618.245H162.247V614.661Z" stroke="#808080" stroke-miterlimit="10"/>
<path d="M121.41 614.661H141.177V618.245H121.41V614.661Z" stroke="#808080" stroke-miterlimit="10"/>
<path d="M275.417 648.764H228.498" stroke="#808080" stroke-miterlimit="10"/>
<path d="M195.807 648.764H148.888" stroke="#808080" stroke-miterlimit="10"/>
<path d="M303.329 618.353V614.769" stroke="#808080" stroke-miterlimit="10"/>
<path d="M284.757 614.661H263.687" stroke="#808080" stroke-miterlimit="10"/>
<path d="M243.92 614.661H222.85" stroke="#808080" stroke-miterlimit="10"/>
<path d="M203.084 614.661H182.014" stroke="#808080" stroke-miterlimit="10"/>
<path d="M162.247 614.661H141.177" stroke="#808080" stroke-miterlimit="10"/>
<path d="M379.246 666.033H106.748V648.655H399.99" stroke="#808080" stroke-miterlimit="10"/>
<path d="M399.99 666.033H384.242" stroke="#808080" stroke-miterlimit="10"/>
<path d="M120.65 464.454H210.795V539.394H120.65V464.454Z" stroke="#808080" stroke-miterlimit="10"/>
<path d="M120.65 464.454H193.2V539.394H120.65V464.454Z" stroke="#808080" stroke-miterlimit="10"/>
<path d="M148.454 470.427H163.659C165.071 470.427 166.265 469.233 166.265 467.821C166.265 466.409 165.071 465.214 163.659 465.214H148.454C147.042 465.214 145.847 466.409 145.847 467.821C145.738 469.233 146.933 470.427 148.454 470.427Z" stroke="#808080" stroke-miterlimit="10"/>
<path d="M120.65 539.395H210.795V614.335H120.65V539.395Z" stroke="#808080" stroke-miterlimit="10"/>
<path d="M120.65 539.395H193.2V614.335H120.65V539.395Z" stroke="#808080" stroke-miterlimit="10"/>
<path d="M148.454 545.368H163.659C165.071 545.368 166.265 544.173 166.265 542.762C166.265 541.35 165.071 540.155 163.659 540.155H148.454C147.042 540.155 145.847 541.35 145.847 542.762C145.738 544.173 146.933 545.368 148.454 545.368Z" stroke="#808080" stroke-miterlimit="10"/>
<path d="M225.131 539.395H315.276V614.335H225.131V539.395Z" stroke="#808080" stroke-miterlimit="10"/>
<path d="M225.022 539.395H297.573V614.335H225.022V539.395Z" stroke="#808080" stroke-miterlimit="10"/>
<path d="M252.826 545.368H268.031C269.443 545.368 270.638 544.173 270.638 542.762C270.638 541.35 269.443 540.155 268.031 540.155H252.826C251.414 540.155 250.22 541.35 250.22 542.762C250.22 544.173 251.414 545.368 252.826 545.368Z" stroke="#808080" stroke-miterlimit="10"/>
<path d="M116.197 416.123H148.888V441.429H116.197V416.123Z" stroke="#808080" stroke-miterlimit="10"/>
<path d="M195.807 416.123H228.498V441.429H195.807V416.123Z" stroke="#808080" stroke-miterlimit="10"/>
<path d="M275.416 416.123H369.906V441.429H275.416V416.123Z" stroke="#808080" stroke-miterlimit="10"/>
<path d="M275.417 416.123H303.003V441.429H275.417V416.123Z" stroke="#808080" stroke-miterlimit="10"/>
<path d="M113.482 411.019H384.785V416.123H113.482V411.019Z" stroke="#808080" stroke-miterlimit="10"/>
<path d="M113.482 411.019H314.515V416.123H113.482V411.019Z" stroke="#808080" stroke-miterlimit="10"/>
<path d="M354.918 407.326H381.201V411.127H284.757V407.326H350.573" stroke="#808080" stroke-miterlimit="10"/>
<path d="M243.92 407.326H263.687V410.91H243.92V407.326Z" stroke="#808080" stroke-miterlimit="10"/>
<path d="M203.084 407.326H222.85V410.91H203.084V407.326Z" stroke="#808080" stroke-miterlimit="10"/>
<path d="M162.247 407.326H182.014V410.91H162.247V407.326Z" stroke="#808080" stroke-miterlimit="10"/>
<path d="M121.41 407.326H141.177V410.91H121.41V407.326Z" stroke="#808080" stroke-miterlimit="10"/>
<path d="M275.417 441.429H228.498" stroke="#808080" stroke-miterlimit="10"/>
<path d="M195.807 441.429H148.888" stroke="#808080" stroke-miterlimit="10"/>
<path d="M303.329 411.019V407.435" stroke="#808080" stroke-miterlimit="10"/>
<path d="M284.757 407.326H263.687" stroke="#808080" stroke-miterlimit="10"/>
<path d="M243.92 407.326H222.85" stroke="#808080" stroke-miterlimit="10"/>
<path d="M203.084 407.326H182.014" stroke="#808080" stroke-miterlimit="10"/>
<path d="M162.247 407.326H141.177" stroke="#808080" stroke-miterlimit="10"/>
<path d="M120.65 332.059H210.795V407H120.65V332.059Z" stroke="#808080" stroke-miterlimit="10"/>
<path d="M193.2 381.803V332.06H120.65V407H193.2V388.102" stroke="#808080" stroke-miterlimit="10"/>
<path d="M148.454 338.033H163.659C165.071 338.033 166.265 336.838 166.265 335.427C166.265 334.015 165.071 332.82 163.659 332.82H148.454C147.042 332.82 145.847 334.015 145.847 335.427C145.738 336.838 146.933 338.033 148.454 338.033Z" stroke="#808080" stroke-miterlimit="10"/>
<path d="M225.022 364.859V407H315.276V332.059H225.022V360.189" stroke="#808080" stroke-miterlimit="10"/>
<path d="M225.022 364.86V407H297.573V332.06H225.022V357.04" stroke="#808080" stroke-miterlimit="10"/>
<path d="M252.826 338.033H268.031C269.443 338.033 270.638 336.838 270.638 335.427C270.638 334.015 269.443 332.82 268.031 332.82H252.826C251.414 332.82 250.22 334.015 250.22 335.427C250.22 336.838 251.414 338.033 252.826 338.033Z" stroke="#808080" stroke-miterlimit="10"/>
<path d="M136.072 666.142L106.531 686.343" stroke="#808080" stroke-miterlimit="10"/>
<path d="M106.64 701.548L158.228 666.25" stroke="#808080" stroke-miterlimit="10"/>
<path d="M218.94 666.142L189.508 686.343" stroke="#808080" stroke-miterlimit="10"/>
<path d="M189.508 701.548L241.096 666.25" stroke="#808080" stroke-miterlimit="10"/>
<path d="M1070.38 468.345H961.96V731.414H1070.38V468.345Z" fill="#A6C7F9"/>
<path d="M981.2 468.345H961.874V731.414H981.2V468.345Z" fill="#699DEE"/>
<path d="M1094.36 468.345H985.936V731.414H1094.36V468.345Z" fill="#D2E4FF"/>
<path d="M1090.76 468.345H1070.64V731.414H1090.76V468.345Z" fill="#A6C7F9"/>
<path d="M879.452 728.669C879.281 730.899 876.145 730.899 872.583 730.47C869.021 730.02 858.313 729.334 858.078 728.626C857.865 727.983 860.275 727.468 862.835 726.868C863.155 726.782 863.475 726.718 863.816 726.632C866.717 725.924 869.213 724.338 871.133 721.872C873.287 719.085 875.271 706.434 875.271 706.434L883.057 707.892C883.057 707.892 878.534 718.742 878.065 722.301C877.852 723.909 878.982 724.96 879.26 726.353C879.366 727.104 879.516 727.876 879.452 728.669Z" fill="#B77446"/>
<path d="M872.498 715.525C872.498 715.525 874.546 716.876 876.444 717.241C879.324 717.777 880.646 717.176 880.646 717.176C880.646 717.176 894.469 682.291 893.679 670.498C893.658 670.219 893.658 669.919 893.637 669.597C893.615 667.56 893.914 664.816 894.405 661.685C894.597 660.527 894.81 659.327 895.045 658.083C895.599 655.167 896.282 652.036 897.028 648.842C897.37 647.426 897.711 646.011 898.052 644.596C901.529 630.638 905.774 616.893 905.774 616.893C905.774 616.893 880.838 608.703 879.409 616.357C878.876 619.295 877.063 631.045 877.873 649.035C878.534 663.508 878.108 674.786 876.871 687.887C875.825 699.401 873.948 709.286 872.498 715.525Z" fill="#365DA4"/>
<path d="M893.658 669.597C893.637 667.56 893.935 664.816 894.426 661.685C894.618 660.527 894.831 659.327 895.066 658.083C895.62 655.167 896.303 652.036 897.05 648.842C897.391 647.426 897.732 646.011 898.074 644.596C897.583 640.329 897.178 637.413 897.178 637.413C897.178 637.413 886.853 651.565 893.658 669.597Z" fill="#285493"/>
<path d="M910.915 728.669C910.744 730.899 907.608 730.899 904.046 730.47C900.484 730.02 889.776 729.334 889.541 728.626C889.328 727.983 891.738 727.468 894.298 726.868C894.618 726.782 894.938 726.718 895.279 726.632C898.18 725.924 900.1 723.759 902.596 721.872C904.963 720.092 903.3 711.451 903.3 711.451L910.616 708.835C910.616 708.835 909.507 717.541 909.507 722.322C909.507 723.93 910.424 724.981 910.701 726.375C910.829 727.104 910.979 727.876 910.915 728.669Z" fill="#B77446"/>
<path d="M890.778 614.17C890.778 614.17 898.884 654.824 900.271 676.952C901.657 699.079 903.364 717.391 903.364 717.391C903.364 717.391 905.134 718.034 907.161 717.905C909.315 717.777 911 717.112 911 717.112C911 717.112 919.042 683.813 916.375 670.498C913.709 657.161 915.928 644.875 917.207 633.832C919.042 617.987 911.981 610.611 907.054 605.594C902.084 600.533 890.778 614.17 890.778 614.17Z" fill="#365DA4"/>
<path d="M885.04 539.703C884.23 533.078 886.299 522.486 899.439 524.179C912.579 525.873 916.717 538.846 914.072 544.635C911.427 550.403 917.89 551.796 919.916 558.014C921.666 563.353 922.263 569.979 925.1 572.938C934.208 582.522 916.354 597.253 905.603 594.144C886.022 588.483 883.504 587.647 884.187 572.166C884.55 564.233 890.672 561.166 886.789 558.872C877.383 553.34 886.853 554.691 885.04 539.703Z" fill="#AA443E"/>
<path d="M889.008 560.952L892.89 566.806L900.719 566.42L904.345 557.028C904.345 557.028 903.236 556.814 902.702 545.085L892.933 548.087C892.933 548.087 893.445 551.153 892.762 554.477C892.293 556.792 891.226 559.279 889.008 560.952Z" fill="#D9935C"/>
<path d="M887.92 556.814C888.432 556.814 897.626 553.726 910.787 559.108C910.787 559.108 904.537 595.023 907.224 601.863C909.912 608.724 910.936 614.792 910.936 614.792L881.841 615.157C881.841 615.157 882.246 591.635 880.902 583.316C879.558 574.996 887.92 556.814 887.92 556.814Z" fill="#D9935C"/>
<path d="M910.765 599.075C910.595 598.389 910.467 597.767 910.424 597.253C910.04 592.922 910.701 589.384 911.768 585.91C911.789 585.846 911.811 585.803 911.811 585.739C911.832 585.653 911.875 585.503 911.917 585.331C911.917 585.331 911.917 585.331 911.917 585.31C911.96 585.138 912.003 584.945 912.067 584.731C912.088 584.666 912.109 584.581 912.109 584.495C912.856 581.129 914.498 572.659 914.925 571.501C915.074 571.115 915.224 570.451 915.373 569.657C915.821 567.106 916.013 563.053 914.52 561.359C912.451 559.001 905.39 557.307 905.39 557.307C903.961 559.58 899.097 565.112 892.975 564.104C889.435 563.525 888.901 556.621 888.901 556.621C885.104 557.135 884.144 557.736 884.144 557.736C884.144 557.736 875.057 563.439 862.195 581.6C861.79 582.179 860.808 582.115 858.441 581.643C855.412 581.043 849.247 581.129 839.947 579.756C839.947 579.756 839.627 579.992 839.541 581.021C839.349 583.273 839.115 583.937 839.115 583.937C839.115 583.937 845.237 586.832 851.764 588.912C854.068 589.641 856.478 590.327 858.782 590.842C860.915 591.313 862.963 591.656 864.755 591.742C864.755 591.742 872.178 588.869 879.366 580.914C879.793 587.604 880.71 596.245 880.134 602.549C879.814 606.13 877.361 618.223 877.98 620.238C879.26 624.419 889.072 624.634 897.839 624.205C898.031 624.205 898.223 624.184 898.415 624.184C899.78 624.098 901.103 623.991 902.361 623.841C904.707 623.583 906.755 623.24 908.078 622.919C909.784 622.533 911.939 621.954 913.688 621.117C915.032 620.474 916.119 619.659 916.61 618.63C915.8 614.02 911.747 604.093 910.765 599.075Z" fill="#80BDCC"/>
<path d="M891.674 610.675C893.338 616.336 894.298 620.989 898.479 624.141C899.844 624.055 901.167 623.948 902.425 623.798C904.771 623.54 906.819 623.197 908.142 622.876C909.848 622.49 912.003 621.911 913.752 621.074C915.096 620.431 916.183 619.616 916.674 618.587C915.821 614.02 911.768 604.093 910.787 599.075C910.701 598.582 910.616 598.132 910.595 597.746C910.232 593.243 910.808 589.534 911.811 585.91C911.875 585.717 911.917 585.524 911.981 585.331C911.981 585.331 911.981 585.331 911.981 585.31C912.024 585.181 912.067 584.988 912.131 584.731C912.152 584.666 912.173 584.581 912.173 584.495C912.835 581.3 914.584 571.287 915.032 569.979C915.181 569.571 915.33 568.864 915.458 567.985L911.939 564.576C911.939 564.576 891.845 573.195 887.408 585.095C882.993 597.017 889.285 602.549 891.674 610.675Z" fill="#5F9AA8"/>
<path d="M851.828 588.89C856.286 590.306 861.107 591.549 864.797 591.721C864.797 591.721 872.327 588.826 879.558 580.721C879.857 579.349 880.156 577.033 878.492 577.698C876.167 578.641 867.57 589.727 864.328 589.963C862.003 590.134 855.39 589.341 851.828 588.89Z" fill="#5F9AA8"/>
<path d="M867.698 585.717C867.698 585.717 877.596 590.713 886.192 592.793C888.667 593.393 891.056 593.801 893.082 593.908C893.082 593.908 902.51 591.185 909.379 581.129C922.05 562.517 912.493 559.88 912.493 559.88C912.493 559.88 903.406 565.583 890.544 583.745C890.096 584.388 888.965 584.238 886.043 583.637C882.929 582.994 876.7 583.08 868.125 581.815C868.125 581.815 867.976 582.136 867.89 583.166C867.677 585.438 867.698 585.717 867.698 585.717Z" fill="#80BDCC"/>
<path d="M858.505 581.622C855.518 581.043 849.162 581 840.011 579.649C839.307 579.413 838.496 579.113 837.75 578.749C835.787 577.762 830.561 577.098 829.452 578.148C828.343 579.199 830.625 583.466 835.403 583.594C837.067 583.637 838.326 583.766 839.243 583.916C839.755 584.152 845.621 586.896 851.849 588.869C854.153 589.598 856.564 590.284 858.867 590.799C859.763 586.703 859.123 583.487 858.505 581.622Z" fill="#A86337"/>
<path d="M892.762 554.477C896.794 554.155 902.702 545.085 902.702 545.085L892.933 548.087C892.933 548.087 893.466 551.153 892.762 554.477Z" fill="#CC7C46"/>
<path d="M890.373 548.752C890.373 548.752 902.084 551.11 903.428 543.756C904.771 536.401 907.203 531.748 899.78 529.947C892.357 528.125 890.394 530.655 889.349 533.013C888.304 535.351 887.365 547.958 890.373 548.752Z" fill="#D9935C"/>
<path d="M896.09 528.125C896.09 528.125 895.876 530.612 899.737 534.857C903.598 539.081 902.66 546.629 902.66 546.629C902.66 546.629 909.144 534.364 905.689 530.462C902.233 526.538 896.09 528.125 896.09 528.125Z" fill="#AA443E"/>
<path d="M900.804 524.866C900.804 524.866 894.981 522.914 889.2 528.639C886.704 531.105 887.088 535.951 888.411 538.76C888.411 538.76 890.458 532.735 894.191 531.427C897.924 530.097 900.804 524.866 900.804 524.866Z" fill="#AA443E"/>
<path d="M894.021 545.149C894.021 545.149 893.701 546.029 891.504 545.621C891.504 545.621 889.648 545.3 889.818 544.313C889.818 544.313 891.717 543.82 894.021 545.149Z" fill="white"/>
<path d="M854.665 564.897L829.751 565.455L835.467 600.276L860.702 601.091L854.665 564.897Z" fill="#A6C7F9"/>
<path d="M886.192 592.793C884.315 589.041 885.04 585.76 886.022 583.659C882.907 583.016 876.636 582.758 868.061 581.493C868.061 581.493 868.061 581.493 868.061 581.515C867.144 581.279 865.779 580.85 864.541 580.228C862.451 579.177 856.862 578.47 855.689 579.606C854.494 580.721 856.948 585.288 862.046 585.417C864.861 585.503 866.568 585.782 867.528 586.039C868.381 586.403 877.98 590.82 886.192 592.793Z" fill="#B77446"/>
<path d="M716.888 606.923H657.141V666.981H716.888V606.923Z" fill="#4A75CB"/>
<path d="M735.318 606.923H675.57V666.981H735.318V606.923Z" fill="#699DEE"/>
<path d="M772.2 667.003H708.057V731.478H772.2V667.003Z" fill="#D86713"/>
<path d="M791.973 667.003H727.831V731.478H791.973V667.003Z" fill="#F1A34F"/>
<path d="M727.831 667.003L708.057 679.053V667.003H727.831Z" fill="#C95C12"/>
<path d="M1242.44 728.969C1242.25 731.221 1221.02 729.634 1220.79 728.905C1220.58 728.262 1223.01 727.747 1225.61 727.125C1225.93 727.04 1226.27 726.975 1226.59 726.889C1229.54 726.16 1232.07 724.574 1233.99 722.065C1236.19 719.256 1238.17 706.413 1238.17 706.413L1246.05 707.892C1246.05 707.892 1241.46 718.892 1240.99 722.494C1240.78 724.102 1241.93 725.196 1242.18 726.611C1242.36 727.404 1242.5 728.176 1242.44 728.969Z" fill="#B77446"/>
<path d="M1235.38 715.675C1235.38 715.675 1237.45 717.048 1239.39 717.412C1242.29 717.948 1243.66 717.348 1243.66 717.348C1243.66 717.348 1257.65 682.012 1256.86 670.069C1256.84 669.79 1256.84 669.469 1256.82 669.147C1256.8 667.067 1257.09 664.323 1257.61 661.128C1257.8 659.97 1258.01 658.748 1258.25 657.483C1258.8 654.545 1259.51 651.372 1260.27 648.134C1260.61 646.697 1260.96 645.261 1261.32 643.824C1264.84 629.694 1269.15 615.778 1269.15 615.778C1269.15 615.778 1243.87 607.481 1242.44 615.242C1241.89 618.223 1240.07 630.123 1240.88 648.327C1241.54 662.993 1241.12 674.422 1239.86 687.673C1238.75 699.315 1236.87 709.35 1235.38 715.675Z" fill="#365DA4"/>
<path d="M1256.82 669.147C1256.8 667.067 1257.09 664.323 1257.61 661.128C1257.8 659.97 1258.01 658.748 1258.25 657.483C1258.8 654.545 1259.51 651.372 1260.27 648.134C1260.61 646.697 1260.96 645.261 1261.32 643.824C1260.83 639.514 1260.42 636.556 1260.42 636.556C1260.42 636.556 1249.93 650.879 1256.82 669.147Z" fill="#285493"/>
<path d="M1274.31 728.969C1274.12 731.221 1252.89 729.634 1252.66 728.905C1252.44 728.262 1254.88 727.747 1257.48 727.125C1257.8 727.04 1258.14 726.975 1258.46 726.889C1261.4 726.16 1263.34 723.973 1265.86 722.065C1268.25 720.264 1266.59 711.494 1266.59 711.494L1273.99 708.836C1273.99 708.836 1272.88 717.648 1272.88 722.494C1272.88 724.124 1273.82 725.196 1274.07 726.611C1274.22 727.404 1274.37 728.176 1274.31 728.969Z" fill="#B77446"/>
<path d="M1253.92 613.013C1253.92 613.013 1262.13 654.202 1263.52 676.609C1264.9 699.015 1266.63 717.584 1266.63 717.584C1266.63 717.584 1268.42 718.227 1270.49 718.12C1272.67 717.991 1274.39 717.326 1274.39 717.326C1274.39 717.326 1282.54 683.599 1279.83 670.112C1277.12 656.604 1279.39 644.167 1280.69 632.975C1282.54 616.915 1275.4 609.453 1270.41 604.372C1265.37 599.183 1253.92 613.013 1253.92 613.013Z" fill="#365DA4"/>
<path d="M1248.09 537.581C1247.28 530.869 1249.35 520.148 1262.66 521.864C1275.97 523.579 1280.17 536.723 1277.49 542.576C1274.8 548.43 1281.35 549.824 1283.42 556.128C1285.19 561.531 1285.81 568.242 1288.66 571.244C1297.88 580.957 1279.81 595.881 1268.93 592.729C1249.1 587.004 1246.54 586.146 1247.24 570.472C1247.6 562.453 1253.81 559.344 1249.86 557.007C1240.33 551.389 1249.95 552.74 1248.09 537.581Z" fill="#163560"/>
<path d="M1256.09 546.072C1256.09 546.072 1257.61 554.927 1252.12 559.108L1256.07 565.047L1264.01 564.661L1267.67 555.141C1267.67 555.141 1266.54 554.927 1266.01 543.048L1256.09 546.072Z" fill="#A86337"/>
<path d="M1253.51 546.758C1253.51 546.758 1265.37 549.159 1266.74 541.697C1268.1 534.257 1270.55 529.54 1263.05 527.696C1255.54 525.852 1253.53 528.425 1252.49 530.784C1251.42 533.164 1250.46 545.943 1253.51 546.758Z" fill="#B77446"/>
<path d="M1251.02 554.927C1251.53 554.927 1260.85 551.796 1274.18 557.243C1274.18 557.243 1267.87 593.608 1270.58 600.555C1273.28 607.502 1274.33 613.656 1274.33 613.656L1244.87 614.02C1244.87 614.02 1245.28 590.199 1243.93 581.772C1242.59 573.345 1251.02 554.927 1251.02 554.927Z" fill="#A86337"/>
<path d="M1274.16 597.703C1273.99 596.996 1273.86 596.374 1273.82 595.859C1273.43 591.464 1274.1 587.883 1275.18 584.388C1275.2 584.323 1275.23 584.281 1275.23 584.216C1275.25 584.131 1275.29 583.98 1275.33 583.809C1275.33 583.809 1275.33 583.809 1275.33 583.787C1275.38 583.616 1275.42 583.423 1275.48 583.187C1275.5 583.123 1275.52 583.037 1275.52 582.951C1276.29 579.542 1277.96 570.965 1278.38 569.786C1278.53 569.4 1278.7 568.735 1278.83 567.921C1279.28 565.348 1279.47 561.231 1277.98 559.515C1275.89 557.135 1268.53 555.356 1268.53 555.356C1267.08 557.65 1262.36 563.311 1256.18 562.281C1252.59 561.681 1252.04 554.691 1252.04 554.691C1248.2 555.227 1247.22 555.806 1247.22 555.806C1247.22 555.806 1238 561.574 1224.99 579.971C1224.59 580.55 1223.61 580.485 1221.19 580.014C1218.14 579.413 1211.89 579.499 1202.47 578.105C1202.47 578.105 1202.15 578.341 1202.06 579.37C1201.87 581.665 1201.63 582.329 1201.63 582.329C1201.63 582.329 1207.84 585.267 1214.43 587.368C1216.76 588.119 1219.21 588.805 1221.54 589.341C1223.71 589.834 1225.78 590.177 1227.57 590.263C1227.57 590.263 1235.1 587.368 1242.38 579.285C1242.8 586.06 1243.74 594.808 1243.17 601.198C1242.85 604.843 1240.35 617.065 1240.99 619.102C1242.29 623.347 1252.23 623.562 1261.1 623.112C1261.3 623.112 1261.49 623.09 1261.68 623.09C1263.07 623.004 1264.41 622.897 1265.67 622.747C1268.04 622.49 1270.11 622.125 1271.45 621.825C1273.18 621.418 1275.35 620.86 1277.12 620.003C1278.49 619.338 1279.6 618.523 1280.09 617.472C1279.26 612.862 1275.14 602.806 1274.16 597.703Z" fill="#80BDCC"/>
<path d="M1259.29 525.852C1259.29 525.852 1259.08 528.382 1262.98 532.67C1266.89 536.959 1265.95 544.592 1265.95 544.592C1265.95 544.592 1272.52 532.177 1269.02 528.21C1265.52 524.222 1259.29 525.852 1259.29 525.852Z" fill="#163560"/>
<path d="M1264.07 522.55C1264.07 522.55 1258.18 520.577 1252.32 526.367C1249.8 528.854 1250.18 533.764 1251.53 536.616C1251.53 536.616 1253.6 530.505 1257.37 529.175C1261.15 527.846 1264.07 522.55 1264.07 522.55Z" fill="#163560"/>
<path d="M1257.2 543.091C1257.2 543.091 1256.88 543.97 1254.64 543.584C1254.64 543.584 1252.76 543.241 1252.94 542.255C1252.96 542.233 1254.86 541.74 1257.2 543.091Z" fill="white"/>
<path d="M1254.81 609.453C1256.5 615.178 1257.48 619.917 1261.7 623.09C1263.09 623.004 1264.43 622.897 1265.69 622.747C1268.06 622.49 1270.13 622.125 1271.47 621.825C1273.2 621.418 1275.38 620.86 1277.15 620.003C1278.51 619.338 1279.62 618.523 1280.11 617.472C1279.26 612.862 1275.14 602.806 1274.16 597.703C1274.05 597.21 1273.99 596.76 1273.97 596.374C1273.6 591.807 1274.18 588.054 1275.18 584.388C1275.25 584.195 1275.29 584.002 1275.35 583.809C1275.35 583.809 1275.35 583.809 1275.35 583.787C1275.4 583.659 1275.44 583.466 1275.5 583.187C1275.52 583.123 1275.55 583.037 1275.55 582.951C1276.23 579.714 1278 569.572 1278.45 568.242C1278.6 567.813 1278.26 565.948 1278.38 565.069L1275.33 562.796C1275.33 562.796 1254.98 571.544 1250.48 583.594C1246.02 595.623 1252.4 601.241 1254.81 609.453Z" fill="#5F9AA8"/>
<path d="M1214.45 587.39C1218.96 588.826 1223.86 590.091 1227.59 590.263C1227.59 590.263 1235.21 587.325 1242.55 579.135C1242.85 577.741 1243.14 575.404 1241.48 576.09C1239.13 577.033 1230.43 588.269 1227.12 588.505C1224.78 588.655 1218.08 587.861 1214.45 587.39Z" fill="#5F9AA8"/>
<path d="M1230.54 584.195C1230.54 584.195 1240.56 589.255 1249.27 591.356C1251.76 591.957 1254.17 592.386 1256.24 592.493C1256.24 592.493 1266.05 589.898 1272.73 579.542C1284.72 560.974 1275.87 558.036 1275.87 558.036C1275.87 558.036 1266.67 563.804 1253.66 582.201C1253.21 582.844 1252.06 582.694 1249.1 582.094C1245.94 581.45 1239.65 581.536 1230.94 580.25C1230.94 580.25 1230.79 580.571 1230.71 581.6C1230.52 583.895 1230.54 584.195 1230.54 584.195Z" fill="#80BDCC"/>
<path d="M1221.22 580.035C1218.19 579.435 1211.75 579.392 1202.49 578.041C1201.76 577.805 1200.95 577.505 1200.18 577.119C1198.2 576.111 1192.91 575.447 1191.78 576.519C1190.65 577.591 1192.97 581.901 1197.79 582.051C1199.48 582.094 1200.76 582.222 1201.7 582.372C1202.21 582.608 1208.16 585.396 1214.45 587.39C1216.78 588.14 1219.23 588.826 1221.56 589.362C1222.5 585.181 1221.86 581.922 1221.22 580.035Z" fill="#A86337"/>
<path d="M1249.27 591.356C1247.37 587.561 1248.09 584.238 1249.1 582.094C1245.94 581.45 1239.6 581.172 1230.9 579.885C1230.9 579.885 1230.9 579.885 1230.9 579.906C1229.96 579.649 1228.58 579.22 1227.34 578.599C1225.23 577.526 1219.57 576.819 1218.36 577.955C1217.14 579.092 1219.64 583.702 1224.78 583.852C1227.64 583.938 1229.36 584.238 1230.35 584.474C1231.22 584.881 1240.97 589.362 1249.27 591.356Z" fill="#B77446"/>
<path d="M566.783 673.714H526.019V714.689H566.783V673.714Z" fill="#D86713"/>
<path d="M579.347 673.714H538.583V714.689H579.347V673.714Z" fill="#F1A34F"/>
<path d="M538.583 673.714L526.019 681.369V673.714H538.583Z" fill="#C95C12"/>
<path d="M546.433 697.643H530.627L531.288 695.799L530.627 693.783H546.284L545.324 695.863L546.433 697.643Z" fill="#FFD5AB"/>
<path d="M538.519 693.783V697.643H530.627L531.288 695.799L530.627 693.783H538.519Z" fill="#C95C12"/>
<path d="M551.894 650.15H528.451V673.714H551.894V650.15Z" fill="#D86713"/>
<path d="M559.125 650.15H535.682V673.714H559.125V650.15Z" fill="#F1A34F"/>
<path d="M535.682 650.15L528.451 654.567V650.15H535.682Z" fill="#C95C12"/>
<path d="M563.412 655.167H544.961V673.714H563.412V655.167Z" fill="#4A75CB"/>
<path d="M569.108 655.167H550.656V673.714H569.108V655.167Z" fill="#699DEE"/>
<path d="M558.971 667.898L552.131 669.27L552.824 672.761L559.664 671.388L558.971 667.898Z" fill="#EBF2F9"/>
<path d="M553.984 659.884H547.308L547.585 659.112L547.308 658.255H553.92L553.515 659.134L553.984 659.884Z" fill="#EBF2F9"/>
<path d="M550.656 658.255V659.884H547.308L547.585 659.112L547.308 658.255H550.656Z" fill="#A6C7F9"/>
<path d="M539.628 655.253H531.757L532.077 654.331L531.757 653.323H539.564L539.074 654.374L539.628 655.253Z" fill="#FFD5AB"/>
<path d="M535.682 653.323V655.253H531.757L532.077 654.331L531.757 653.323H535.682Z" fill="#C95C12"/>
<path d="M539.628 669.49H531.757L532.077 668.568L531.757 667.56H539.564L539.074 668.589L539.628 669.49Z" fill="#FFD5AB"/>
<path d="M535.682 667.56V669.49H531.757L532.077 668.568L531.757 667.56H535.682Z" fill="#C95C12"/>
<path d="M593.084 682.098H560.661V714.689H593.084V682.098Z" fill="#4A75CB"/>
<path d="M603.088 682.098H570.665V714.689H603.088V682.098Z" fill="#699DEE"/>
<path d="M600.381 684.062L592.62 685.62L593.41 689.594L601.17 688.036L600.381 684.062Z" fill="#EBF2F9"/>
<path d="M574.974 687.265H566.185L566.548 686.215L566.185 685.121H574.888L574.355 686.257L574.974 687.265Z" fill="#EBF2F9"/>
<path d="M570.58 685.121V687.265H566.185L566.548 686.215L566.185 685.121H570.58Z" fill="#A6C7F9"/>
<path d="M574.974 711.537H566.185L566.548 710.508L566.185 709.393H574.888L574.355 710.551L574.974 711.537Z" fill="#EBF2F9"/>
<path d="M570.58 709.393V711.537H566.185L566.548 710.508L566.185 709.393H570.58Z" fill="#A6C7F9"/>
<path d="M514.884 721.808C512.431 721.808 510.426 723.802 510.426 726.289C510.426 728.755 512.41 730.77 514.884 730.77C517.338 730.77 519.343 728.776 519.343 726.289C519.321 723.802 517.338 721.808 514.884 721.808Z" fill="#1C468A"/>
<path d="M604.474 721.808C602.021 721.808 600.016 723.802 600.016 726.289C600.016 728.755 602 730.77 604.474 730.77C606.928 730.77 608.933 728.776 608.933 726.289C608.933 723.802 606.928 721.808 604.474 721.808Z" fill="#1C468A"/>
<path d="M613.753 714.689H522.692L486.344 614.899C486.024 613.999 485.17 613.377 484.232 613.356L472.116 612.862C470.815 612.82 469.706 613.827 469.663 615.135C469.599 616.443 470.623 617.558 471.924 617.601L482.461 618.03L517.679 714.689H509.765C508.507 714.689 507.483 715.718 507.483 716.983V719.728C507.483 720.993 508.507 722.022 509.765 722.022H613.775C615.033 722.022 616.057 720.993 616.057 719.728V716.983C616.036 715.718 615.012 714.689 613.753 714.689Z" fill="#1C468A"/>
<path d="M470.495 605.594C470.495 605.594 475.038 608.596 478.515 608.724C482.013 608.853 484.083 612.369 484.573 613.827C485.064 615.285 483.656 617.537 482.589 616.207C480.968 614.192 477.641 615.757 474.462 613.141C471.284 610.504 466.549 608.81 466.549 608.81L470.495 605.594Z" fill="#9E6138"/>
<path d="M430.051 556.256C430.051 556.256 439.8 591.292 447.564 598.346C451.596 602.013 473.929 616.979 475.764 612.219C475.764 612.219 478.515 608.831 476.979 606.837C476.979 606.837 458.208 593.265 456.758 592.364C454.219 590.777 457.355 558.979 450.678 553.49C444.023 548.001 433.763 546.565 430.051 556.256Z" fill="#D88029"/>
<path d="M469.386 730.685C469.386 730.685 468.66 730.706 467.466 730.749H449.057C448.631 730.706 448.332 730.642 448.183 730.556C446.519 729.763 447.287 722.43 447.287 722.43C447.287 722.43 454.433 716.426 455.52 720.886C456.608 725.346 462.56 727.233 465.93 727.704C469.322 728.219 469.386 730.685 469.386 730.685Z" fill="#233862"/>
<path d="M411.259 640.029C414.8 647.298 423.183 657.397 426.297 665.245C427.022 667.089 427.47 668.825 427.47 670.348C427.534 687.93 446.54 722.623 446.54 722.623C448.353 723.802 456.075 721.443 456.075 721.443C456.075 721.443 455.179 713.746 450.742 687.115C448.289 672.428 444.172 650.557 440.951 633.897C440.12 629.608 439.352 625.663 438.69 622.275C437.261 614.964 436.323 610.247 436.323 610.247L428.963 610.375L409.062 610.697C409.104 610.697 400.849 618.652 411.259 640.029Z" fill="#2B478B"/>
<path d="M411.259 640.029C414.8 647.298 423.183 657.397 426.297 665.245C430.691 655.917 437.346 641.723 440.973 633.875C440.141 629.587 439.373 625.642 438.712 622.254C435.853 618.737 432.163 614.213 428.985 610.354L409.083 610.675C409.104 610.697 400.849 618.652 411.259 640.029Z" fill="#233862"/>
<path d="M387.197 730.749H377.215C376.276 730.02 375.487 728.755 375.145 726.997C374.57 723.995 371.135 722.494 370.303 720.071C369.471 717.627 373.055 714.003 373.055 714.003L374.25 712.309L380.478 713.51C380.478 713.51 381.118 717.884 381.075 721.165C381.033 724.467 382.27 727.962 385.214 728.476C387.368 728.841 387.368 730.084 387.197 730.749Z" fill="#233862"/>
<path d="M414.757 683.384C411.024 690.203 383.443 721.894 383.443 721.894C383.443 721.894 374.762 718.935 373.204 713.638C373.204 713.638 389.523 686.708 396.924 675.215C399.036 671.934 400.231 621.761 407.782 612.627C417.253 601.155 434.403 622.919 434.403 622.919C434.403 622.919 429.027 640.458 427.364 645.99C423.673 658.233 417.317 678.688 414.757 683.384Z" fill="#2B478B"/>
<path d="M467.892 608.21C467.892 608.21 472.436 611.211 475.913 611.34C479.411 611.469 481.48 614.985 481.971 616.443C482.461 617.901 481.054 620.153 479.987 618.823C478.366 616.808 475.038 618.373 471.86 615.757C468.682 613.12 463.946 611.426 463.946 611.426L467.892 608.21Z" fill="#AB7041"/>
<path d="M451.404 549.867C454.134 545.3 455.286 542.405 455.286 542.405L448.865 531.084C445.132 541.697 436.472 544.099 436.472 544.099C436.472 544.099 446.583 555.249 454.71 555.806C454.731 555.806 453.835 552.804 451.404 549.867Z" fill="#9C5F33"/>
<path d="M457.59 543.113C457.59 543.113 444.855 540.389 446.668 532.435C448.481 524.48 448.055 518.776 456.267 520.191C464.479 521.585 465.354 524.994 465.397 527.803C465.418 530.591 460.939 543.606 457.59 543.113Z" fill="#AB7041"/>
<path d="M446.519 532.971C446.519 532.971 450.7 523 462.218 525.702C470.111 527.546 468.042 519.484 467.572 518.154C467.572 518.154 461.429 516.997 455.094 515.989C441.805 513.845 445.815 530.977 446.519 532.971Z" fill="#233862"/>
<path d="M457.206 567.578C456.95 571.544 455.755 577.569 454.134 584.259C453.494 586.854 452.811 589.534 452.086 592.236C450.913 596.631 449.676 601.048 448.417 605.208L448.375 605.358C448.289 605.787 448.14 606.237 448.012 606.644C446.903 610.311 445.858 613.72 444.94 616.593C443.191 622.104 443.17 625.191 441.762 625.813C438.946 627.057 427.854 625.728 421.199 622.833C415.589 620.431 407.014 613.184 407.057 609.539C407.099 605.315 412.752 592.579 416.506 577.698C421.135 559.537 431.374 545.021 439.906 542.041C440.546 541.826 441.229 543.177 443.703 545.578C445.986 547.787 448.865 549.159 451.596 549.459L453.217 552.182C455.456 556.063 457.632 561.102 457.206 567.578Z" fill="#E2923D"/>
<path d="M452.107 592.257C452.833 589.534 451.468 594.83 452.107 592.257C450.934 596.652 449.697 601.069 448.439 605.229L448.396 605.379C448.311 605.808 448.161 606.258 448.033 606.666C446.924 610.332 445.879 613.741 444.962 616.615C427.193 593.929 437.261 566.763 437.261 566.763L452.107 592.257Z" fill="#D88029"/>
<path d="M427.214 559.087C427.214 559.087 436.963 594.122 444.727 601.177C448.759 604.843 471.092 619.81 472.927 615.049C472.927 615.049 475.678 611.662 474.142 609.668C474.142 609.668 455.371 596.095 453.921 595.194C451.382 593.608 454.518 561.81 447.841 556.321C441.186 550.853 430.926 549.416 427.214 559.087Z" fill="#E2923D"/>
<path d="M453.558 528.018C453.558 528.018 454.987 525.638 458.805 525.252C458.805 525.252 447.564 525.487 447.116 528.961C446.647 532.435 446.519 532.971 446.519 532.971C446.519 532.971 452.47 533.228 453.558 528.018Z" fill="#233862"/>
<path d="M1175.95 585.76C1175.95 585.76 1169.77 588.655 1163.15 590.756C1160.81 591.485 1158.4 592.171 1156.05 592.707C1153.9 593.2 1151.83 593.543 1150.01 593.586C1150.01 593.586 1149.86 593.543 1149.57 593.393C1147.9 592.664 1141.37 589.577 1135.04 582.565C1134.55 581.986 1134.02 581.386 1133.52 580.764C1133.14 580.314 1132.74 575.961 1132.44 571.416C1132.39 571.373 1132.39 571.373 1132.39 571.373C1132.05 566.034 1131.8 560.352 1131.8 560.352C1131.8 560.352 1140.33 562.646 1152.59 583.402C1152.94 583.98 1153.96 583.895 1156.37 583.444C1159.46 582.865 1165.69 582.908 1175.1 581.536C1175.1 581.536 1175.44 581.772 1175.55 582.801C1175.7 585.074 1175.95 585.76 1175.95 585.76Z" fill="#F4BE61"/>
<path d="M1149.57 593.393C1147.9 592.664 1141.37 589.577 1135.04 582.565C1134.55 581.986 1134.02 581.386 1133.52 580.764C1133.14 580.314 1132.74 575.961 1132.44 571.416C1133.63 572.595 1147.35 585.91 1149.57 593.393Z" fill="#F2A83D"/>
<path d="M1118.72 524.158C1118.72 524.158 1117.93 522.571 1114.03 523C1110.12 523.429 1103.36 524.158 1103.32 545.535C1103.32 547.873 1089.26 569.207 1105.11 589.319L1116.42 560.587L1118.72 524.158Z" fill="#163560"/>
<path d="M1119.85 524.437C1119.85 524.437 1115.69 523.043 1113.49 525.123C1111.3 527.203 1112.53 529.947 1112.53 529.947L1119.85 524.437Z" fill="#C65447"/>
<path d="M1132.99 532.628C1132.99 532.628 1132.91 523.472 1118.14 524.523C1115.63 524.694 1113.35 526.131 1112.21 528.382C1110.55 531.62 1109.83 537.323 1115.2 546.479L1132.99 532.628Z" fill="#163560"/>
<path d="M1114.28 559.537L1117.61 572.531L1127.23 573.002L1132.01 565.841C1127.53 562.453 1126.89 556.514 1126.98 552.997C1126.98 552.954 1126.98 552.933 1126.98 552.89C1127.02 551.239 1127.21 550.124 1127.21 550.124L1120.38 548.044L1115.18 546.457C1115.65 550.424 1115.63 553.276 1115.41 555.291C1115.07 558.465 1114.28 559.537 1114.28 559.537Z" fill="#E49963"/>
<path d="M1104.58 626.735L1139.48 626.692C1139.48 626.692 1135.12 603.321 1137.53 595.666C1139.95 588.011 1137.41 576.819 1137.41 576.819C1133.91 568.499 1133.01 560.716 1131.46 560.309C1130.6 560.073 1129.9 559.623 1129.07 559.451C1115.35 556.707 1104.22 561.702 1104.22 561.702C1101.14 569.421 1107.74 575.211 1108.06 592.643C1108.38 609.775 1104.58 626.735 1104.58 626.735Z" fill="#E49963"/>
<path d="M1141.57 628.343C1141.57 628.343 1114.99 633.832 1099.78 628.15C1098.95 627.807 1102.13 616.357 1104.34 608.51C1105.43 604.65 1106.26 601.648 1106.2 601.262C1105.67 590.584 1103.55 581.493 1102.57 574.439C1102.27 572.573 1102.08 570.922 1102.04 569.357V568.564C1102 566.012 1102.34 563.954 1103.21 562.239C1104.88 559.151 1113.86 559.108 1113.86 559.108C1114.73 560.137 1119.6 563.525 1125.38 563.461C1131.22 563.418 1128.32 559.301 1128.32 559.301C1128.55 559.344 1128.96 559.408 1129.15 559.451C1132.05 560.094 1134.02 561.467 1134.02 561.467C1138.67 566.548 1140.2 591.914 1140.09 592.75C1139.9 595.838 1141.57 628.343 1141.57 628.343Z" fill="#F4BE61"/>
<path d="M1115.41 555.313C1119.55 553.104 1125.95 552.997 1126.98 552.997C1127.06 552.997 1127.13 552.997 1127.13 552.997C1127.13 552.997 1127.08 552.954 1126.98 552.89C1126.29 552.397 1123.22 550.124 1120.38 548.066L1115.18 546.479C1115.67 550.446 1115.63 553.297 1115.41 555.313Z" fill="#D68D5D"/>
<path d="M1129.56 553.19C1129.56 553.19 1114.88 553.855 1114.6 544.742C1114.33 535.608 1112.26 529.561 1121.6 528.747C1130.94 527.932 1132.88 531.362 1133.72 534.386C1134.55 537.388 1133.35 552.783 1129.56 553.19Z" fill="#E49963"/>
<path d="M1128.06 532.327C1128.06 532.327 1134.34 536.637 1133.33 541.633C1133.33 541.633 1136.45 540.004 1136.15 535.222C1135.85 530.462 1131.31 527.181 1127.3 526.924C1123.29 526.667 1120.26 527.01 1120.26 527.01L1128.06 532.327Z" fill="#163560"/>
<path d="M1129.17 530.741C1131.78 532.113 1121.02 533.271 1120.36 537.645C1119.7 542.019 1114.58 543.691 1114.58 543.691C1114.58 543.691 1108.08 519.591 1129.17 530.741Z" fill="#163560"/>
<path d="M1137.68 590.606C1137.68 590.606 1125.97 606.323 1104.34 608.531C1105.43 604.672 1106.26 601.67 1106.2 601.284C1105.67 590.606 1103.55 581.515 1102.57 574.46C1102.27 572.595 1102.08 570.944 1102.04 569.379V568.585C1104.54 569.078 1108.42 571.673 1110.08 572.059C1122.99 575.082 1137.68 590.606 1137.68 590.606Z" fill="#F2A83D"/>
<path d="M1131.31 548.216C1131.31 548.216 1131.2 549.138 1128.94 549.266C1128.94 549.266 1127.04 549.373 1126.98 548.366C1126.98 548.387 1128.73 547.465 1131.31 548.216Z" fill="white"/>
<path d="M1150.78 586.918C1150.78 586.918 1140.76 591.957 1132.05 594.037C1129.56 594.637 1127.15 595.066 1125.08 595.152C1125.08 595.152 1115.71 592.278 1108.59 582.287C1094.79 562.989 1105.45 560.909 1105.45 560.909C1105.45 560.909 1114.67 566.656 1127.68 584.924C1128.13 585.567 1129.28 585.417 1132.24 584.817C1135.4 584.173 1141.69 584.259 1150.4 582.973C1150.4 582.973 1150.55 583.294 1150.63 584.324C1150.78 586.618 1150.78 586.918 1150.78 586.918Z" fill="#F4BE61"/>
<path d="M1175.95 585.76C1175.95 585.76 1169.74 588.676 1163.15 590.756C1160.83 591.506 1158.38 592.193 1156.05 592.707C1155.11 588.547 1155.75 585.31 1156.39 583.444C1159.44 582.844 1165.99 582.801 1175.42 581.429L1175.95 585.76Z" fill="#A86337"/>
<path d="M1173.05 582.008C1173.05 582.008 1175.44 581.536 1177.42 580.55C1179.41 579.563 1184.7 578.899 1185.83 579.949C1186.96 581 1184.63 585.31 1179.81 585.438C1174.97 585.567 1173.58 586.36 1173.58 586.36L1173.05 582.008Z" fill="#A86337"/>
<path d="M1151.02 587.175C1151.02 587.175 1140.76 591.935 1132.05 594.015C1133.97 590.241 1133.23 586.939 1132.22 584.817C1135.38 584.173 1141.72 583.895 1150.42 582.63C1150.42 582.63 1150.53 583.294 1150.61 584.324C1150.78 586.618 1151.02 587.175 1151.02 587.175Z" fill="#B77446"/>
<path d="M1043.32 627.078V626.735H1006.88C1002.36 626.735 998.734 630.316 998.734 634.669C998.734 638.635 1001.68 641.895 1005.56 642.495V731.371H1142.57V627.078H1043.32Z" fill="#AA443E"/>
<path d="M1176.14 572.295H1154.26V594.144H1176.14V572.295Z" fill="#D86713"/>
<path d="M1182.91 572.295H1161.02V594.144H1182.91V572.295Z" fill="#F1A34F"/>
<path d="M1161.02 572.295L1154.26 576.39V572.295H1161.02Z" fill="#C95C12"/>
<path d="M1164.69 577.033H1157.33L1157.65 576.154L1157.33 575.232H1164.63L1164.18 576.197L1164.69 577.033Z" fill="#FFD5AB"/>
<path d="M1161.02 575.232V577.033H1157.33L1157.65 576.154L1157.33 575.232H1161.02Z" fill="#C95C12"/>
<path d="M1164.69 590.22H1157.33L1157.65 589.362L1157.33 588.44H1164.63L1164.18 589.384L1164.69 590.22Z" fill="#FFD5AB"/>
<path d="M1161.02 588.44V590.22H1157.33L1157.65 589.362L1157.33 588.44H1161.02Z" fill="#C95C12"/>
<path d="M1149.29 582.93C1149.29 582.93 1151.83 582.437 1153.96 581.386C1156.07 580.335 1161.72 579.628 1162.94 580.743C1164.13 581.879 1161.66 586.468 1156.52 586.596C1151.36 586.746 1149.89 587.583 1149.89 587.583L1149.29 582.93Z" fill="#B77446"/>
<path d="M1180.58 627.078H1043.57V731.371H1180.58V627.078Z" fill="#C65447"/>
<path d="M1200.8 626.735H1006.9C1002.38 626.735 998.756 630.316 998.756 634.669C998.756 639.064 1002.38 642.602 1006.9 642.602H1200.8C1205.82 642.602 1209.87 639.021 1209.87 634.669C1209.87 630.316 1205.79 626.735 1200.8 626.735Z" fill="#E57970"/>
<path d="M1014.11 580.314H989.519V602.27H1014.11V580.314Z" fill="#8CB3ED"/>
<path d="M1018.59 580.314H993.999V602.27H1018.59V580.314Z" fill="#A6C7F9"/>
<path d="M1052.08 577.012H1021.09V602.27H1052.08V577.012Z" fill="#8CB3ED"/>
<path d="M1057.74 577.012H1026.74V602.27H1057.74V577.012Z" fill="#A6C7F9"/>
<path d="M1030.94 671.184C1030.94 671.184 1020.75 678.817 1018.74 678.345C1016.76 677.874 1026.21 670.112 1026.21 670.112C1022.65 668.396 1011.6 669.468 1011.6 669.468C1011.6 669.468 1007.91 681.39 1006.09 680.447C1004.28 679.503 1009.89 670.047 1009.89 670.047C1005.92 669.812 1001.08 672.77 1001.08 672.77C994.425 678.045 1001.51 686.343 1001.51 686.343C1001.51 686.343 1000.14 690.46 995.94 694.191C995.94 694.191 989.946 698.651 989.519 706.606L990.607 706.713C990.607 706.713 992.356 699.23 995.513 695.735C995.641 695.606 995.791 695.456 995.983 695.263C996.495 694.791 996.836 694.427 997.092 694.169C998.649 692.668 1000.8 690.739 1001.85 690.546C1001.85 690.546 1001.81 690.353 1001.81 690.031C1001.83 690.203 1001.83 690.374 1001.85 690.546C1002.21 694.748 1010.32 698.415 1015.29 699.165C1020.28 699.916 1018.72 697.857 1017.01 694.813C1015.29 691.768 1009.87 690.396 1008.63 688.98C1007.39 687.565 1009.95 687.565 1012.96 688.959C1015.97 690.331 1016.37 694.019 1021.2 696.335C1026.02 698.651 1033.27 690.61 1033.27 690.61C1029.43 690.417 1023.95 686.214 1024.14 684.949C1024.33 683.663 1033.44 687.158 1035 687.329C1036.55 687.501 1040.09 685.55 1040.65 679.246C1041.23 672.942 1030.94 671.184 1030.94 671.184Z" fill="#82B378"/>
<path d="M976.763 675.922C976.763 675.922 988.026 669.576 982.779 660.978C982.779 660.978 978.577 655.681 974.054 654.331C974.054 654.331 976.465 667.174 974.054 667.474C971.644 667.775 972.412 652.98 972.412 652.98C972.412 652.98 960.552 647.233 955.88 647.684C955.88 647.684 963.24 660.227 960.829 659.905C958.419 659.605 950.164 646.912 950.164 646.912C950.164 646.912 938.005 644.639 936.043 651.886C934.08 659.134 937.237 662.757 939.05 663.207C940.863 663.658 952.425 663.508 952.126 665.03C951.828 666.531 944.02 668.954 939.648 667.603C939.648 667.603 944.447 679.525 950.761 678.924C957.075 678.324 959.016 674.4 962.92 674.1C966.823 673.8 969.682 674.85 967.719 675.922C965.757 676.973 959.165 676.265 956.008 678.967C952.851 681.669 950.292 683.32 956.158 684.542C962.024 685.743 972.54 684.992 974.63 680.468C976.763 675.922 976.763 675.922 976.763 675.922Z" fill="#A8D29F"/>
<path d="M979.771 686.943C976.614 681.047 976.763 675.922 976.763 675.922C973.158 664.451 941.61 654.181 941.61 654.181C981.712 670.498 974.652 680.447 974.652 680.447C975.74 681.09 977.361 684.113 978.47 686.429C978.641 686.815 978.875 687.372 979.259 688.101C979.408 688.444 979.536 688.723 979.622 688.916C981.691 694.105 980.603 703.089 980.603 703.089L981.862 703.432C984.635 694.362 979.771 686.943 979.771 686.943Z" fill="#82B378"/>
<path d="M994.681 667.174C994.681 667.174 979.835 658.812 986.768 647.469C986.768 647.469 992.314 640.501 998.244 638.721C998.244 638.721 995.065 655.639 998.244 656.046C1001.42 656.453 1000.42 636.941 1000.42 636.941C1000.42 636.941 1016.06 629.372 1022.2 629.973C1022.2 629.973 1012.49 646.504 1015.67 646.097C1018.85 645.69 1029.73 628.987 1029.73 628.987C1029.73 628.987 1045.77 626.006 1048.35 635.548C1050.93 645.111 1046.77 649.871 1044.38 650.471C1042.01 651.071 1026.76 650.879 1027.15 652.851C1027.55 654.845 1037.83 658.019 1043.59 656.239C1043.59 656.239 1037.26 671.956 1028.94 671.162C1020.62 670.369 1018.04 665.18 1012.9 664.794C1007.76 664.387 1003.98 665.781 1006.56 667.174C1009.14 668.568 1017.85 667.625 1022.01 671.184C1026.17 674.743 1029.54 676.93 1021.81 678.517C1014.09 680.104 1000.23 679.117 997.454 673.135C994.681 667.174 994.681 667.174 994.681 667.174Z" fill="#A8D29F"/>
<path d="M1041.03 638.507C1041.03 638.507 999.438 652.036 994.703 667.174C994.703 667.174 994.895 673.95 990.735 681.712C990.735 681.712 984.315 691.511 987.984 703.411L989.626 702.96C989.626 702.96 988.175 691.146 990.906 684.285C991.012 684.027 991.183 683.663 991.375 683.234C991.866 682.248 992.207 681.54 992.42 681.026C993.914 677.959 996.047 673.993 997.454 673.156C997.454 673.135 988.154 660.013 1041.03 638.507Z" fill="#82B378"/>
<path d="M965.095 700.001C965.095 716.147 978.129 729.248 994.191 729.248C1010.25 729.248 1023.29 716.147 1023.29 700.001H965.095Z" fill="#F1A34F"/>
<path d="M1001.36 729.034C1000.18 729.184 998.969 729.248 997.753 729.248C981.691 729.248 968.658 716.147 968.658 700.001H975.889C975.868 714.925 986.981 727.232 1001.36 729.034Z" fill="#FFB973"/>
<path d="M1023.95 700.001H964.135V700.902H1023.95V700.001Z" fill="#D86713"/>
<path d="M727.085 644.36L721.304 622.618C721.091 621.804 720.237 621.31 719.427 621.525L683.463 631.195C682.652 631.41 682.162 632.267 682.375 633.082L688.156 654.824C688.369 655.639 689.222 656.132 690.033 655.917L725.997 646.247C726.807 646.054 727.298 645.175 727.085 644.36Z" fill="#F1A34F"/>
<path d="M721.304 622.64C721.091 621.825 720.237 621.332 719.427 621.546L683.463 631.217C682.652 631.431 682.162 632.289 682.375 633.103L704.73 638.743L721.475 623.262L721.304 622.64Z" fill="#D86713"/>
<path d="M724.44 643.374C724.354 643.052 724.013 642.838 723.672 642.924L716.931 644.746C716.611 644.832 716.398 645.175 716.483 645.518C716.569 645.84 716.91 646.054 717.251 645.968L723.992 644.146C724.312 644.039 724.525 643.696 724.44 643.374Z" fill="#D86713"/>
<path d="M697.733 667.003H633.591V731.478H697.733V667.003Z" fill="#D86713"/>
<path d="M717.507 667.003H653.365V731.478H717.507V667.003Z" fill="#F1A34F"/>
<path d="M653.365 667.003L633.591 679.053V667.003H653.365Z" fill="#C95C12"/>
<path d="M665.716 704.654H640.844L641.889 701.717L640.844 698.565H665.481L663.966 701.846L665.716 704.654Z" fill="#FFD5AB"/>
<path d="M653.28 698.565V704.654H640.844L641.889 701.717L640.844 698.565H653.28Z" fill="#C95C12"/>
<path d="M808.484 693.655H771.602V730.728H808.484V693.655Z" fill="#D86713"/>
<path d="M819.853 693.655H782.972V730.728H819.853V693.655Z" fill="#F1A34F"/>
<path d="M782.972 693.655L771.602 700.602V693.655H782.972Z" fill="#C95C12"/>
<path d="M826.636 701.545H797.583V730.749H826.636V701.545Z" fill="#4A75CB"/>
<path d="M835.574 701.545H806.521V730.749H835.574V701.545Z" fill="#699DEE"/>
<path d="M819.621 721.583L808.848 723.745L809.943 729.253L820.715 727.091L819.621 721.583Z" fill="#EBF2F9"/>
<path d="M811.747 708.986H801.252L801.7 707.742L801.252 706.413H811.662L811.022 707.806L811.747 708.986Z" fill="#EBF2F9"/>
<path d="M806.5 706.413V708.986H801.252L801.7 707.742L801.252 706.413H806.5Z" fill="#A6C7F9"/>
<path d="M789.179 701.695H776.764L777.298 700.237L776.764 698.651H789.051L788.304 700.28L789.179 701.695Z" fill="#FFD5AB"/>
<path d="M782.972 698.651V701.695H776.764L777.298 700.237L776.764 698.651H782.972Z" fill="#C95C12"/>
<path d="M789.179 724.081H776.764L777.298 722.623L776.764 721.036H789.051L788.304 722.687L789.179 724.081Z" fill="#FFD5AB"/>
<path d="M782.972 721.036V724.081H776.764L777.298 722.623L776.764 721.036H782.972Z" fill="#C95C12"/>
<path d="M739.286 680.382H688.262V731.671H739.286V680.382Z" fill="#4A75CB"/>
<path d="M755.028 680.382H704.005V731.671H755.028V680.382Z" fill="#699DEE"/>
<path d="M750.768 683.492L738.552 685.944L739.792 692.188L752.008 689.737L750.768 683.492Z" fill="#EBF2F9"/>
<path d="M710.767 688.509H696.944L697.52 686.879L696.944 685.142H710.639L709.807 686.944L710.767 688.509Z" fill="#EBF2F9"/>
<path d="M703.855 685.142V688.509H696.944L697.52 686.879L696.944 685.142H703.855Z" fill="#A6C7F9"/>
<path d="M685.34 623.862H665.673L666.505 621.546L665.673 619.059H685.148L683.953 621.654L685.34 623.862Z" fill="#EBF2F9"/>
<path d="M675.506 619.059V623.862H665.673L666.505 621.546L665.673 619.059H675.506Z" fill="#A6C7F9"/>
<path d="M1087.9 495.255H985.872V498.857H1087.9V495.255Z" fill="#91B6ED"/>
<path d="M1094.36 464.936H961.81V468.538H1094.36V464.936Z" fill="#699DEE"/>
<path d="M1087.9 530.934H985.872V534.536H1087.9V530.934Z" fill="#91B6ED"/>
<path d="M1087.9 566.613H985.872V570.215H1087.9V566.613Z" fill="#91B6ED"/>
<path d="M1087.9 602.292H985.872V605.894H1087.9V602.292Z" fill="#91B6ED"/>
<path d="M1018.36 501.816H989.391V530.934H1018.36V501.816Z" fill="#D86713"/>
<path d="M1027.3 501.816H998.329V530.934H1027.3V501.816Z" fill="#F1A34F"/>
<path d="M998.329 501.816L989.391 507.262V501.816H998.329Z" fill="#C95C12"/>
<path d="M1032.61 508.012H1009.81V530.934H1032.61V508.012Z" fill="#4A75CB"/>
<path d="M1039.65 508.012H1016.84V530.934H1039.65V508.012Z" fill="#699DEE"/>
<path d="M1027.12 523.873L1018.65 525.573L1019.51 529.905L1027.98 528.204L1027.12 523.873Z" fill="#EBF2F9"/>
<path d="M1020.94 513.952H1012.71L1013.05 512.987L1012.71 511.936H1020.85L1020.36 513.03L1020.94 513.952Z" fill="#EBF2F9"/>
<path d="M1016.82 511.936V513.952H1012.71L1013.05 512.987L1012.71 511.936H1016.82Z" fill="#A6C7F9"/>
<path d="M1003.21 508.055H993.465L993.871 506.919L993.465 505.675H1003.11L1002.53 506.962L1003.21 508.055Z" fill="#FFD5AB"/>
<path d="M998.329 505.675V508.055H993.465L993.871 506.919L993.465 505.675H998.329Z" fill="#C95C12"/>
<path d="M1003.21 525.637H993.465L993.871 524.501L993.465 523.257H1003.11L1002.53 524.544L1003.21 525.637Z" fill="#FFD5AB"/>
<path d="M998.329 523.257V525.637H993.465L993.871 524.501L993.465 523.257H998.329Z" fill="#C95C12"/>
<path d="M1026.27 472.376H1003.47V495.298H1026.27V472.376Z" fill="#4A75CB"/>
<path d="M1033.31 472.376H1010.51V495.298H1033.31V472.376Z" fill="#699DEE"/>
<path d="M1020.78 488.131L1012.31 489.832L1013.17 494.163L1021.65 492.463L1020.78 488.131Z" fill="#EBF2F9"/>
<path d="M1014.6 478.23H1006.37L1006.71 477.244L1006.37 476.214H1014.54L1014.03 477.286L1014.6 478.23Z" fill="#EBF2F9"/>
<path d="M1010.49 476.214V478.23H1006.37L1006.71 477.244L1006.37 476.214H1010.49Z" fill="#A6C7F9"/>
<path d="M1052.47 479.045H1036.34V495.255H1052.47V479.045Z" fill="#D86713"/>
<path d="M1057.44 479.045H1041.31V495.255H1057.44V479.045Z" fill="#F1A34F"/>
<path d="M1041.31 479.045L1036.34 482.068V479.045H1041.31Z" fill="#C95C12"/>
<path d="M1044.02 482.561H1038.6L1038.84 481.918L1038.6 481.232H1043.98L1043.64 481.939L1044.02 482.561Z" fill="#FFD5AB"/>
<path d="M1041.31 481.232V482.561H1038.6L1038.84 481.918L1038.6 481.232H1041.31Z" fill="#C95C12"/>
<path d="M1044.02 492.339H1038.6L1038.84 491.695L1038.6 491.009H1043.98L1043.64 491.717L1044.02 492.339Z" fill="#FFD5AB"/>
<path d="M1041.31 491.009V492.339H1038.6L1038.84 491.695L1038.6 491.009H1041.31Z" fill="#C95C12"/>
<path d="M1008.61 547.572H989.669V566.613H1008.61V547.572Z" fill="#4A75CB"/>
<path d="M1014.46 547.572H995.513V566.613H1014.46V547.572Z" fill="#699DEE"/>
<path d="M1004.05 560.611L997.022 562.022L997.737 565.617L1004.77 564.206L1004.05 560.611Z" fill="#EBF2F9"/>
<path d="M998.926 552.44H992.079L992.378 551.625L992.079 550.767H998.862L998.457 551.668L998.926 552.44Z" fill="#EBF2F9"/>
<path d="M995.513 550.767V552.44H992.079L992.378 551.625L992.079 550.767H995.513Z" fill="#A6C7F9"/>
<path d="M1035.7 547.572H1016.76V566.613H1035.7V547.572Z" fill="#4A75CB"/>
<path d="M1041.55 547.572H1022.6V566.613H1041.55V547.572Z" fill="#699DEE"/>
<path d="M1031.14 560.609L1024.11 562.021L1024.83 565.616L1031.85 564.205L1031.14 560.609Z" fill="#EBF2F9"/>
<path d="M1026.02 552.44H1019.17L1019.47 551.625L1019.17 550.767H1025.95L1025.55 551.668L1026.02 552.44Z" fill="#EBF2F9"/>
<path d="M1022.6 550.767V552.44H1019.17L1019.47 551.625L1019.17 550.767H1022.6Z" fill="#A6C7F9"/>
<path d="M1056.26 517.039H1042.44V530.934H1056.26V517.039Z" fill="#D86713"/>
<path d="M1060.53 517.039H1046.71V530.934H1060.53V517.039Z" fill="#F1A34F"/>
<path d="M1046.71 517.039L1042.44 519.634V517.039H1046.71Z" fill="#C95C12"/>
<path d="M1063.05 519.998H1052.17V530.934H1063.05V519.998Z" fill="#4A75CB"/>
<path d="M1066.42 519.998H1055.54V530.934H1066.42V519.998Z" fill="#699DEE"/>
<path d="M1060.41 527.637L1056.37 528.448L1056.78 530.508L1060.82 529.698L1060.41 527.637Z" fill="#EBF2F9"/>
<path d="M1057.48 522.893H1053.55L1053.73 522.421L1053.55 521.928H1057.46L1057.22 522.443L1057.48 522.893Z" fill="#EBF2F9"/>
<path d="M1055.52 521.928V522.893H1053.55L1053.73 522.421L1053.55 521.928H1055.52Z" fill="#A6C7F9"/>
<path d="M1049.03 520.084H1044.38L1044.57 519.527L1044.38 518.948H1048.99L1048.69 519.548L1049.03 520.084Z" fill="#FFD5AB"/>
<path d="M1046.71 518.948V520.084H1044.38L1044.57 519.527L1044.38 518.948H1046.71Z" fill="#C95C12"/>
<path d="M1049.03 528.468H1044.38L1044.57 527.91L1044.38 527.331H1048.99L1048.69 527.932L1049.03 528.468Z" fill="#FFD5AB"/>
<path d="M1046.71 527.331V528.468H1044.38L1044.57 527.91L1044.38 527.331H1046.71Z" fill="#C95C12"/>
<path d="M1073.37 541.269L1067.55 566.698H1083.63L1089.45 541.269H1073.37Z" fill="#699DEE"/>
<path d="M1062.94 541.269L1057.12 566.698H1073.2L1079.02 541.269H1062.94Z" fill="white"/>
<path d="M1067.38 554.884V565.926C1067.38 566.334 1067.04 566.677 1066.63 566.677L1048.35 566.698C1047.92 566.698 1047.6 566.355 1047.6 565.948V554.905C1047.6 554.477 1047.95 554.155 1048.35 554.155L1066.63 554.134C1067.04 554.112 1067.38 554.455 1067.38 554.884Z" fill="#F1A34F"/>
<path d="M1067.38 554.884V555.206L1057.48 560.416L1047.58 554.905C1047.58 554.477 1047.92 554.155 1048.33 554.155L1066.61 554.134C1067.04 554.112 1067.38 554.455 1067.38 554.884Z" fill="#D86713"/>
<path d="M1065.95 564.812H1062.51C1062.34 564.812 1062.22 564.94 1062.22 565.112C1062.22 565.283 1062.34 565.412 1062.51 565.412H1065.95C1066.12 565.412 1066.25 565.283 1066.25 565.112C1066.27 564.94 1066.12 564.812 1065.95 564.812Z" fill="#D86713"/>
<path d="M1064.01 554.798C1064.01 554.369 1063.67 554.048 1063.26 554.048L1044.98 554.069C1044.55 554.069 1044.23 554.412 1044.23 554.82V565.862C1044.23 566.27 1044.57 566.613 1044.98 566.613L1063.26 566.591C1063.69 566.591 1064.01 566.248 1064.01 565.841V554.798Z" fill="#F1A34F"/>
<path d="M1064.01 554.798V555.12L1054.11 560.33L1044.21 554.82C1044.21 554.391 1044.55 554.069 1044.96 554.069L1063.24 554.048C1063.67 554.026 1064.01 554.369 1064.01 554.798Z" fill="#D86713"/>
<path d="M1062.58 564.726H1059.14C1058.97 564.726 1058.84 564.854 1058.84 565.026C1058.84 565.198 1058.97 565.326 1059.14 565.326H1062.58C1062.75 565.326 1062.88 565.198 1062.88 565.026C1062.9 564.854 1062.75 564.726 1062.58 564.726Z" fill="#D86713"/>
</g>
<defs>
<clipPath id="clip0_367_14752">
<rect width="1536" height="722" fill="white"/>
</clipPath>
</defs>
</svg>
