<svg width="28" height="28" viewBox="0 0 28 28" fill="none" xmlns="http://www.w3.org/2000/svg">
<path fill-rule="evenodd" clip-rule="evenodd" d="M4.66669 3.50001C4.66669 3.19059 4.7896 2.89384 5.0084 2.67505C5.22719 2.45626 5.52393 2.33334 5.83335 2.33334H22.1667C22.4761 2.33334 22.7729 2.45626 22.9916 2.67505C23.2104 2.89384 23.3334 3.19059 23.3334 3.50001V24.5C23.3334 24.723 23.2695 24.9414 23.1492 25.1292C23.0289 25.317 22.8573 25.4664 22.6548 25.5598C22.4522 25.6531 22.2271 25.6863 22.0062 25.6557C21.7853 25.625 21.5778 25.5316 21.4084 25.3867L20.2032 24.3542C19.9918 24.1731 19.7226 24.0736 19.4443 24.0736C19.1659 24.0736 18.8968 24.1731 18.6854 24.3542L17.4814 25.3855C17.2699 25.5669 17.0005 25.6666 16.7219 25.6666C16.4432 25.6666 16.1738 25.5669 15.9624 25.3855L14.7595 24.3542C14.548 24.1728 14.2786 24.0731 14 24.0731C13.7214 24.0731 13.452 24.1728 13.2405 24.3542L12.0377 25.3855C11.8262 25.5669 11.5568 25.6666 11.2782 25.6666C10.9996 25.6666 10.7302 25.5669 10.5187 25.3855L9.31469 24.3542C9.10328 24.1731 8.83411 24.0736 8.55577 24.0736C8.27743 24.0736 8.00826 24.1731 7.79685 24.3542L6.59285 25.3855C6.42347 25.5308 6.21598 25.6244 5.99499 25.6553C5.774 25.6863 5.54878 25.6531 5.34604 25.5599C5.1433 25.4667 4.97154 25.3173 4.85112 25.1295C4.73071 24.9416 4.6667 24.7232 4.66669 24.5V3.50001ZM10.5 7.00001C10.1906 7.00001 9.89386 7.12293 9.67506 7.34172C9.45627 7.56051 9.33335 7.85726 9.33335 8.16668C9.33335 8.4761 9.45627 8.77284 9.67506 8.99163C9.89386 9.21043 10.1906 9.33334 10.5 9.33334H17.5C17.8094 9.33334 18.1062 9.21043 18.325 8.99163C18.5438 8.77284 18.6667 8.4761 18.6667 8.16668C18.6667 7.85726 18.5438 7.56051 18.325 7.34172C18.1062 7.12293 17.8094 7.00001 17.5 7.00001H10.5ZM10.5 11.6667C10.1906 11.6667 9.89386 11.7896 9.67506 12.0084C9.45627 12.2272 9.33335 12.5239 9.33335 12.8333C9.33335 13.1428 9.45627 13.4395 9.67506 13.6583C9.89386 13.8771 10.1906 14 10.5 14H17.5C17.8094 14 18.1062 13.8771 18.325 13.6583C18.5438 13.4395 18.6667 13.1428 18.6667 12.8333C18.6667 12.5239 18.5438 12.2272 18.325 12.0084C18.1062 11.7896 17.8094 11.6667 17.5 11.6667H10.5ZM11.6667 17.5C11.6667 17.1906 11.7896 16.8938 12.0084 16.6751C12.2272 16.4563 12.5239 16.3333 12.8334 16.3333H17.5C17.8094 16.3333 18.1062 16.4563 18.325 16.6751C18.5438 16.8938 18.6667 17.1906 18.6667 17.5C18.6667 17.8094 18.5438 18.1062 18.325 18.325C18.1062 18.5438 17.8094 18.6667 17.5 18.6667H12.8334C12.5239 18.6667 12.2272 18.5438 12.0084 18.325C11.7896 18.1062 11.6667 17.8094 11.6667 17.5Z" fill="#3D3D3D"/>
</svg>
