<svg width="28" height="28" viewBox="0 0 28 28" fill="none" xmlns="http://www.w3.org/2000/svg">
<path d="M2.33331 22.1667C2.33331 24.15 3.84998 25.6667 5.83331 25.6667H22.1666C24.15 25.6667 25.6666 24.15 25.6666 22.1667V12.8333H2.33331V22.1667ZM22.1666 4.66668H19.8333V3.50001C19.8333 2.80001 19.3666 2.33334 18.6666 2.33334C17.9666 2.33334 17.5 2.80001 17.5 3.50001V4.66668H10.5V3.50001C10.5 2.80001 10.0333 2.33334 9.33331 2.33334C8.63331 2.33334 8.16665 2.80001 8.16665 3.50001V4.66668H5.83331C3.84998 4.66668 2.33331 6.18334 2.33331 8.16668V10.5H25.6666V8.16668C25.6666 6.18334 24.15 4.66668 22.1666 4.66668Z" fill="#3D3D3D"/>
</svg>
