<svg width="52" height="52" viewBox="0 0 52 52" fill="none" xmlns="http://www.w3.org/2000/svg">
<g filter="url(#filter0_d_13_6)">
<circle cx="26" cy="26" r="25" fill="#1C4584"/>
</g>
<path fill-rule="evenodd" clip-rule="evenodd" d="M20.6667 19.3333C20.6667 17.9188 21.2286 16.5623 22.2288 15.5621C23.229 14.5619 24.5855 14 26 14C27.4145 14 28.771 14.5619 29.7712 15.5621C30.7714 16.5623 31.3333 17.9188 31.3333 19.3333C31.3333 20.7478 30.7714 22.1044 29.7712 23.1046C28.771 24.1048 27.4145 24.6667 26 24.6667C24.5855 24.6667 23.229 24.1048 22.2288 23.1046C21.2286 22.1044 20.6667 20.7478 20.6667 19.3333ZM20.6667 27.3333C18.8986 27.3333 17.2029 28.0357 15.9526 29.286C14.7024 30.5362 14 32.2319 14 34C14 35.0609 14.4214 36.0783 15.1716 36.8284C15.9217 37.5786 16.9391 38 18 38H34C35.0609 38 36.0783 37.5786 36.8284 36.8284C37.5786 36.0783 38 35.0609 38 34C38 32.2319 37.2976 30.5362 36.0474 29.286C34.7971 28.0357 33.1014 27.3333 31.3333 27.3333H20.6667Z" fill="white"/>
<defs>
<filter id="filter0_d_13_6" x="0" y="0" width="52" height="52" filterUnits="userSpaceOnUse" color-interpolation-filters="sRGB">
<feFlood flood-opacity="0" result="BackgroundImageFix"/>
<feColorMatrix in="SourceAlpha" type="matrix" values="0 0 0 0 0 0 0 0 0 0 0 0 0 0 0 0 0 0 127 0" result="hardAlpha"/>
<feOffset/>
<feGaussianBlur stdDeviation="0.5"/>
<feComposite in2="hardAlpha" operator="out"/>
<feColorMatrix type="matrix" values="0 0 0 0 0 0 0 0 0 0 0 0 0 0 0 0 0 0 0.25 0"/>
<feBlend mode="normal" in2="BackgroundImageFix" result="effect1_dropShadow_13_6"/>
<feBlend mode="normal" in="SourceGraphic" in2="effect1_dropShadow_13_6" result="shape"/>
</filter>
</defs>
</svg>
