<svg width="28" height="28" viewBox="0 0 28 28" fill="none" xmlns="http://www.w3.org/2000/svg">
<path d="M19.8334 10.5H8.16669V4.66667H19.8334V10.5ZM22.6217 12.53L12.985 22.1667H4.66669V14C4.66669 13.3812 4.91252 12.7877 5.3501 12.3501C5.78769 11.9125 6.38118 11.6667 7.00002 11.6667H21C21.6884 11.6667 22.295 11.97 22.75 12.4483C22.6917 12.4717 22.6567 12.495 22.6217 12.53ZM11.6667 14H7.00002V16.3333H11.6667V14ZM15.1667 23.2867V25.6667H17.5467L24.6984 18.5267L22.3184 16.135L15.1667 23.2867ZM26.6584 15.715L25.1184 14.175C24.885 13.9417 24.5 13.9417 24.2784 14.175L23.135 15.3183L25.515 17.6983L26.6584 16.555C26.8917 16.3333 26.8917 15.9483 26.6584 15.715Z" fill="#3D3D3D"/>
</svg>
