<svg width="28" height="28" viewBox="0 0 28 28" fill="none" xmlns="http://www.w3.org/2000/svg">
<path d="M2.33331 11.6667C2.33331 11.025 2.56198 10.4755 3.01932 10.0182C3.47665 9.56083 4.02576 9.33255 4.66665 9.33333H8.16665V6.99999C8.16665 6.35833 8.39531 5.80883 8.85265 5.35149C9.30998 4.89416 9.85909 4.66588 10.5 4.66666H17.5C18.1416 4.66666 18.6911 4.89532 19.1485 5.35266C19.6058 5.80999 19.8341 6.3591 19.8333 6.99999V9.33333H23.3333C23.975 9.33333 24.5245 9.56199 24.9818 10.0193C25.4391 10.4767 25.6674 11.0258 25.6666 11.6667V16.3333H21V15.1667C21 14.8361 20.888 14.5588 20.664 14.3348C20.44 14.1108 20.1631 13.9992 19.8333 14C19.5028 14 19.2255 14.112 19.0015 14.336C18.7775 14.56 18.6659 14.8369 18.6666 15.1667V16.3333H9.33331V15.1667C9.33331 14.8361 9.22131 14.5588 8.99731 14.3348C8.77331 14.1108 8.49643 13.9992 8.16665 14C7.83609 14 7.55882 14.112 7.33482 14.336C7.11082 14.56 6.9992 14.8369 6.99998 15.1667V16.3333H2.33331V11.6667ZM10.5 9.33333H17.5V6.99999H10.5V9.33333ZM4.66665 23.3333C4.02498 23.3333 3.47548 23.1047 3.01815 22.6473C2.56081 22.19 2.33254 21.6409 2.33331 21V17.5H6.99998C6.99998 17.8305 7.11198 18.1078 7.33598 18.3318C7.55998 18.5558 7.83687 18.6674 8.16665 18.6667C8.4972 18.6667 8.77448 18.5547 8.99848 18.3307C9.22248 18.1067 9.33409 17.8298 9.33331 17.5H18.6666C18.6666 17.8305 18.7786 18.1078 19.0026 18.3318C19.2266 18.5558 19.5035 18.6674 19.8333 18.6667C20.1639 18.6667 20.4411 18.5547 20.6651 18.3307C20.8891 18.1067 21.0008 17.8298 21 17.5H25.6666V21C25.6666 21.6417 25.438 22.1912 24.9806 22.6485C24.5233 23.1058 23.9742 23.3341 23.3333 23.3333H4.66665Z" fill="#3D3D3D"/>
</svg>
