<svg width="28" height="28" viewBox="0 0 28 28" fill="none" xmlns="http://www.w3.org/2000/svg">
<path fill-rule="evenodd" clip-rule="evenodd" d="M14 1.45834C14.2319 1.45855 14.4544 1.55087 14.6183 1.71501L18.1183 5.21501C18.2729 5.38088 18.357 5.60027 18.353 5.82695C18.349 6.05364 18.2572 6.26992 18.0969 6.43024C17.9365 6.59055 17.7203 6.68238 17.4936 6.68638C17.2669 6.69038 17.0475 6.60624 16.8816 6.45168L14.875 4.44501V11.6667C14.875 11.8987 14.7828 12.1213 14.6187 12.2854C14.4546 12.4495 14.232 12.5417 14 12.5417C13.7679 12.5417 13.5453 12.4495 13.3812 12.2854C13.2172 12.1213 13.125 11.8987 13.125 11.6667V4.44501L11.1183 6.45168C10.9524 6.60624 10.733 6.69038 10.5064 6.68638C10.2797 6.68238 10.0634 6.59055 9.90307 6.43024C9.74276 6.26992 9.65093 6.05364 9.64693 5.82695C9.64293 5.60027 9.72707 5.38088 9.88163 5.21501L13.3816 1.71501C13.5456 1.55087 13.768 1.45855 14 1.45834Z" fill="#3D3D3D"/>
<path d="M4.04129 23.9575C5.75163 25.6667 8.50029 25.6667 14 25.6667C19.4996 25.6667 22.2495 25.6667 23.9575 23.9575C25.4403 22.4759 25.6375 20.209 25.6631 16.0417H21.98C20.8436 16.0417 20.5461 16.0604 20.2976 16.1747C20.048 16.2902 19.8403 16.5037 19.1006 17.3647L18.2921 18.3097C17.7065 18.9934 17.2421 19.5359 16.6005 19.831C15.9588 20.1262 15.2448 20.1262 14.3441 20.125H13.6558C12.7551 20.125 12.0411 20.1274 11.3995 19.831C10.7578 19.5359 10.2935 18.9934 9.70779 18.3085L8.89929 17.3659C8.15963 16.5025 7.95196 16.2902 7.70229 16.1759C7.45379 16.0604 7.15629 16.0417 6.01996 16.0417H2.33679C2.36363 20.209 2.55846 22.4759 4.04129 23.9575Z" fill="#3D3D3D"/>
<path d="M25.6666 14C25.6666 8.50035 25.6666 5.75052 23.9575 4.04135C22.7675 2.85135 21.0723 2.48968 18.2921 2.38118L17.7415 2.36252L19.3561 3.97718C19.7776 4.3981 20.0434 4.94986 20.1099 5.54181C20.1763 6.13376 20.0394 6.73071 19.7217 7.23459C19.4041 7.73847 18.9244 8.11932 18.3617 8.31457C17.7989 8.50982 17.1865 8.50786 16.625 8.30902V11.6667C16.625 12.3629 16.3484 13.0306 15.8561 13.5228C15.3639 14.0151 14.6962 14.2917 14 14.2917C13.3038 14.2917 12.6361 14.0151 12.1438 13.5228C11.6515 13.0306 11.375 12.3629 11.375 11.6667V8.30902C10.8135 8.50786 10.201 8.50982 9.63828 8.31457C9.07552 8.11932 8.5959 7.73847 8.27821 7.23459C7.96052 6.73071 7.82366 6.13376 7.8901 5.54181C7.95653 4.94986 8.22233 4.3981 8.64381 3.97718L10.2491 2.36252C7.14581 2.44768 5.30715 2.77552 4.04248 4.04252C2.33331 5.74935 2.33331 8.49919 2.33331 14V14.2917H6.17748C7.07815 14.2917 7.79215 14.2894 8.43381 14.5857C9.07548 14.8809 9.53981 15.4234 10.1255 16.1082L10.934 17.0509C11.6736 17.9142 11.8813 18.1265 12.131 18.2409C12.3795 18.3564 12.677 18.375 13.8133 18.375H14.1866C15.323 18.375 15.6205 18.3564 15.869 18.242C16.1186 18.1265 16.3263 17.913 17.066 17.052L17.8745 16.107C18.4601 15.4234 18.9245 14.8809 19.5661 14.5857C20.2078 14.2894 20.9218 14.2905 21.8225 14.2917H25.6666V14Z" fill="#3D3D3D"/>
</svg>
