<svg width="49" height="33" viewBox="0 0 49 33" fill="none" xmlns="http://www.w3.org/2000/svg">
<path d="M19.6874 21.2691C20.4002 22.8562 20.5617 24.6362 20.1461 26.3256C19.7305 28.0151 18.7617 29.5169 17.3939 30.5922C17.0472 30.8674 16.6754 31.1095 16.2835 31.3153C16.0908 31.4168 15.9085 31.5349 15.7054 31.6219L15.1025 31.8871C14.8995 31.9715 14.692 32.0448 14.481 32.1067C14.2714 32.1829 14.0568 32.2445 13.8387 32.2911L13.182 32.4299L12.5107 32.5045C11.6068 32.571 10.698 32.4955 9.8174 32.2807C8.954 32.048 8.12605 31.6996 7.35611 31.2448C6.61076 30.7882 5.91623 30.2535 5.28432 29.6495C5.131 29.4962 4.98598 29.3388 4.83681 29.1855L4.61306 28.9513L4.40588 28.7048C4.26914 28.5411 4.13033 28.3775 3.99152 28.2096L3.61652 27.6876C3.3662 27.3389 3.13453 26.9772 2.92247 26.604C2.81125 26.4201 2.7096 26.2307 2.61792 26.0363L2.32787 25.4625L2.08754 24.872C2.00881 24.6648 1.91973 24.4783 1.85757 24.2732C1.72498 23.8589 1.57788 23.4652 1.48258 23.0488C1.05573 21.4038 0.87971 19.7037 0.960486 18.0061C1.03869 16.3193 1.32753 14.6489 1.82028 13.0338C1.95495 12.6339 2.08132 12.2341 2.23464 11.8383C2.38795 11.4426 2.54748 11.0531 2.71944 10.6699C3.0655 9.90547 3.45565 9.16182 3.88793 8.44267C4.75031 6.98841 5.7862 5.64433 6.97283 4.43997C8.20116 3.17124 9.66207 2.15064 11.2759 1.43379C12.1295 1.06752 13.0296 0.820721 13.9506 0.700378C14.1827 0.66723 14.4189 0.658947 14.655 0.640301C14.8912 0.621655 15.1274 0.640301 15.3636 0.640301C15.5998 0.640301 15.8422 0.667232 16.068 0.690022C16.2938 0.712812 16.5051 0.739748 16.7268 0.77704C17.6333 0.91366 18.5198 1.16065 19.3663 1.51252C20.2472 1.88549 21.0633 2.39598 21.7841 3.02493C22.1429 3.34118 22.4774 3.684 22.7848 4.05047C23.0821 4.4137 23.3549 4.79646 23.601 5.19617C24.069 5.96852 24.4543 6.78793 24.7509 7.64089C25.2838 9.24263 25.6544 10.8939 25.8572 12.5697C26.0768 14.1878 26.2136 15.7768 26.3648 17.3348C26.5161 18.8928 26.6777 20.4093 26.947 21.8575C27.2163 23.3057 27.6017 24.6772 28.2087 25.8043C28.3563 26.0773 28.5217 26.3403 28.7039 26.5916C28.8837 26.833 29.0803 27.0615 29.2923 27.2753C29.713 27.6931 30.1934 28.0464 30.7176 28.3236C31.2202 28.5879 31.7603 28.7738 32.3191 28.8747C32.4559 28.8892 32.5926 28.9203 32.7335 28.9223C32.8039 28.9223 32.864 28.9348 32.9407 28.9368H33.6865C33.8523 28.9368 34.0139 28.912 34.1775 28.9016C35.4902 28.8113 36.7652 28.4246 37.9068 27.7704C39.0843 27.0998 40.128 26.2176 40.9855 25.1683C41.1015 25.0357 41.2107 24.8974 41.3128 24.7539L41.6298 24.3395L41.924 23.9003C42.0234 23.7532 42.1312 23.6082 42.2099 23.4528C42.3922 23.1483 42.5787 22.8458 42.7382 22.5247C42.819 22.3651 42.9102 22.2097 42.9847 22.0461L43.2023 21.5571C43.8051 20.2298 44.2602 18.8403 44.5593 17.4135C44.871 15.9842 45.0287 14.5257 45.0296 13.0628V12.5158L45.0006 11.9689C45.0006 11.6022 44.9405 11.2437 44.9094 10.8812C44.825 10.1657 44.6914 9.45682 44.5096 8.75966C44.338 8.06857 44.1093 7.39291 43.8259 6.73966C43.558 6.10629 43.2195 5.50512 42.8169 4.94755C42.0394 3.85142 40.906 3.05854 39.6098 2.7038C39.444 2.66651 39.2845 2.60436 39.1146 2.58157L38.6091 2.49663C38.2651 2.45972 37.919 2.44587 37.5732 2.45519C36.8831 2.47752 36.1986 2.58823 35.5366 2.78461C34.2129 3.17612 32.9999 3.87379 31.9959 4.82118C30.972 5.79591 30.2481 7.04313 29.9096 8.41574C29.5367 9.83906 29.4746 11.4116 29.3917 12.9985L29.1845 13.0213C28.7474 11.4903 28.4345 9.89085 28.5485 8.1982C28.6079 7.33437 28.7994 6.48475 29.1162 5.6789C29.2792 5.26828 29.476 4.8719 29.7045 4.49384C29.9375 4.11632 30.1986 3.75688 30.4856 3.41858C31.0609 2.74019 31.7399 2.15703 32.4973 1.6907C33.2537 1.2269 34.0709 0.870589 34.9255 0.632012C35.7774 0.397183 36.6564 0.2746 37.5401 0.267374H37.8715C37.982 0.261136 38.0926 0.261136 38.203 0.267374L38.866 0.319169L39.5248 0.422759C39.7465 0.453836 39.9599 0.520138 40.1775 0.569861C40.2852 0.596794 40.395 0.619583 40.5027 0.652731L40.8218 0.760462C41.029 0.832975 41.2486 0.893058 41.4578 0.988361L41.7707 1.12303C41.8763 1.16861 41.9778 1.22454 42.0773 1.27634C42.2824 1.37752 42.4816 1.49027 42.674 1.61404C43.4538 2.09132 44.1531 2.6892 44.7458 3.38543C45.3201 4.06359 45.8106 4.8086 46.2064 5.60432C46.5964 6.37294 46.918 7.17435 47.1677 7.99931C47.4179 8.81359 47.611 9.64432 47.7457 10.4855C47.7996 10.8998 47.8742 11.3142 47.9052 11.743L47.9612 12.3646L47.9923 12.9965C48.0603 14.6784 47.9477 16.3627 47.6566 18.0206C47.3772 19.69 46.9145 21.3234 46.2768 22.8914L46.0303 23.4818C45.9453 23.6766 45.8459 23.8672 45.7547 24.0619C45.5766 24.4514 45.3652 24.8285 45.156 25.2055C45.0565 25.3961 44.9488 25.5785 44.8266 25.7629L44.4889 26.3222L44.1118 26.8568C43.9875 27.0349 43.8611 27.2131 43.7181 27.383C42.6277 28.8132 41.2766 30.0244 39.7362 30.9527C38.9499 31.4241 38.1167 31.8122 37.25 32.1108C36.3745 32.3961 35.472 32.5905 34.5567 32.6909C34.3288 32.7117 34.1009 32.7469 33.873 32.7552L33.1914 32.7738H32.8495C32.7335 32.7738 32.5968 32.7738 32.4725 32.7572C32.2156 32.7572 31.9628 32.7075 31.71 32.6785C30.7145 32.5188 29.7554 32.1827 28.8779 31.6861C28.0208 31.2056 27.2447 30.5932 26.5782 29.8712C25.9229 29.1644 25.3718 28.3677 24.9415 27.5052C24.0983 25.8333 23.6984 24.1241 23.4146 22.477C23.1307 20.8299 23.0002 19.2139 22.8842 17.6331C22.7682 16.0524 22.6604 14.5047 22.4864 13.0027C22.3416 11.5471 22.0515 10.1098 21.6204 8.712C21.1833 7.39434 20.5514 6.22585 19.6439 5.41578C19.186 4.99958 18.6641 4.65963 18.0984 4.40889C17.4957 4.14549 16.8634 3.95626 16.2151 3.84536C16.0473 3.81429 15.8753 3.79564 15.7054 3.76871C15.5356 3.74178 15.3926 3.7397 15.2331 3.72313C15.0735 3.70656 14.9202 3.72313 14.7648 3.72313C14.6095 3.72313 14.4499 3.73349 14.2925 3.75421C13.6523 3.82228 13.0247 3.97917 12.4279 4.22036C11.1483 4.76059 9.98373 5.54046 8.99697 6.51798C7.94969 7.5321 7.0293 8.66954 6.25599 9.90536C5.86273 10.5257 5.50579 11.1684 5.18694 11.8301C5.02949 12.1595 4.87825 12.493 4.74358 12.8287C4.60891 13.1643 4.48875 13.5144 4.36237 13.8646C3.45078 16.6366 3.17938 19.6656 3.85064 22.4687C3.91901 22.8251 4.03917 23.1628 4.14069 23.5046C4.18627 23.6786 4.25878 23.8423 4.32093 24.0101L4.51361 24.5115L4.74358 24.9963C4.81606 25.1592 4.89697 25.3183 4.98598 25.4728C5.15421 25.788 5.33957 26.0937 5.54122 26.3885L5.84163 26.8319L6.17519 27.2463L6.34093 27.4534L6.52118 27.6606L6.88167 28.0543C7.3772 28.5493 7.92217 28.9922 8.50803 29.3761C9.09042 29.7331 9.71736 30.0117 10.3726 30.2048C11.0198 30.3821 11.6917 30.4521 12.3616 30.412L12.8629 30.3643L13.3622 30.2628C13.5299 30.231 13.6948 30.186 13.8553 30.1281C14.0203 30.0817 14.1823 30.025 14.3401 29.9582L14.8187 29.7511C14.9782 29.6848 15.1274 29.5853 15.2828 29.5045C15.5882 29.3483 15.88 29.1667 16.155 28.9617C18.4008 27.3623 19.3497 24.4556 19.5755 21.2961L19.6874 21.2691Z" fill="#1C4584"/>
<g opacity="0.8">
<path d="M1.8237 17.29C1.78615 16.3977 1.8431 15.5039 1.99358 14.6236C2.13941 13.7388 2.35627 12.8672 2.64205 12.0173C3.20891 10.3054 4.04843 8.69635 5.1282 7.25214C6.20738 5.80419 7.51193 4.53881 8.9921 3.50426C10.4577 2.47708 12.0678 1.67342 13.7697 1.11963C12.2044 1.91717 10.7179 2.86056 9.3298 3.93727C9.1537 4.06572 8.99417 4.21489 8.82636 4.35163C8.65854 4.48836 8.48865 4.6251 8.3312 4.77634C8.01214 5.07261 7.69101 5.36473 7.39267 5.68379C7.09433 6.00284 6.80014 6.31776 6.50802 6.63889C6.2159 6.96002 5.95485 7.30808 5.70209 7.66235C4.65857 9.05658 3.80446 10.583 3.16207 12.2016C2.83466 13.0124 2.55789 13.8427 2.33335 14.6878C2.1003 15.5416 1.92996 16.4113 1.8237 17.29Z" fill="#FEFFFF"/>
</g>
<g opacity="0.8">
<path d="M38.1092 1.53722C36.8517 1.60179 35.6128 1.86832 34.44 2.32658C33.8593 2.55247 33.3038 2.83856 32.7826 3.18016C32.2691 3.52071 31.7964 3.91902 31.3738 4.36729C30.5289 5.28197 29.8928 6.36914 29.5092 7.55371C29.1191 8.75431 28.879 9.99855 28.7944 11.2581C28.7251 9.97498 28.8672 8.68922 29.215 7.4522C29.2937 7.13936 29.4097 6.83066 29.5195 6.53232C29.5734 6.37901 29.65 6.23606 29.7163 6.08689C29.7771 5.93805 29.8463 5.79279 29.9235 5.65181C30.2279 5.07335 30.6084 4.53823 31.0547 4.06067C31.9443 3.09813 33.0634 2.37679 34.3074 1.96402C34.9205 1.76071 35.553 1.62184 36.1948 1.54966C36.83 1.467 37.473 1.46281 38.1092 1.53722Z" fill="#FEFFFF"/>
</g>
<g opacity="0.7">
<path d="M45.2859 9.50684C46.3549 12.0282 46.6284 14.8811 46.2513 17.62C46.0639 18.9962 45.7163 20.3458 45.2154 21.6413C44.7083 22.9402 44.0446 24.1724 43.2389 25.3105C42.8324 25.8784 42.388 26.4183 41.9088 26.9265C40.9522 27.9505 39.8466 28.8243 38.6292 29.5183C38.0128 29.8602 37.3603 30.1326 36.6838 30.3304C35.3433 30.7282 33.8703 30.8422 32.5153 30.3988C32.1806 30.284 31.8591 30.134 31.5561 29.9513C31.2546 29.7663 30.9764 29.5458 30.7274 29.2945C30.4846 29.0438 30.2719 28.7657 30.0934 28.4658C29.9207 28.1692 29.7744 27.8579 29.6562 27.5356C29.9517 28.144 30.3651 28.6877 30.8724 29.135C31.1269 29.35 31.4049 29.5356 31.7011 29.6882C31.9945 29.836 32.3029 29.9519 32.621 30.0342C33.2592 30.1937 33.9202 30.2413 34.5747 30.175C35.2311 30.1138 35.8779 29.9747 36.5015 29.7607C37.1246 29.5439 37.7249 29.2664 38.2936 28.932C38.8616 28.5901 39.4019 28.2043 39.9096 27.778C40.9328 26.9295 41.8386 25.9485 42.6029 24.8609C43.3792 23.776 44.0252 22.6036 44.5276 21.3678C44.7853 20.7511 45.008 20.1202 45.1947 19.4784C45.3812 18.8361 45.5283 18.1835 45.6546 17.5247C46.1487 14.8592 46.0225 12.1157 45.2859 9.50684Z" fill="#FEFFFF"/>
</g>
<g opacity="0.8">
<path d="M19.6211 21.2832C20.1239 22.2547 20.4068 23.3248 20.4498 24.4178C20.4862 25.5336 20.2568 26.6421 19.7806 27.6519C19.2999 28.6692 18.601 29.5683 17.7337 30.2851C16.861 30.9994 15.8513 31.5275 14.7669 31.8369C13.683 32.1395 12.5476 32.2108 11.4344 32.0463C10.3212 31.8818 9.25497 31.485 8.30497 30.8818C7.35882 30.306 6.53176 29.5542 5.86854 28.6671C5.20203 27.7947 4.79232 26.7535 4.68555 25.6609C4.93977 26.6934 5.44749 27.6461 6.16274 28.433C6.85847 29.2137 7.68507 29.8672 8.60538 30.3639C9.50688 30.8665 10.4964 31.1914 11.5204 31.321C13.0529 31.5086 14.6064 31.2341 15.9818 30.5328C17.3572 29.8314 18.4918 28.7352 19.2399 27.3846C19.7304 26.4677 20.0133 25.4542 20.0686 24.4158C20.1187 23.3527 19.9669 22.2897 19.6211 21.2832Z" fill="#FEFFFF"/>
</g>
</svg>
